  0
SECTION
  2
BLOCKS
  0
ENDSEC
  0
SECTION
  2
ENTITIES
  0
LINE
  8
0
 10
-85
 11
-84.977
 20
0
 21
1.993
  0
LINE
  8
0
 10
-84.977
 11
-84.907
 20
1.993
 21
3.984
  0
LINE
  8
0
 10
-84.907
 11
-84.79
 20
3.984
 21
5.973
  0
LINE
  8
0
 10
-84.79
 11
-84.627
 20
5.973
 21
7.96
  0
LINE
  8
0
 10
-84.627
 11
-84.417
 20
7.96
 21
9.941
  0
LINE
  8
0
 10
-84.417
 11
-84.16
 20
9.941
 21
11.917
  0
LINE
  8
0
 10
-84.16
 11
-83.858
 20
11.917
 21
13.887
  0
LINE
  8
0
 10
-83.858
 11
-83.509
 20
13.887
 21
15.849
  0
LINE
  8
0
 10
-83.509
 11
-83.115
 20
15.849
 21
17.802
  0
LINE
  8
0
 10
-83.115
 11
-82.675
 20
17.802
 21
19.746
  0
LINE
  8
0
 10
-82.675
 11
-82.189
 20
19.746
 21
21.679
  0
LINE
  8
0
 10
-82.189
 11
-81.658
 20
21.679
 21
23.599
  0
LINE
  8
0
 10
-81.658
 11
-81.083
 20
23.599
 21
25.507
  0
LINE
  8
0
 10
-81.083
 11
-80.462
 20
25.507
 21
27.401
  0
LINE
  8
0
 10
-80.462
 11
-79.798
 20
27.401
 21
29.28
  0
LINE
  8
0
 10
-79.798
 11
-79.09
 20
29.28
 21
31.142
  0
LINE
  8
0
 10
-79.09
 11
-78.338
 20
31.142
 21
32.988
  0
LINE
  8
0
 10
-78.338
 11
-77.543
 20
32.988
 21
34.815
  0
LINE
  8
0
 10
-77.543
 11
-76.705
 20
34.815
 21
36.623
  0
LINE
  8
0
 10
-76.705
 11
-75.826
 20
36.623
 21
38.412
  0
LINE
  8
0
 10
-75.826
 11
-74.905
 20
38.412
 21
40.179
  0
LINE
  8
0
 10
-74.905
 11
-73.942
 20
40.179
 21
41.923
  0
LINE
  8
0
 10
-73.942
 11
-72.939
 20
41.923
 21
43.645
  0
LINE
  8
0
 10
-72.939
 11
-71.896
 20
43.645
 21
45.343
  0
LINE
  8
0
 10
-71.896
 11
-70.813
 20
45.343
 21
47.016
  0
LINE
  8
0
 10
-70.813
 11
-69.691
 20
47.016
 21
48.663
  0
LINE
  8
0
 10
-69.691
 11
-68.531
 20
48.663
 21
50.284
  0
LINE
  8
0
 10
-68.531
 11
-67.334
 20
50.284
 21
51.876
  0
LINE
  8
0
 10
-67.334
 11
-66.099
 20
51.876
 21
53.441
  0
LINE
  8
0
 10
-66.099
 11
-64.828
 20
53.441
 21
54.975
  0
LINE
  8
0
 10
-64.828
 11
-63.522
 20
54.975
 21
56.48
  0
LINE
  8
0
 10
-63.522
 11
-62.18
 20
56.48
 21
57.954
  0
LINE
  8
0
 10
-62.18
 11
-60.804
 20
57.954
 21
59.395
  0
LINE
  8
0
 10
-60.804
 11
-59.395
 20
59.395
 21
60.804
  0
LINE
  8
0
 10
-59.395
 11
-57.954
 20
60.804
 21
62.18
  0
LINE
  8
0
 10
-57.954
 11
-56.48
 20
62.18
 21
63.522
  0
LINE
  8
0
 10
-56.48
 11
-54.975
 20
63.522
 21
64.828
  0
LINE
  8
0
 10
-54.975
 11
-53.441
 20
64.828
 21
66.099
  0
LINE
  8
0
 10
-53.441
 11
-51.876
 20
66.099
 21
67.334
  0
LINE
  8
0
 10
-51.876
 11
-50.284
 20
67.334
 21
68.531
  0
LINE
  8
0
 10
-50.284
 11
-48.663
 20
68.531
 21
69.691
  0
LINE
  8
0
 10
-48.663
 11
-47.016
 20
69.691
 21
70.813
  0
LINE
  8
0
 10
-47.016
 11
-45.343
 20
70.813
 21
71.896
  0
LINE
  8
0
 10
-45.343
 11
-43.645
 20
71.896
 21
72.939
  0
LINE
  8
0
 10
-43.645
 11
-41.923
 20
72.939
 21
73.942
  0
LINE
  8
0
 10
-41.923
 11
-40.179
 20
73.942
 21
74.905
  0
LINE
  8
0
 10
-40.179
 11
-38.412
 20
74.905
 21
75.826
  0
LINE
  8
0
 10
-38.412
 11
-36.623
 20
75.826
 21
76.705
  0
LINE
  8
0
 10
-36.623
 11
-34.815
 20
76.705
 21
77.543
  0
LINE
  8
0
 10
-34.815
 11
-32.988
 20
77.543
 21
78.338
  0
LINE
  8
0
 10
-32.988
 11
-31.142
 20
78.338
 21
79.09
  0
LINE
  8
0
 10
-31.142
 11
-29.28
 20
79.09
 21
79.798
  0
LINE
  8
0
 10
-29.28
 11
-27.401
 20
79.798
 21
80.462
  0
LINE
  8
0
 10
-27.401
 11
-25.507
 20
80.462
 21
81.083
  0
LINE
  8
0
 10
-25.507
 11
-23.599
 20
81.083
 21
81.658
  0
LINE
  8
0
 10
-23.599
 11
-21.679
 20
81.658
 21
82.189
  0
LINE
  8
0
 10
-21.679
 11
-19.746
 20
82.189
 21
82.675
  0
LINE
  8
0
 10
-19.746
 11
-17.802
 20
82.675
 21
83.115
  0
LINE
  8
0
 10
-17.802
 11
-15.849
 20
83.115
 21
83.509
  0
LINE
  8
0
 10
-15.849
 11
-13.887
 20
83.509
 21
83.858
  0
LINE
  8
0
 10
-13.887
 11
-11.917
 20
83.858
 21
84.16
  0
LINE
  8
0
 10
-11.917
 11
-9.941
 20
84.16
 21
84.417
  0
LINE
  8
0
 10
-9.941
 11
-7.96
 20
84.417
 21
84.627
  0
LINE
  8
0
 10
-7.96
 11
-5.973
 20
84.627
 21
84.79
  0
LINE
  8
0
 10
-5.973
 11
-3.984
 20
84.79
 21
84.907
  0
LINE
  8
0
 10
-3.984
 11
-1.993
 20
84.907
 21
84.977
  0
LINE
  8
0
 10
-1.993
 11
0
 20
84.977
 21
85
  0
LINE
  8
0
 10
0
 11
1.993
 20
85
 21
84.977
  0
LINE
  8
0
 10
1.993
 11
3.984
 20
84.977
 21
84.907
  0
LINE
  8
0
 10
3.984
 11
5.973
 20
84.907
 21
84.79
  0
LINE
  8
0
 10
5.973
 11
7.96
 20
84.79
 21
84.627
  0
LINE
  8
0
 10
7.96
 11
9.941
 20
84.627
 21
84.417
  0
LINE
  8
0
 10
9.941
 11
11.917
 20
84.417
 21
84.16
  0
LINE
  8
0
 10
11.917
 11
13.887
 20
84.16
 21
83.858
  0
LINE
  8
0
 10
13.887
 11
15.849
 20
83.858
 21
83.509
  0
LINE
  8
0
 10
15.849
 11
17.802
 20
83.509
 21
83.115
  0
LINE
  8
0
 10
17.802
 11
19.746
 20
83.115
 21
82.675
  0
LINE
  8
0
 10
19.746
 11
21.679
 20
82.675
 21
82.189
  0
LINE
  8
0
 10
21.679
 11
23.599
 20
82.189
 21
81.658
  0
LINE
  8
0
 10
23.599
 11
25.507
 20
81.658
 21
81.083
  0
LINE
  8
0
 10
25.507
 11
27.401
 20
81.083
 21
80.462
  0
LINE
  8
0
 10
27.401
 11
29.28
 20
80.462
 21
79.798
  0
LINE
  8
0
 10
29.28
 11
31.142
 20
79.798
 21
79.09
  0
LINE
  8
0
 10
31.142
 11
32.988
 20
79.09
 21
78.338
  0
LINE
  8
0
 10
32.988
 11
34.815
 20
78.338
 21
77.543
  0
LINE
  8
0
 10
34.815
 11
36.623
 20
77.543
 21
76.705
  0
LINE
  8
0
 10
36.623
 11
38.412
 20
76.705
 21
75.826
  0
LINE
  8
0
 10
38.412
 11
40.179
 20
75.826
 21
74.905
  0
LINE
  8
0
 10
40.179
 11
41.923
 20
74.905
 21
73.942
  0
LINE
  8
0
 10
41.923
 11
43.645
 20
73.942
 21
72.939
  0
LINE
  8
0
 10
43.645
 11
45.343
 20
72.939
 21
71.896
  0
LINE
  8
0
 10
45.343
 11
47.016
 20
71.896
 21
70.813
  0
LINE
  8
0
 10
47.016
 11
48.663
 20
70.813
 21
69.691
  0
LINE
  8
0
 10
48.663
 11
50.284
 20
69.691
 21
68.531
  0
LINE
  8
0
 10
50.284
 11
51.876
 20
68.531
 21
67.334
  0
LINE
  8
0
 10
51.876
 11
53.441
 20
67.334
 21
66.099
  0
LINE
  8
0
 10
53.441
 11
54.975
 20
66.099
 21
64.828
  0
LINE
  8
0
 10
54.975
 11
56.48
 20
64.828
 21
63.522
  0
LINE
  8
0
 10
56.48
 11
57.954
 20
63.522
 21
62.18
  0
LINE
  8
0
 10
57.954
 11
59.395
 20
62.18
 21
60.804
  0
LINE
  8
0
 10
59.395
 11
60.804
 20
60.804
 21
59.395
  0
LINE
  8
0
 10
60.804
 11
62.18
 20
59.395
 21
57.954
  0
LINE
  8
0
 10
62.18
 11
63.522
 20
57.954
 21
56.48
  0
LINE
  8
0
 10
63.522
 11
64.828
 20
56.48
 21
54.975
  0
LINE
  8
0
 10
64.828
 11
66.099
 20
54.975
 21
53.441
  0
LINE
  8
0
 10
66.099
 11
67.334
 20
53.441
 21
51.876
  0
LINE
  8
0
 10
67.334
 11
68.531
 20
51.876
 21
50.284
  0
LINE
  8
0
 10
68.531
 11
69.691
 20
50.284
 21
48.663
  0
LINE
  8
0
 10
69.691
 11
70.813
 20
48.663
 21
47.016
  0
LINE
  8
0
 10
70.813
 11
71.896
 20
47.016
 21
45.343
  0
LINE
  8
0
 10
71.896
 11
72.939
 20
45.343
 21
43.645
  0
LINE
  8
0
 10
72.939
 11
73.942
 20
43.645
 21
41.923
  0
LINE
  8
0
 10
73.942
 11
74.905
 20
41.923
 21
40.179
  0
LINE
  8
0
 10
74.905
 11
75.826
 20
40.179
 21
38.412
  0
LINE
  8
0
 10
75.826
 11
76.705
 20
38.412
 21
36.623
  0
LINE
  8
0
 10
76.705
 11
77.543
 20
36.623
 21
34.815
  0
LINE
  8
0
 10
77.543
 11
78.338
 20
34.815
 21
32.988
  0
LINE
  8
0
 10
78.338
 11
79.09
 20
32.988
 21
31.142
  0
LINE
  8
0
 10
79.09
 11
79.798
 20
31.142
 21
29.28
  0
LINE
  8
0
 10
79.798
 11
80.462
 20
29.28
 21
27.401
  0
LINE
  8
0
 10
80.462
 11
81.083
 20
27.401
 21
25.507
  0
LINE
  8
0
 10
81.083
 11
81.658
 20
25.507
 21
23.599
  0
LINE
  8
0
 10
81.658
 11
82.189
 20
23.599
 21
21.679
  0
LINE
  8
0
 10
82.189
 11
82.675
 20
21.679
 21
19.746
  0
LINE
  8
0
 10
82.675
 11
83.115
 20
19.746
 21
17.802
  0
LINE
  8
0
 10
83.115
 11
83.509
 20
17.802
 21
15.849
  0
LINE
  8
0
 10
83.509
 11
83.858
 20
15.849
 21
13.887
  0
LINE
  8
0
 10
83.858
 11
84.16
 20
13.887
 21
11.917
  0
LINE
  8
0
 10
84.16
 11
84.417
 20
11.917
 21
9.941
  0
LINE
  8
0
 10
84.417
 11
84.627
 20
9.941
 21
7.96
  0
LINE
  8
0
 10
84.627
 11
84.79
 20
7.96
 21
5.973
  0
LINE
  8
0
 10
84.79
 11
84.907
 20
5.973
 21
3.984
  0
LINE
  8
0
 10
84.907
 11
84.977
 20
3.984
 21
1.993
  0
LINE
  8
0
 10
84.977
 11
85
 20
1.993
 21
0
  0
LINE
  8
0
 10
85
 11
84.977
 20
0
 21
-1.993
  0
LINE
  8
0
 10
84.977
 11
84.907
 20
-1.993
 21
-3.984
  0
LINE
  8
0
 10
84.907
 11
84.79
 20
-3.984
 21
-5.973
  0
LINE
  8
0
 10
84.79
 11
84.627
 20
-5.973
 21
-7.96
  0
LINE
  8
0
 10
84.627
 11
84.417
 20
-7.96
 21
-9.941
  0
LINE
  8
0
 10
84.417
 11
84.16
 20
-9.941
 21
-11.917
  0
LINE
  8
0
 10
84.16
 11
83.858
 20
-11.917
 21
-13.887
  0
LINE
  8
0
 10
83.858
 11
83.509
 20
-13.887
 21
-15.849
  0
LINE
  8
0
 10
83.509
 11
83.115
 20
-15.849
 21
-17.802
  0
LINE
  8
0
 10
83.115
 11
82.675
 20
-17.802
 21
-19.746
  0
LINE
  8
0
 10
82.675
 11
82.189
 20
-19.746
 21
-21.679
  0
LINE
  8
0
 10
82.189
 11
81.658
 20
-21.679
 21
-23.599
  0
LINE
  8
0
 10
81.658
 11
81.083
 20
-23.599
 21
-25.507
  0
LINE
  8
0
 10
81.083
 11
80.462
 20
-25.507
 21
-27.401
  0
LINE
  8
0
 10
80.462
 11
79.798
 20
-27.401
 21
-29.28
  0
LINE
  8
0
 10
79.798
 11
79.09
 20
-29.28
 21
-31.142
  0
LINE
  8
0
 10
79.09
 11
78.338
 20
-31.142
 21
-32.988
  0
LINE
  8
0
 10
78.338
 11
77.543
 20
-32.988
 21
-34.815
  0
LINE
  8
0
 10
77.543
 11
76.705
 20
-34.815
 21
-36.623
  0
LINE
  8
0
 10
76.705
 11
75.826
 20
-36.623
 21
-38.412
  0
LINE
  8
0
 10
75.826
 11
74.905
 20
-38.412
 21
-40.179
  0
LINE
  8
0
 10
74.905
 11
73.942
 20
-40.179
 21
-41.923
  0
LINE
  8
0
 10
73.942
 11
72.939
 20
-41.923
 21
-43.645
  0
LINE
  8
0
 10
72.939
 11
71.896
 20
-43.645
 21
-45.343
  0
LINE
  8
0
 10
71.896
 11
70.813
 20
-45.343
 21
-47.016
  0
LINE
  8
0
 10
70.813
 11
69.691
 20
-47.016
 21
-48.663
  0
LINE
  8
0
 10
69.691
 11
68.531
 20
-48.663
 21
-50.284
  0
LINE
  8
0
 10
68.531
 11
67.334
 20
-50.284
 21
-51.876
  0
LINE
  8
0
 10
67.334
 11
66.099
 20
-51.876
 21
-53.441
  0
LINE
  8
0
 10
66.099
 11
64.828
 20
-53.441
 21
-54.975
  0
LINE
  8
0
 10
64.828
 11
63.522
 20
-54.975
 21
-56.48
  0
LINE
  8
0
 10
63.522
 11
62.18
 20
-56.48
 21
-57.954
  0
LINE
  8
0
 10
62.18
 11
60.804
 20
-57.954
 21
-59.395
  0
LINE
  8
0
 10
60.804
 11
59.395
 20
-59.395
 21
-60.804
  0
LINE
  8
0
 10
59.395
 11
57.954
 20
-60.804
 21
-62.18
  0
LINE
  8
0
 10
57.954
 11
56.48
 20
-62.18
 21
-63.522
  0
LINE
  8
0
 10
56.48
 11
54.975
 20
-63.522
 21
-64.828
  0
LINE
  8
0
 10
54.975
 11
53.441
 20
-64.828
 21
-66.099
  0
LINE
  8
0
 10
53.441
 11
51.876
 20
-66.099
 21
-67.334
  0
LINE
  8
0
 10
51.876
 11
50.284
 20
-67.334
 21
-68.531
  0
LINE
  8
0
 10
50.284
 11
48.663
 20
-68.531
 21
-69.691
  0
LINE
  8
0
 10
48.663
 11
47.016
 20
-69.691
 21
-70.813
  0
LINE
  8
0
 10
47.016
 11
45.343
 20
-70.813
 21
-71.896
  0
LINE
  8
0
 10
45.343
 11
43.645
 20
-71.896
 21
-72.939
  0
LINE
  8
0
 10
43.645
 11
41.923
 20
-72.939
 21
-73.942
  0
LINE
  8
0
 10
41.923
 11
40.179
 20
-73.942
 21
-74.905
  0
LINE
  8
0
 10
40.179
 11
38.412
 20
-74.905
 21
-75.826
  0
LINE
  8
0
 10
38.412
 11
36.623
 20
-75.826
 21
-76.705
  0
LINE
  8
0
 10
36.623
 11
34.815
 20
-76.705
 21
-77.543
  0
LINE
  8
0
 10
34.815
 11
32.988
 20
-77.543
 21
-78.338
  0
LINE
  8
0
 10
32.988
 11
31.142
 20
-78.338
 21
-79.09
  0
LINE
  8
0
 10
31.142
 11
29.28
 20
-79.09
 21
-79.798
  0
LINE
  8
0
 10
29.28
 11
27.401
 20
-79.798
 21
-80.462
  0
LINE
  8
0
 10
27.401
 11
25.507
 20
-80.462
 21
-81.083
  0
LINE
  8
0
 10
25.507
 11
23.599
 20
-81.083
 21
-81.658
  0
LINE
  8
0
 10
23.599
 11
21.679
 20
-81.658
 21
-82.189
  0
LINE
  8
0
 10
21.679
 11
19.746
 20
-82.189
 21
-82.675
  0
LINE
  8
0
 10
19.746
 11
17.802
 20
-82.675
 21
-83.115
  0
LINE
  8
0
 10
17.802
 11
15.849
 20
-83.115
 21
-83.509
  0
LINE
  8
0
 10
15.849
 11
13.887
 20
-83.509
 21
-83.858
  0
LINE
  8
0
 10
13.887
 11
11.917
 20
-83.858
 21
-84.16
  0
LINE
  8
0
 10
11.917
 11
9.941
 20
-84.16
 21
-84.417
  0
LINE
  8
0
 10
9.941
 11
7.96
 20
-84.417
 21
-84.627
  0
LINE
  8
0
 10
7.96
 11
5.973
 20
-84.627
 21
-84.79
  0
LINE
  8
0
 10
5.973
 11
3.984
 20
-84.79
 21
-84.907
  0
LINE
  8
0
 10
3.984
 11
1.993
 20
-84.907
 21
-84.977
  0
LINE
  8
0
 10
1.993
 11
0
 20
-84.977
 21
-85
  0
LINE
  8
0
 10
0
 11
-1.993
 20
-85
 21
-84.977
  0
LINE
  8
0
 10
-1.993
 11
-3.984
 20
-84.977
 21
-84.907
  0
LINE
  8
0
 10
-3.984
 11
-5.973
 20
-84.907
 21
-84.79
  0
LINE
  8
0
 10
-5.973
 11
-7.96
 20
-84.79
 21
-84.627
  0
LINE
  8
0
 10
-7.96
 11
-9.941
 20
-84.627
 21
-84.417
  0
LINE
  8
0
 10
-9.941
 11
-11.917
 20
-84.417
 21
-84.16
  0
LINE
  8
0
 10
-11.917
 11
-13.887
 20
-84.16
 21
-83.858
  0
LINE
  8
0
 10
-13.887
 11
-15.849
 20
-83.858
 21
-83.509
  0
LINE
  8
0
 10
-15.849
 11
-17.802
 20
-83.509
 21
-83.115
  0
LINE
  8
0
 10
-17.802
 11
-19.746
 20
-83.115
 21
-82.675
  0
LINE
  8
0
 10
-19.746
 11
-21.679
 20
-82.675
 21
-82.189
  0
LINE
  8
0
 10
-21.679
 11
-23.599
 20
-82.189
 21
-81.658
  0
LINE
  8
0
 10
-23.599
 11
-25.507
 20
-81.658
 21
-81.083
  0
LINE
  8
0
 10
-25.507
 11
-27.401
 20
-81.083
 21
-80.462
  0
LINE
  8
0
 10
-27.401
 11
-29.28
 20
-80.462
 21
-79.798
  0
LINE
  8
0
 10
-29.28
 11
-31.142
 20
-79.798
 21
-79.09
  0
LINE
  8
0
 10
-31.142
 11
-32.988
 20
-79.09
 21
-78.338
  0
LINE
  8
0
 10
-32.988
 11
-34.815
 20
-78.338
 21
-77.543
  0
LINE
  8
0
 10
-34.815
 11
-36.623
 20
-77.543
 21
-76.705
  0
LINE
  8
0
 10
-36.623
 11
-38.412
 20
-76.705
 21
-75.826
  0
LINE
  8
0
 10
-38.412
 11
-40.179
 20
-75.826
 21
-74.905
  0
LINE
  8
0
 10
-40.179
 11
-41.923
 20
-74.905
 21
-73.942
  0
LINE
  8
0
 10
-41.923
 11
-43.645
 20
-73.942
 21
-72.939
  0
LINE
  8
0
 10
-43.645
 11
-45.343
 20
-72.939
 21
-71.896
  0
LINE
  8
0
 10
-45.343
 11
-47.016
 20
-71.896
 21
-70.813
  0
LINE
  8
0
 10
-47.016
 11
-48.663
 20
-70.813
 21
-69.691
  0
LINE
  8
0
 10
-48.663
 11
-50.284
 20
-69.691
 21
-68.531
  0
LINE
  8
0
 10
-50.284
 11
-51.876
 20
-68.531
 21
-67.334
  0
LINE
  8
0
 10
-51.876
 11
-53.441
 20
-67.334
 21
-66.099
  0
LINE
  8
0
 10
-53.441
 11
-54.975
 20
-66.099
 21
-64.828
  0
LINE
  8
0
 10
-54.975
 11
-56.48
 20
-64.828
 21
-63.522
  0
LINE
  8
0
 10
-56.48
 11
-57.954
 20
-63.522
 21
-62.18
  0
LINE
  8
0
 10
-57.954
 11
-59.395
 20
-62.18
 21
-60.804
  0
LINE
  8
0
 10
-59.395
 11
-60.804
 20
-60.804
 21
-59.395
  0
LINE
  8
0
 10
-60.804
 11
-62.18
 20
-59.395
 21
-57.954
  0
LINE
  8
0
 10
-62.18
 11
-63.522
 20
-57.954
 21
-56.48
  0
LINE
  8
0
 10
-63.522
 11
-64.828
 20
-56.48
 21
-54.975
  0
LINE
  8
0
 10
-64.828
 11
-66.099
 20
-54.975
 21
-53.441
  0
LINE
  8
0
 10
-66.099
 11
-67.334
 20
-53.441
 21
-51.876
  0
LINE
  8
0
 10
-67.334
 11
-68.531
 20
-51.876
 21
-50.284
  0
LINE
  8
0
 10
-68.531
 11
-69.691
 20
-50.284
 21
-48.663
  0
LINE
  8
0
 10
-69.691
 11
-70.813
 20
-48.663
 21
-47.016
  0
LINE
  8
0
 10
-70.813
 11
-71.896
 20
-47.016
 21
-45.343
  0
LINE
  8
0
 10
-71.896
 11
-72.939
 20
-45.343
 21
-43.645
  0
LINE
  8
0
 10
-72.939
 11
-73.942
 20
-43.645
 21
-41.923
  0
LINE
  8
0
 10
-73.942
 11
-74.905
 20
-41.923
 21
-40.179
  0
LINE
  8
0
 10
-74.905
 11
-75.826
 20
-40.179
 21
-38.412
  0
LINE
  8
0
 10
-75.826
 11
-76.705
 20
-38.412
 21
-36.623
  0
LINE
  8
0
 10
-76.705
 11
-77.543
 20
-36.623
 21
-34.815
  0
LINE
  8
0
 10
-77.543
 11
-78.338
 20
-34.815
 21
-32.988
  0
LINE
  8
0
 10
-78.338
 11
-79.09
 20
-32.988
 21
-31.142
  0
LINE
  8
0
 10
-79.09
 11
-79.798
 20
-31.142
 21
-29.28
  0
LINE
  8
0
 10
-79.798
 11
-80.462
 20
-29.28
 21
-27.401
  0
LINE
  8
0
 10
-80.462
 11
-81.083
 20
-27.401
 21
-25.507
  0
LINE
  8
0
 10
-81.083
 11
-81.658
 20
-25.507
 21
-23.599
  0
LINE
  8
0
 10
-81.658
 11
-82.189
 20
-23.599
 21
-21.679
  0
LINE
  8
0
 10
-82.189
 11
-82.675
 20
-21.679
 21
-19.746
  0
LINE
  8
0
 10
-82.675
 11
-83.115
 20
-19.746
 21
-17.802
  0
LINE
  8
0
 10
-83.115
 11
-83.509
 20
-17.802
 21
-15.849
  0
LINE
  8
0
 10
-83.509
 11
-83.858
 20
-15.849
 21
-13.887
  0
LINE
  8
0
 10
-83.858
 11
-84.16
 20
-13.887
 21
-11.917
  0
LINE
  8
0
 10
-84.16
 11
-84.417
 20
-11.917
 21
-9.941
  0
LINE
  8
0
 10
-84.417
 11
-84.627
 20
-9.941
 21
-7.96
  0
LINE
  8
0
 10
-84.627
 11
-84.79
 20
-7.96
 21
-5.973
  0
LINE
  8
0
 10
-84.79
 11
-84.907
 20
-5.973
 21
-3.984
  0
LINE
  8
0
 10
-84.907
 11
-84.977
 20
-3.984
 21
-1.993
  0
LINE
  8
0
 10
-84.977
 11
-85
 20
-1.993
 21
0
  0
LINE
  8
0
 10
-56.214
 11
-56.214
 20
-12.882
 21
-11.118
  0
LINE
  8
0
 10
-56.214
 11
-54.536
 20
-11.118
 21
-10.573
  0
LINE
  8
0
 10
-54.536
 11
-53.5
 20
-10.573
 21
-12
  0
LINE
  8
0
 10
-53.5
 11
-54.536
 20
-12
 21
-13.427
  0
LINE
  8
0
 10
-54.536
 11
-56.214
 20
-13.427
 21
-12.882
  0
LINE
  8
0
 10
-29
 11
-28.247
 20
43
 21
44.564
  0
LINE
  8
0
 10
-28.247
 11
-26.555
 20
44.564
 21
44.95
  0
LINE
  8
0
 10
-26.555
 11
-25.198
 20
44.95
 21
43.868
  0
LINE
  8
0
 10
-25.198
 11
-25.198
 20
43.868
 21
42.132
  0
LINE
  8
0
 10
-25.198
 11
-26.555
 20
42.132
 21
41.05
  0
LINE
  8
0
 10
-26.555
 11
-28.247
 20
41.05
 21
41.436
  0
LINE
  8
0
 10
-28.247
 11
-29
 20
41.436
 21
43
  0
LINE
  8
0
 10
-28.214
 11
-28.214
 20
-58.382
 21
-56.618
  0
LINE
  8
0
 10
-28.214
 11
-26.536
 20
-56.618
 21
-56.073
  0
LINE
  8
0
 10
-26.536
 11
-25.5
 20
-56.073
 21
-57.5
  0
LINE
  8
0
 10
-25.5
 11
-26.536
 20
-57.5
 21
-58.927
  0
LINE
  8
0
 10
-26.536
 11
-28.214
 20
-58.927
 21
-58.382
  0
LINE
  8
0
 10
-26.214
 11
-26.214
 20
-9.882
 21
-8.118
  0
LINE
  8
0
 10
-26.214
 11
-24.536
 20
-8.118
 21
-7.573
  0
LINE
  8
0
 10
-24.536
 11
-23.5
 20
-7.573
 21
-9
  0
LINE
  8
0
 10
-23.5
 11
-24.536
 20
-9
 21
-10.427
  0
LINE
  8
0
 10
-24.536
 11
-26.214
 20
-10.427
 21
-9.882
  0
LINE
  8
0
 10
8
 11
8.753
 20
-67
 21
-65.436
  0
LINE
  8
0
 10
8.753
 11
10.445
 20
-65.436
 21
-65.05
  0
LINE
  8
0
 10
10.445
 11
11.802
 20
-65.05
 21
-66.132
  0
LINE
  8
0
 10
11.802
 11
11.802
 20
-66.132
 21
-67.868
  0
LINE
  8
0
 10
11.802
 11
10.445
 20
-67.868
 21
-68.95
  0
LINE
  8
0
 10
10.445
 11
8.753
 20
-68.95
 21
-68.564
  0
LINE
  8
0
 10
8.753
 11
8
 20
-68.564
 21
-67
  0
LINE
  8
0
 10
24.286
 11
24.286
 20
-53.382
 21
-51.618
  0
LINE
  8
0
 10
24.286
 11
25.964
 20
-51.618
 21
-51.073
  0
LINE
  8
0
 10
25.964
 11
27
 20
-51.073
 21
-52.5
  0
LINE
  8
0
 10
27
 11
25.964
 20
-52.5
 21
-53.927
  0
LINE
  8
0
 10
25.964
 11
24.286
 20
-53.927
 21
-53.382
  0
LINE
  8
0
 10
24.286
 11
24.286
 20
-25.882
 21
-24.118
  0
LINE
  8
0
 10
24.286
 11
25.964
 20
-24.118
 21
-23.573
  0
LINE
  8
0
 10
25.964
 11
27
 20
-23.573
 21
-25
  0
LINE
  8
0
 10
27
 11
25.964
 20
-25
 21
-26.427
  0
LINE
  8
0
 10
25.964
 11
24.286
 20
-26.427
 21
-25.882
  0
LINE
  8
0
 10
25
 11
25.753
 20
43
 21
44.564
  0
LINE
  8
0
 10
25.753
 11
27.445
 20
44.564
 21
44.95
  0
LINE
  8
0
 10
27.445
 11
28.802
 20
44.95
 21
43.868
  0
LINE
  8
0
 10
28.802
 11
28.802
 20
43.868
 21
42.132
  0
LINE
  8
0
 10
28.802
 11
27.445
 20
42.132
 21
41.05
  0
LINE
  8
0
 10
27.445
 11
25.753
 20
41.05
 21
41.436
  0
LINE
  8
0
 10
25.753
 11
25
 20
41.436
 21
43
  0
ENDSEC
  0
SECTION
  2
OBJECTS
  0
DICTIONARY
  0
ENDSEC
  0
EOF
