  0
SECTION
  2
BLOCKS
  0
ENDSEC
  0
SECTION
  2
ENTITIES
  0
LINE
  8
0
 10
-85
 11
-84.977
 20
0
 21
1.993
  0
LINE
  8
0
 10
-84.977
 11
-84.907
 20
1.993
 21
3.984
  0
LINE
  8
0
 10
-84.907
 11
-84.79
 20
3.984
 21
5.973
  0
LINE
  8
0
 10
-84.79
 11
-84.627
 20
5.973
 21
7.96
  0
LINE
  8
0
 10
-84.627
 11
-84.417
 20
7.96
 21
9.941
  0
LINE
  8
0
 10
-84.417
 11
-84.16
 20
9.941
 21
11.917
  0
LINE
  8
0
 10
-84.16
 11
-83.858
 20
11.917
 21
13.887
  0
LINE
  8
0
 10
-83.858
 11
-83.509
 20
13.887
 21
15.849
  0
LINE
  8
0
 10
-83.509
 11
-83.115
 20
15.849
 21
17.802
  0
LINE
  8
0
 10
-83.115
 11
-82.675
 20
17.802
 21
19.746
  0
LINE
  8
0
 10
-82.675
 11
-82.189
 20
19.746
 21
21.679
  0
LINE
  8
0
 10
-82.189
 11
-81.658
 20
21.679
 21
23.599
  0
LINE
  8
0
 10
-81.658
 11
-81.083
 20
23.599
 21
25.507
  0
LINE
  8
0
 10
-81.083
 11
-80.462
 20
25.507
 21
27.401
  0
LINE
  8
0
 10
-80.462
 11
-79.798
 20
27.401
 21
29.28
  0
LINE
  8
0
 10
-79.798
 11
-79.09
 20
29.28
 21
31.142
  0
LINE
  8
0
 10
-79.09
 11
-78.338
 20
31.142
 21
32.988
  0
LINE
  8
0
 10
-78.338
 11
-77.543
 20
32.988
 21
34.815
  0
LINE
  8
0
 10
-77.543
 11
-76.705
 20
34.815
 21
36.623
  0
LINE
  8
0
 10
-76.705
 11
-75.826
 20
36.623
 21
38.412
  0
LINE
  8
0
 10
-75.826
 11
-74.905
 20
38.412
 21
40.179
  0
LINE
  8
0
 10
-74.905
 11
-73.942
 20
40.179
 21
41.923
  0
LINE
  8
0
 10
-73.942
 11
-72.939
 20
41.923
 21
43.645
  0
LINE
  8
0
 10
-72.939
 11
-71.896
 20
43.645
 21
45.343
  0
LINE
  8
0
 10
-71.896
 11
-70.813
 20
45.343
 21
47.016
  0
LINE
  8
0
 10
-70.813
 11
-69.691
 20
47.016
 21
48.663
  0
LINE
  8
0
 10
-69.691
 11
-68.531
 20
48.663
 21
50.284
  0
LINE
  8
0
 10
-68.531
 11
-67.334
 20
50.284
 21
51.876
  0
LINE
  8
0
 10
-67.334
 11
-66.099
 20
51.876
 21
53.441
  0
LINE
  8
0
 10
-66.099
 11
-64.828
 20
53.441
 21
54.975
  0
LINE
  8
0
 10
-64.828
 11
-63.522
 20
54.975
 21
56.48
  0
LINE
  8
0
 10
-63.522
 11
-62.18
 20
56.48
 21
57.954
  0
LINE
  8
0
 10
-62.18
 11
-60.804
 20
57.954
 21
59.395
  0
LINE
  8
0
 10
-60.804
 11
-59.395
 20
59.395
 21
60.804
  0
LINE
  8
0
 10
-59.395
 11
-57.954
 20
60.804
 21
62.18
  0
LINE
  8
0
 10
-57.954
 11
-56.48
 20
62.18
 21
63.522
  0
LINE
  8
0
 10
-56.48
 11
-54.975
 20
63.522
 21
64.828
  0
LINE
  8
0
 10
-54.975
 11
-53.441
 20
64.828
 21
66.099
  0
LINE
  8
0
 10
-53.441
 11
-51.876
 20
66.099
 21
67.334
  0
LINE
  8
0
 10
-51.876
 11
-50.284
 20
67.334
 21
68.531
  0
LINE
  8
0
 10
-50.284
 11
-48.663
 20
68.531
 21
69.691
  0
LINE
  8
0
 10
-48.663
 11
-47.016
 20
69.691
 21
70.813
  0
LINE
  8
0
 10
-47.016
 11
-45.343
 20
70.813
 21
71.896
  0
LINE
  8
0
 10
-45.343
 11
-43.645
 20
71.896
 21
72.939
  0
LINE
  8
0
 10
-43.645
 11
-41.923
 20
72.939
 21
73.942
  0
LINE
  8
0
 10
-41.923
 11
-40.179
 20
73.942
 21
74.905
  0
LINE
  8
0
 10
-40.179
 11
-38.412
 20
74.905
 21
75.826
  0
LINE
  8
0
 10
-38.412
 11
-36.623
 20
75.826
 21
76.705
  0
LINE
  8
0
 10
-36.623
 11
-34.815
 20
76.705
 21
77.543
  0
LINE
  8
0
 10
-34.815
 11
-32.988
 20
77.543
 21
78.338
  0
LINE
  8
0
 10
-32.988
 11
-31.142
 20
78.338
 21
79.09
  0
LINE
  8
0
 10
-31.142
 11
-29.28
 20
79.09
 21
79.798
  0
LINE
  8
0
 10
-29.28
 11
-27.401
 20
79.798
 21
80.462
  0
LINE
  8
0
 10
-27.401
 11
-25.507
 20
80.462
 21
81.083
  0
LINE
  8
0
 10
-25.507
 11
-23.599
 20
81.083
 21
81.658
  0
LINE
  8
0
 10
-23.599
 11
-21.679
 20
81.658
 21
82.189
  0
LINE
  8
0
 10
-21.679
 11
-19.746
 20
82.189
 21
82.675
  0
LINE
  8
0
 10
-19.746
 11
-17.802
 20
82.675
 21
83.115
  0
LINE
  8
0
 10
-17.802
 11
-15.849
 20
83.115
 21
83.509
  0
LINE
  8
0
 10
-15.849
 11
-13.887
 20
83.509
 21
83.858
  0
LINE
  8
0
 10
-13.887
 11
-11.917
 20
83.858
 21
84.16
  0
LINE
  8
0
 10
-11.917
 11
-9.941
 20
84.16
 21
84.417
  0
LINE
  8
0
 10
-9.941
 11
-7.96
 20
84.417
 21
84.627
  0
LINE
  8
0
 10
-7.96
 11
-5.973
 20
84.627
 21
84.79
  0
LINE
  8
0
 10
-5.973
 11
-3.984
 20
84.79
 21
84.907
  0
LINE
  8
0
 10
-3.984
 11
-1.993
 20
84.907
 21
84.977
  0
LINE
  8
0
 10
-1.993
 11
0
 20
84.977
 21
85
  0
LINE
  8
0
 10
0
 11
1.993
 20
85
 21
84.977
  0
LINE
  8
0
 10
1.993
 11
3.984
 20
84.977
 21
84.907
  0
LINE
  8
0
 10
3.984
 11
5.973
 20
84.907
 21
84.79
  0
LINE
  8
0
 10
5.973
 11
7.96
 20
84.79
 21
84.627
  0
LINE
  8
0
 10
7.96
 11
9.941
 20
84.627
 21
84.417
  0
LINE
  8
0
 10
9.941
 11
11.917
 20
84.417
 21
84.16
  0
LINE
  8
0
 10
11.917
 11
13.887
 20
84.16
 21
83.858
  0
LINE
  8
0
 10
13.887
 11
15.849
 20
83.858
 21
83.509
  0
LINE
  8
0
 10
15.849
 11
17.802
 20
83.509
 21
83.115
  0
LINE
  8
0
 10
17.802
 11
19.746
 20
83.115
 21
82.675
  0
LINE
  8
0
 10
19.746
 11
21.679
 20
82.675
 21
82.189
  0
LINE
  8
0
 10
21.679
 11
23.599
 20
82.189
 21
81.658
  0
LINE
  8
0
 10
23.599
 11
25.507
 20
81.658
 21
81.083
  0
LINE
  8
0
 10
25.507
 11
27.401
 20
81.083
 21
80.462
  0
LINE
  8
0
 10
27.401
 11
29.28
 20
80.462
 21
79.798
  0
LINE
  8
0
 10
29.28
 11
31.142
 20
79.798
 21
79.09
  0
LINE
  8
0
 10
31.142
 11
32.988
 20
79.09
 21
78.338
  0
LINE
  8
0
 10
32.988
 11
34.815
 20
78.338
 21
77.543
  0
LINE
  8
0
 10
34.815
 11
36.623
 20
77.543
 21
76.705
  0
LINE
  8
0
 10
36.623
 11
38.412
 20
76.705
 21
75.826
  0
LINE
  8
0
 10
38.412
 11
40.179
 20
75.826
 21
74.905
  0
LINE
  8
0
 10
40.179
 11
41.923
 20
74.905
 21
73.942
  0
LINE
  8
0
 10
41.923
 11
43.645
 20
73.942
 21
72.939
  0
LINE
  8
0
 10
43.645
 11
45.343
 20
72.939
 21
71.896
  0
LINE
  8
0
 10
45.343
 11
47.016
 20
71.896
 21
70.813
  0
LINE
  8
0
 10
47.016
 11
48.663
 20
70.813
 21
69.691
  0
LINE
  8
0
 10
48.663
 11
50.284
 20
69.691
 21
68.531
  0
LINE
  8
0
 10
50.284
 11
51.876
 20
68.531
 21
67.334
  0
LINE
  8
0
 10
51.876
 11
53.441
 20
67.334
 21
66.099
  0
LINE
  8
0
 10
53.441
 11
54.975
 20
66.099
 21
64.828
  0
LINE
  8
0
 10
54.975
 11
56.48
 20
64.828
 21
63.522
  0
LINE
  8
0
 10
56.48
 11
57.954
 20
63.522
 21
62.18
  0
LINE
  8
0
 10
57.954
 11
59.395
 20
62.18
 21
60.804
  0
LINE
  8
0
 10
59.395
 11
60.804
 20
60.804
 21
59.395
  0
LINE
  8
0
 10
60.804
 11
62.18
 20
59.395
 21
57.954
  0
LINE
  8
0
 10
62.18
 11
63.522
 20
57.954
 21
56.48
  0
LINE
  8
0
 10
63.522
 11
64.828
 20
56.48
 21
54.975
  0
LINE
  8
0
 10
64.828
 11
66.099
 20
54.975
 21
53.441
  0
LINE
  8
0
 10
66.099
 11
67.334
 20
53.441
 21
51.876
  0
LINE
  8
0
 10
67.334
 11
68.531
 20
51.876
 21
50.284
  0
LINE
  8
0
 10
68.531
 11
69.691
 20
50.284
 21
48.663
  0
LINE
  8
0
 10
69.691
 11
70.813
 20
48.663
 21
47.016
  0
LINE
  8
0
 10
70.813
 11
71.896
 20
47.016
 21
45.343
  0
LINE
  8
0
 10
71.896
 11
72.939
 20
45.343
 21
43.645
  0
LINE
  8
0
 10
72.939
 11
73.942
 20
43.645
 21
41.923
  0
LINE
  8
0
 10
73.942
 11
74.905
 20
41.923
 21
40.179
  0
LINE
  8
0
 10
74.905
 11
75.826
 20
40.179
 21
38.412
  0
LINE
  8
0
 10
75.826
 11
76.705
 20
38.412
 21
36.623
  0
LINE
  8
0
 10
76.705
 11
77.543
 20
36.623
 21
34.815
  0
LINE
  8
0
 10
77.543
 11
78.338
 20
34.815
 21
32.988
  0
LINE
  8
0
 10
78.338
 11
79.09
 20
32.988
 21
31.142
  0
LINE
  8
0
 10
79.09
 11
79.798
 20
31.142
 21
29.28
  0
LINE
  8
0
 10
79.798
 11
80.462
 20
29.28
 21
27.401
  0
LINE
  8
0
 10
80.462
 11
81.083
 20
27.401
 21
25.507
  0
LINE
  8
0
 10
81.083
 11
81.658
 20
25.507
 21
23.599
  0
LINE
  8
0
 10
81.658
 11
82.189
 20
23.599
 21
21.679
  0
LINE
  8
0
 10
82.189
 11
82.675
 20
21.679
 21
19.746
  0
LINE
  8
0
 10
82.675
 11
83.115
 20
19.746
 21
17.802
  0
LINE
  8
0
 10
83.115
 11
83.509
 20
17.802
 21
15.849
  0
LINE
  8
0
 10
83.509
 11
83.858
 20
15.849
 21
13.887
  0
LINE
  8
0
 10
83.858
 11
84.16
 20
13.887
 21
11.917
  0
LINE
  8
0
 10
84.16
 11
84.417
 20
11.917
 21
9.941
  0
LINE
  8
0
 10
84.417
 11
84.627
 20
9.941
 21
7.96
  0
LINE
  8
0
 10
84.627
 11
84.79
 20
7.96
 21
5.973
  0
LINE
  8
0
 10
84.79
 11
84.907
 20
5.973
 21
3.984
  0
LINE
  8
0
 10
84.907
 11
84.977
 20
3.984
 21
1.993
  0
LINE
  8
0
 10
84.977
 11
85
 20
1.993
 21
0
  0
LINE
  8
0
 10
85
 11
84.977
 20
0
 21
-1.993
  0
LINE
  8
0
 10
84.977
 11
84.907
 20
-1.993
 21
-3.984
  0
LINE
  8
0
 10
84.907
 11
84.79
 20
-3.984
 21
-5.973
  0
LINE
  8
0
 10
84.79
 11
84.627
 20
-5.973
 21
-7.96
  0
LINE
  8
0
 10
84.627
 11
84.417
 20
-7.96
 21
-9.941
  0
LINE
  8
0
 10
84.417
 11
84.16
 20
-9.941
 21
-11.917
  0
LINE
  8
0
 10
84.16
 11
83.858
 20
-11.917
 21
-13.887
  0
LINE
  8
0
 10
83.858
 11
83.509
 20
-13.887
 21
-15.849
  0
LINE
  8
0
 10
83.509
 11
83.115
 20
-15.849
 21
-17.802
  0
LINE
  8
0
 10
83.115
 11
82.675
 20
-17.802
 21
-19.746
  0
LINE
  8
0
 10
82.675
 11
82.189
 20
-19.746
 21
-21.679
  0
LINE
  8
0
 10
82.189
 11
81.658
 20
-21.679
 21
-23.599
  0
LINE
  8
0
 10
81.658
 11
81.083
 20
-23.599
 21
-25.507
  0
LINE
  8
0
 10
81.083
 11
80.462
 20
-25.507
 21
-27.401
  0
LINE
  8
0
 10
80.462
 11
79.798
 20
-27.401
 21
-29.28
  0
LINE
  8
0
 10
79.798
 11
79.09
 20
-29.28
 21
-31.142
  0
LINE
  8
0
 10
79.09
 11
78.338
 20
-31.142
 21
-32.988
  0
LINE
  8
0
 10
78.338
 11
77.543
 20
-32.988
 21
-34.815
  0
LINE
  8
0
 10
77.543
 11
76.705
 20
-34.815
 21
-36.623
  0
LINE
  8
0
 10
76.705
 11
75.826
 20
-36.623
 21
-38.412
  0
LINE
  8
0
 10
75.826
 11
74.905
 20
-38.412
 21
-40.179
  0
LINE
  8
0
 10
74.905
 11
73.942
 20
-40.179
 21
-41.923
  0
LINE
  8
0
 10
73.942
 11
72.939
 20
-41.923
 21
-43.645
  0
LINE
  8
0
 10
72.939
 11
71.896
 20
-43.645
 21
-45.343
  0
LINE
  8
0
 10
71.896
 11
70.813
 20
-45.343
 21
-47.016
  0
LINE
  8
0
 10
70.813
 11
69.691
 20
-47.016
 21
-48.663
  0
LINE
  8
0
 10
69.691
 11
68.531
 20
-48.663
 21
-50.284
  0
LINE
  8
0
 10
68.531
 11
67.334
 20
-50.284
 21
-51.876
  0
LINE
  8
0
 10
67.334
 11
66.099
 20
-51.876
 21
-53.441
  0
LINE
  8
0
 10
66.099
 11
64.828
 20
-53.441
 21
-54.975
  0
LINE
  8
0
 10
64.828
 11
63.522
 20
-54.975
 21
-56.48
  0
LINE
  8
0
 10
63.522
 11
62.18
 20
-56.48
 21
-57.954
  0
LINE
  8
0
 10
62.18
 11
60.804
 20
-57.954
 21
-59.395
  0
LINE
  8
0
 10
60.804
 11
59.395
 20
-59.395
 21
-60.804
  0
LINE
  8
0
 10
59.395
 11
57.954
 20
-60.804
 21
-62.18
  0
LINE
  8
0
 10
57.954
 11
56.48
 20
-62.18
 21
-63.522
  0
LINE
  8
0
 10
56.48
 11
54.975
 20
-63.522
 21
-64.828
  0
LINE
  8
0
 10
54.975
 11
53.441
 20
-64.828
 21
-66.099
  0
LINE
  8
0
 10
53.441
 11
51.876
 20
-66.099
 21
-67.334
  0
LINE
  8
0
 10
51.876
 11
50.284
 20
-67.334
 21
-68.531
  0
LINE
  8
0
 10
50.284
 11
48.663
 20
-68.531
 21
-69.691
  0
LINE
  8
0
 10
48.663
 11
47.016
 20
-69.691
 21
-70.813
  0
LINE
  8
0
 10
47.016
 11
45.343
 20
-70.813
 21
-71.896
  0
LINE
  8
0
 10
45.343
 11
43.645
 20
-71.896
 21
-72.939
  0
LINE
  8
0
 10
43.645
 11
41.923
 20
-72.939
 21
-73.942
  0
LINE
  8
0
 10
41.923
 11
40.179
 20
-73.942
 21
-74.905
  0
LINE
  8
0
 10
40.179
 11
38.412
 20
-74.905
 21
-75.826
  0
LINE
  8
0
 10
38.412
 11
36.623
 20
-75.826
 21
-76.705
  0
LINE
  8
0
 10
36.623
 11
34.815
 20
-76.705
 21
-77.543
  0
LINE
  8
0
 10
34.815
 11
32.988
 20
-77.543
 21
-78.338
  0
LINE
  8
0
 10
32.988
 11
31.142
 20
-78.338
 21
-79.09
  0
LINE
  8
0
 10
31.142
 11
29.28
 20
-79.09
 21
-79.798
  0
LINE
  8
0
 10
29.28
 11
27.401
 20
-79.798
 21
-80.462
  0
LINE
  8
0
 10
27.401
 11
25.507
 20
-80.462
 21
-81.083
  0
LINE
  8
0
 10
25.507
 11
23.599
 20
-81.083
 21
-81.658
  0
LINE
  8
0
 10
23.599
 11
21.679
 20
-81.658
 21
-82.189
  0
LINE
  8
0
 10
21.679
 11
19.746
 20
-82.189
 21
-82.675
  0
LINE
  8
0
 10
19.746
 11
17.802
 20
-82.675
 21
-83.115
  0
LINE
  8
0
 10
17.802
 11
15.849
 20
-83.115
 21
-83.509
  0
LINE
  8
0
 10
15.849
 11
13.887
 20
-83.509
 21
-83.858
  0
LINE
  8
0
 10
13.887
 11
11.917
 20
-83.858
 21
-84.16
  0
LINE
  8
0
 10
11.917
 11
9.941
 20
-84.16
 21
-84.417
  0
LINE
  8
0
 10
9.941
 11
7.96
 20
-84.417
 21
-84.627
  0
LINE
  8
0
 10
7.96
 11
5.973
 20
-84.627
 21
-84.79
  0
LINE
  8
0
 10
5.973
 11
3.984
 20
-84.79
 21
-84.907
  0
LINE
  8
0
 10
3.984
 11
1.993
 20
-84.907
 21
-84.977
  0
LINE
  8
0
 10
1.993
 11
0
 20
-84.977
 21
-85
  0
LINE
  8
0
 10
0
 11
-1.993
 20
-85
 21
-84.977
  0
LINE
  8
0
 10
-1.993
 11
-3.984
 20
-84.977
 21
-84.907
  0
LINE
  8
0
 10
-3.984
 11
-5.973
 20
-84.907
 21
-84.79
  0
LINE
  8
0
 10
-5.973
 11
-7.96
 20
-84.79
 21
-84.627
  0
LINE
  8
0
 10
-7.96
 11
-9.941
 20
-84.627
 21
-84.417
  0
LINE
  8
0
 10
-9.941
 11
-11.917
 20
-84.417
 21
-84.16
  0
LINE
  8
0
 10
-11.917
 11
-13.887
 20
-84.16
 21
-83.858
  0
LINE
  8
0
 10
-13.887
 11
-15.849
 20
-83.858
 21
-83.509
  0
LINE
  8
0
 10
-15.849
 11
-17.802
 20
-83.509
 21
-83.115
  0
LINE
  8
0
 10
-17.802
 11
-19.746
 20
-83.115
 21
-82.675
  0
LINE
  8
0
 10
-19.746
 11
-21.679
 20
-82.675
 21
-82.189
  0
LINE
  8
0
 10
-21.679
 11
-23.599
 20
-82.189
 21
-81.658
  0
LINE
  8
0
 10
-23.599
 11
-25.507
 20
-81.658
 21
-81.083
  0
LINE
  8
0
 10
-25.507
 11
-27.401
 20
-81.083
 21
-80.462
  0
LINE
  8
0
 10
-27.401
 11
-29.28
 20
-80.462
 21
-79.798
  0
LINE
  8
0
 10
-29.28
 11
-31.142
 20
-79.798
 21
-79.09
  0
LINE
  8
0
 10
-31.142
 11
-32.988
 20
-79.09
 21
-78.338
  0
LINE
  8
0
 10
-32.988
 11
-34.815
 20
-78.338
 21
-77.543
  0
LINE
  8
0
 10
-34.815
 11
-36.623
 20
-77.543
 21
-76.705
  0
LINE
  8
0
 10
-36.623
 11
-38.412
 20
-76.705
 21
-75.826
  0
LINE
  8
0
 10
-38.412
 11
-40.179
 20
-75.826
 21
-74.905
  0
LINE
  8
0
 10
-40.179
 11
-41.923
 20
-74.905
 21
-73.942
  0
LINE
  8
0
 10
-41.923
 11
-43.645
 20
-73.942
 21
-72.939
  0
LINE
  8
0
 10
-43.645
 11
-45.343
 20
-72.939
 21
-71.896
  0
LINE
  8
0
 10
-45.343
 11
-47.016
 20
-71.896
 21
-70.813
  0
LINE
  8
0
 10
-47.016
 11
-48.663
 20
-70.813
 21
-69.691
  0
LINE
  8
0
 10
-48.663
 11
-50.284
 20
-69.691
 21
-68.531
  0
LINE
  8
0
 10
-50.284
 11
-51.876
 20
-68.531
 21
-67.334
  0
LINE
  8
0
 10
-51.876
 11
-53.441
 20
-67.334
 21
-66.099
  0
LINE
  8
0
 10
-53.441
 11
-54.975
 20
-66.099
 21
-64.828
  0
LINE
  8
0
 10
-54.975
 11
-56.48
 20
-64.828
 21
-63.522
  0
LINE
  8
0
 10
-56.48
 11
-57.954
 20
-63.522
 21
-62.18
  0
LINE
  8
0
 10
-57.954
 11
-59.395
 20
-62.18
 21
-60.804
  0
LINE
  8
0
 10
-59.395
 11
-60.804
 20
-60.804
 21
-59.395
  0
LINE
  8
0
 10
-60.804
 11
-62.18
 20
-59.395
 21
-57.954
  0
LINE
  8
0
 10
-62.18
 11
-63.522
 20
-57.954
 21
-56.48
  0
LINE
  8
0
 10
-63.522
 11
-64.828
 20
-56.48
 21
-54.975
  0
LINE
  8
0
 10
-64.828
 11
-66.099
 20
-54.975
 21
-53.441
  0
LINE
  8
0
 10
-66.099
 11
-67.334
 20
-53.441
 21
-51.876
  0
LINE
  8
0
 10
-67.334
 11
-68.531
 20
-51.876
 21
-50.284
  0
LINE
  8
0
 10
-68.531
 11
-69.691
 20
-50.284
 21
-48.663
  0
LINE
  8
0
 10
-69.691
 11
-70.813
 20
-48.663
 21
-47.016
  0
LINE
  8
0
 10
-70.813
 11
-71.896
 20
-47.016
 21
-45.343
  0
LINE
  8
0
 10
-71.896
 11
-72.939
 20
-45.343
 21
-43.645
  0
LINE
  8
0
 10
-72.939
 11
-73.942
 20
-43.645
 21
-41.923
  0
LINE
  8
0
 10
-73.942
 11
-74.905
 20
-41.923
 21
-40.179
  0
LINE
  8
0
 10
-74.905
 11
-75.826
 20
-40.179
 21
-38.412
  0
LINE
  8
0
 10
-75.826
 11
-76.705
 20
-38.412
 21
-36.623
  0
LINE
  8
0
 10
-76.705
 11
-77.543
 20
-36.623
 21
-34.815
  0
LINE
  8
0
 10
-77.543
 11
-78.338
 20
-34.815
 21
-32.988
  0
LINE
  8
0
 10
-78.338
 11
-79.09
 20
-32.988
 21
-31.142
  0
LINE
  8
0
 10
-79.09
 11
-79.798
 20
-31.142
 21
-29.28
  0
LINE
  8
0
 10
-79.798
 11
-80.462
 20
-29.28
 21
-27.401
  0
LINE
  8
0
 10
-80.462
 11
-81.083
 20
-27.401
 21
-25.507
  0
LINE
  8
0
 10
-81.083
 11
-81.658
 20
-25.507
 21
-23.599
  0
LINE
  8
0
 10
-81.658
 11
-82.189
 20
-23.599
 21
-21.679
  0
LINE
  8
0
 10
-82.189
 11
-82.675
 20
-21.679
 21
-19.746
  0
LINE
  8
0
 10
-82.675
 11
-83.115
 20
-19.746
 21
-17.802
  0
LINE
  8
0
 10
-83.115
 11
-83.509
 20
-17.802
 21
-15.849
  0
LINE
  8
0
 10
-83.509
 11
-83.858
 20
-15.849
 21
-13.887
  0
LINE
  8
0
 10
-83.858
 11
-84.16
 20
-13.887
 21
-11.917
  0
LINE
  8
0
 10
-84.16
 11
-84.417
 20
-11.917
 21
-9.941
  0
LINE
  8
0
 10
-84.417
 11
-84.627
 20
-9.941
 21
-7.96
  0
LINE
  8
0
 10
-84.627
 11
-84.79
 20
-7.96
 21
-5.973
  0
LINE
  8
0
 10
-84.79
 11
-84.907
 20
-5.973
 21
-3.984
  0
LINE
  8
0
 10
-84.907
 11
-84.977
 20
-3.984
 21
-1.993
  0
LINE
  8
0
 10
-84.977
 11
-85
 20
-1.993
 21
0
  0
LINE
  8
0
 10
-39.46
 11
-39.46
 20
19.202
 21
21.198
  0
LINE
  8
0
 10
-39.46
 11
-39.14
 20
21.198
 21
23.168
  0
LINE
  8
0
 10
-39.14
 11
-38.508
 20
23.168
 21
25.06
  0
LINE
  8
0
 10
-38.508
 11
-37.58
 20
25.06
 21
26.827
  0
LINE
  8
0
 10
-37.58
 11
-36.382
 20
26.827
 21
28.423
  0
LINE
  8
0
 10
-36.382
 11
-34.942
 20
28.423
 21
29.805
  0
LINE
  8
0
 10
-34.942
 11
-33.3
 20
29.805
 21
30.939
  0
LINE
  8
0
 10
-33.3
 11
-31.497
 20
30.939
 21
31.794
  0
LINE
  8
0
 10
-31.497
 11
-29.58
 20
31.794
 21
32.349
  0
LINE
  8
0
 10
-29.58
 11
-27.599
 20
32.349
 21
32.59
  0
LINE
  8
0
 10
-27.599
 11
-25.605
 20
32.59
 21
32.51
  0
LINE
  8
0
 10
-25.605
 11
-23.65
 20
32.51
 21
32.11
  0
LINE
  8
0
 10
-23.65
 11
-21.784
 20
32.11
 21
31.403
  0
LINE
  8
0
 10
-21.784
 11
-20.056
 20
31.403
 21
30.405
  0
LINE
  8
0
 10
-20.056
 11
-18.51
 20
30.405
 21
29.143
  0
LINE
  8
0
 10
-18.51
 11
-17.187
 20
29.143
 21
27.649
  0
LINE
  8
0
 10
-17.187
 11
-16.12
 20
27.649
 21
25.963
  0
LINE
  8
0
 10
-16.12
 11
-15.338
 20
25.963
 21
24.127
  0
LINE
  8
0
 10
-15.338
 11
-14.861
 20
24.127
 21
22.189
  0
LINE
  8
0
 10
-14.861
 11
-14.7
 20
22.189
 21
20.2
  0
LINE
  8
0
 10
-14.7
 11
-14.861
 20
20.2
 21
18.211
  0
LINE
  8
0
 10
-14.861
 11
-15.338
 20
18.211
 21
16.273
  0
LINE
  8
0
 10
-15.338
 11
-16.12
 20
16.273
 21
14.437
  0
LINE
  8
0
 10
-16.12
 11
-17.187
 20
14.437
 21
12.751
  0
LINE
  8
0
 10
-17.187
 11
-18.51
 20
12.751
 21
11.257
  0
LINE
  8
0
 10
-18.51
 11
-20.056
 20
11.257
 21
9.995
  0
LINE
  8
0
 10
-20.056
 11
-21.784
 20
9.995
 21
8.997
  0
LINE
  8
0
 10
-21.784
 11
-23.65
 20
8.997
 21
8.29
  0
LINE
  8
0
 10
-23.65
 11
-25.605
 20
8.29
 21
7.89
  0
LINE
  8
0
 10
-25.605
 11
-27.599
 20
7.89
 21
7.81
  0
LINE
  8
0
 10
-27.599
 11
-29.58
 20
7.81
 21
8.051
  0
LINE
  8
0
 10
-29.58
 11
-31.497
 20
8.051
 21
8.606
  0
LINE
  8
0
 10
-31.497
 11
-33.3
 20
8.606
 21
9.461
  0
LINE
  8
0
 10
-33.3
 11
-34.942
 20
9.461
 21
10.595
  0
LINE
  8
0
 10
-34.942
 11
-36.382
 20
10.595
 21
11.977
  0
LINE
  8
0
 10
-36.382
 11
-37.58
 20
11.977
 21
13.573
  0
LINE
  8
0
 10
-37.58
 11
-38.508
 20
13.573
 21
15.34
  0
LINE
  8
0
 10
-38.508
 11
-39.14
 20
15.34
 21
17.232
  0
LINE
  8
0
 10
-39.14
 11
-39.46
 20
17.232
 21
19.202
  0
LINE
  8
0
 10
-37.5
 11
-37.5
 20
-43
 21
-15
  0
LINE
  8
0
 10
-37.5
 11
35.5
 20
-15
 21
-15
  0
LINE
  8
0
 10
35.5
 11
35.5
 20
-15
 21
-43
  0
LINE
  8
0
 10
35.5
 11
-37.5
 20
-43
 21
-43
  0
LINE
  8
0
 10
18.057
 11
18.057
 20
19.013
 21
20.987
  0
LINE
  8
0
 10
18.057
 11
18.513
 20
20.987
 21
22.907
  0
LINE
  8
0
 10
18.513
 11
19.398
 20
22.907
 21
24.671
  0
LINE
  8
0
 10
19.398
 11
20.667
 20
24.671
 21
26.183
  0
LINE
  8
0
 10
20.667
 11
22.25
 20
26.183
 21
27.361
  0
LINE
  8
0
 10
22.25
 11
24.062
 20
27.361
 21
28.143
  0
LINE
  8
0
 10
24.062
 11
26.006
 20
28.143
 21
28.486
  0
LINE
  8
0
 10
26.006
 11
27.976
 20
28.486
 21
28.371
  0
LINE
  8
0
 10
27.976
 11
29.867
 20
28.371
 21
27.805
  0
LINE
  8
0
 10
29.867
 11
31.576
 20
27.805
 21
26.818
  0
LINE
  8
0
 10
31.576
 11
33.011
 20
26.818
 21
25.464
  0
LINE
  8
0
 10
33.011
 11
34.096
 20
25.464
 21
23.815
  0
LINE
  8
0
 10
34.096
 11
34.771
 20
23.815
 21
21.96
  0
LINE
  8
0
 10
34.771
 11
35
 20
21.96
 21
20
  0
LINE
  8
0
 10
35
 11
34.771
 20
20
 21
18.04
  0
LINE
  8
0
 10
34.771
 11
34.096
 20
18.04
 21
16.185
  0
LINE
  8
0
 10
34.096
 11
33.011
 20
16.185
 21
14.536
  0
LINE
  8
0
 10
33.011
 11
31.576
 20
14.536
 21
13.182
  0
LINE
  8
0
 10
31.576
 11
29.867
 20
13.182
 21
12.195
  0
LINE
  8
0
 10
29.867
 11
27.976
 20
12.195
 21
11.629
  0
LINE
  8
0
 10
27.976
 11
26.006
 20
11.629
 21
11.514
  0
LINE
  8
0
 10
26.006
 11
24.062
 20
11.514
 21
11.857
  0
LINE
  8
0
 10
24.062
 11
22.25
 20
11.857
 21
12.639
  0
LINE
  8
0
 10
22.25
 11
20.667
 20
12.639
 21
13.817
  0
LINE
  8
0
 10
20.667
 11
19.398
 20
13.817
 21
15.329
  0
LINE
  8
0
 10
19.398
 11
18.513
 20
15.329
 21
17.093
  0
LINE
  8
0
 10
18.513
 11
18.057
 20
17.093
 21
19.013
  0
ENDSEC
  0
SECTION
  2
OBJECTS
  0
DICTIONARY
  0
ENDSEC
  0
EOF
