  0
SECTION
  2
BLOCKS
  0
ENDSEC
  0
SECTION
  2
ENTITIES
  0
LINE
  8
0
 10
-85
 11
-84.977
 20
0
 21
1.993
  0
LINE
  8
0
 10
-84.977
 11
-84.907
 20
1.993
 21
3.984
  0
LINE
  8
0
 10
-84.907
 11
-84.79
 20
3.984
 21
5.973
  0
LINE
  8
0
 10
-84.79
 11
-84.627
 20
5.973
 21
7.96
  0
LINE
  8
0
 10
-84.627
 11
-84.417
 20
7.96
 21
9.941
  0
LINE
  8
0
 10
-84.417
 11
-84.16
 20
9.941
 21
11.917
  0
LINE
  8
0
 10
-84.16
 11
-83.858
 20
11.917
 21
13.887
  0
LINE
  8
0
 10
-83.858
 11
-83.509
 20
13.887
 21
15.849
  0
LINE
  8
0
 10
-83.509
 11
-83.115
 20
15.849
 21
17.802
  0
LINE
  8
0
 10
-83.115
 11
-82.675
 20
17.802
 21
19.746
  0
LINE
  8
0
 10
-82.675
 11
-82.189
 20
19.746
 21
21.679
  0
LINE
  8
0
 10
-82.189
 11
-81.658
 20
21.679
 21
23.599
  0
LINE
  8
0
 10
-81.658
 11
-81.083
 20
23.599
 21
25.507
  0
LINE
  8
0
 10
-81.083
 11
-80.462
 20
25.507
 21
27.401
  0
LINE
  8
0
 10
-80.462
 11
-79.798
 20
27.401
 21
29.28
  0
LINE
  8
0
 10
-79.798
 11
-79.09
 20
29.28
 21
31.142
  0
LINE
  8
0
 10
-79.09
 11
-78.338
 20
31.142
 21
32.988
  0
LINE
  8
0
 10
-78.338
 11
-77.543
 20
32.988
 21
34.815
  0
LINE
  8
0
 10
-77.543
 11
-76.705
 20
34.815
 21
36.623
  0
LINE
  8
0
 10
-76.705
 11
-75.826
 20
36.623
 21
38.412
  0
LINE
  8
0
 10
-75.826
 11
-74.905
 20
38.412
 21
40.179
  0
LINE
  8
0
 10
-74.905
 11
-73.942
 20
40.179
 21
41.923
  0
LINE
  8
0
 10
-73.942
 11
-72.939
 20
41.923
 21
43.645
  0
LINE
  8
0
 10
-72.939
 11
-71.896
 20
43.645
 21
45.343
  0
LINE
  8
0
 10
-71.896
 11
-70.813
 20
45.343
 21
47.016
  0
LINE
  8
0
 10
-70.813
 11
-69.691
 20
47.016
 21
48.663
  0
LINE
  8
0
 10
-69.691
 11
-68.531
 20
48.663
 21
50.284
  0
LINE
  8
0
 10
-68.531
 11
-67.334
 20
50.284
 21
51.876
  0
LINE
  8
0
 10
-67.334
 11
-66.099
 20
51.876
 21
53.441
  0
LINE
  8
0
 10
-66.099
 11
-64.828
 20
53.441
 21
54.975
  0
LINE
  8
0
 10
-64.828
 11
-63.522
 20
54.975
 21
56.48
  0
LINE
  8
0
 10
-63.522
 11
-62.18
 20
56.48
 21
57.954
  0
LINE
  8
0
 10
-62.18
 11
-60.804
 20
57.954
 21
59.395
  0
LINE
  8
0
 10
-60.804
 11
-59.395
 20
59.395
 21
60.804
  0
LINE
  8
0
 10
-59.395
 11
-57.954
 20
60.804
 21
62.18
  0
LINE
  8
0
 10
-57.954
 11
-56.48
 20
62.18
 21
63.522
  0
LINE
  8
0
 10
-56.48
 11
-54.975
 20
63.522
 21
64.828
  0
LINE
  8
0
 10
-54.975
 11
-53.441
 20
64.828
 21
66.099
  0
LINE
  8
0
 10
-53.441
 11
-51.876
 20
66.099
 21
67.334
  0
LINE
  8
0
 10
-51.876
 11
-50.284
 20
67.334
 21
68.531
  0
LINE
  8
0
 10
-50.284
 11
-48.663
 20
68.531
 21
69.691
  0
LINE
  8
0
 10
-48.663
 11
-47.016
 20
69.691
 21
70.813
  0
LINE
  8
0
 10
-47.016
 11
-45.343
 20
70.813
 21
71.896
  0
LINE
  8
0
 10
-45.343
 11
-43.645
 20
71.896
 21
72.939
  0
LINE
  8
0
 10
-43.645
 11
-41.923
 20
72.939
 21
73.942
  0
LINE
  8
0
 10
-41.923
 11
-40.179
 20
73.942
 21
74.905
  0
LINE
  8
0
 10
-40.179
 11
-38.412
 20
74.905
 21
75.826
  0
LINE
  8
0
 10
-38.412
 11
-36.623
 20
75.826
 21
76.705
  0
LINE
  8
0
 10
-36.623
 11
-34.815
 20
76.705
 21
77.543
  0
LINE
  8
0
 10
-34.815
 11
-32.988
 20
77.543
 21
78.338
  0
LINE
  8
0
 10
-32.988
 11
-31.142
 20
78.338
 21
79.09
  0
LINE
  8
0
 10
-31.142
 11
-29.28
 20
79.09
 21
79.798
  0
LINE
  8
0
 10
-29.28
 11
-27.401
 20
79.798
 21
80.462
  0
LINE
  8
0
 10
-27.401
 11
-25.507
 20
80.462
 21
81.083
  0
LINE
  8
0
 10
-25.507
 11
-23.599
 20
81.083
 21
81.658
  0
LINE
  8
0
 10
-23.599
 11
-21.679
 20
81.658
 21
82.189
  0
LINE
  8
0
 10
-21.679
 11
-19.746
 20
82.189
 21
82.675
  0
LINE
  8
0
 10
-19.746
 11
-17.802
 20
82.675
 21
83.115
  0
LINE
  8
0
 10
-17.802
 11
-15.849
 20
83.115
 21
83.509
  0
LINE
  8
0
 10
-15.849
 11
-13.887
 20
83.509
 21
83.858
  0
LINE
  8
0
 10
-13.887
 11
-11.917
 20
83.858
 21
84.16
  0
LINE
  8
0
 10
-11.917
 11
-9.941
 20
84.16
 21
84.417
  0
LINE
  8
0
 10
-9.941
 11
-7.96
 20
84.417
 21
84.627
  0
LINE
  8
0
 10
-7.96
 11
-5.973
 20
84.627
 21
84.79
  0
LINE
  8
0
 10
-5.973
 11
-3.984
 20
84.79
 21
84.907
  0
LINE
  8
0
 10
-3.984
 11
-1.993
 20
84.907
 21
84.977
  0
LINE
  8
0
 10
-1.993
 11
0
 20
84.977
 21
85
  0
LINE
  8
0
 10
0
 11
1.993
 20
85
 21
84.977
  0
LINE
  8
0
 10
1.993
 11
3.984
 20
84.977
 21
84.907
  0
LINE
  8
0
 10
3.984
 11
5.973
 20
84.907
 21
84.79
  0
LINE
  8
0
 10
5.973
 11
7.96
 20
84.79
 21
84.627
  0
LINE
  8
0
 10
7.96
 11
9.941
 20
84.627
 21
84.417
  0
LINE
  8
0
 10
9.941
 11
11.917
 20
84.417
 21
84.16
  0
LINE
  8
0
 10
11.917
 11
13.887
 20
84.16
 21
83.858
  0
LINE
  8
0
 10
13.887
 11
15.849
 20
83.858
 21
83.509
  0
LINE
  8
0
 10
15.849
 11
17.802
 20
83.509
 21
83.115
  0
LINE
  8
0
 10
17.802
 11
19.746
 20
83.115
 21
82.675
  0
LINE
  8
0
 10
19.746
 11
21.679
 20
82.675
 21
82.189
  0
LINE
  8
0
 10
21.679
 11
23.599
 20
82.189
 21
81.658
  0
LINE
  8
0
 10
23.599
 11
25.507
 20
81.658
 21
81.083
  0
LINE
  8
0
 10
25.507
 11
27.401
 20
81.083
 21
80.462
  0
LINE
  8
0
 10
27.401
 11
29.28
 20
80.462
 21
79.798
  0
LINE
  8
0
 10
29.28
 11
31.142
 20
79.798
 21
79.09
  0
LINE
  8
0
 10
31.142
 11
32.988
 20
79.09
 21
78.338
  0
LINE
  8
0
 10
32.988
 11
34.815
 20
78.338
 21
77.543
  0
LINE
  8
0
 10
34.815
 11
36.623
 20
77.543
 21
76.705
  0
LINE
  8
0
 10
36.623
 11
38.412
 20
76.705
 21
75.826
  0
LINE
  8
0
 10
38.412
 11
40.179
 20
75.826
 21
74.905
  0
LINE
  8
0
 10
40.179
 11
41.923
 20
74.905
 21
73.942
  0
LINE
  8
0
 10
41.923
 11
43.645
 20
73.942
 21
72.939
  0
LINE
  8
0
 10
43.645
 11
45.343
 20
72.939
 21
71.896
  0
LINE
  8
0
 10
45.343
 11
47.016
 20
71.896
 21
70.813
  0
LINE
  8
0
 10
47.016
 11
48.663
 20
70.813
 21
69.691
  0
LINE
  8
0
 10
48.663
 11
50.284
 20
69.691
 21
68.531
  0
LINE
  8
0
 10
50.284
 11
51.876
 20
68.531
 21
67.334
  0
LINE
  8
0
 10
51.876
 11
53.441
 20
67.334
 21
66.099
  0
LINE
  8
0
 10
53.441
 11
54.975
 20
66.099
 21
64.828
  0
LINE
  8
0
 10
54.975
 11
56.48
 20
64.828
 21
63.522
  0
LINE
  8
0
 10
56.48
 11
57.954
 20
63.522
 21
62.18
  0
LINE
  8
0
 10
57.954
 11
59.395
 20
62.18
 21
60.804
  0
LINE
  8
0
 10
59.395
 11
60.804
 20
60.804
 21
59.395
  0
LINE
  8
0
 10
60.804
 11
62.18
 20
59.395
 21
57.954
  0
LINE
  8
0
 10
62.18
 11
63.522
 20
57.954
 21
56.48
  0
LINE
  8
0
 10
63.522
 11
64.828
 20
56.48
 21
54.975
  0
LINE
  8
0
 10
64.828
 11
66.099
 20
54.975
 21
53.441
  0
LINE
  8
0
 10
66.099
 11
67.334
 20
53.441
 21
51.876
  0
LINE
  8
0
 10
67.334
 11
68.531
 20
51.876
 21
50.284
  0
LINE
  8
0
 10
68.531
 11
69.691
 20
50.284
 21
48.663
  0
LINE
  8
0
 10
69.691
 11
70.813
 20
48.663
 21
47.016
  0
LINE
  8
0
 10
70.813
 11
71.896
 20
47.016
 21
45.343
  0
LINE
  8
0
 10
71.896
 11
72.939
 20
45.343
 21
43.645
  0
LINE
  8
0
 10
72.939
 11
73.942
 20
43.645
 21
41.923
  0
LINE
  8
0
 10
73.942
 11
74.905
 20
41.923
 21
40.179
  0
LINE
  8
0
 10
74.905
 11
75.826
 20
40.179
 21
38.412
  0
LINE
  8
0
 10
75.826
 11
76.705
 20
38.412
 21
36.623
  0
LINE
  8
0
 10
76.705
 11
77.543
 20
36.623
 21
34.815
  0
LINE
  8
0
 10
77.543
 11
78.338
 20
34.815
 21
32.988
  0
LINE
  8
0
 10
78.338
 11
79.09
 20
32.988
 21
31.142
  0
LINE
  8
0
 10
79.09
 11
79.798
 20
31.142
 21
29.28
  0
LINE
  8
0
 10
79.798
 11
80.462
 20
29.28
 21
27.401
  0
LINE
  8
0
 10
80.462
 11
81.083
 20
27.401
 21
25.507
  0
LINE
  8
0
 10
81.083
 11
81.658
 20
25.507
 21
23.599
  0
LINE
  8
0
 10
81.658
 11
82.189
 20
23.599
 21
21.679
  0
LINE
  8
0
 10
82.189
 11
82.675
 20
21.679
 21
19.746
  0
LINE
  8
0
 10
82.675
 11
83.115
 20
19.746
 21
17.802
  0
LINE
  8
0
 10
83.115
 11
83.509
 20
17.802
 21
15.849
  0
LINE
  8
0
 10
83.509
 11
83.858
 20
15.849
 21
13.887
  0
LINE
  8
0
 10
83.858
 11
84.16
 20
13.887
 21
11.917
  0
LINE
  8
0
 10
84.16
 11
84.417
 20
11.917
 21
9.941
  0
LINE
  8
0
 10
84.417
 11
84.627
 20
9.941
 21
7.96
  0
LINE
  8
0
 10
84.627
 11
84.79
 20
7.96
 21
5.973
  0
LINE
  8
0
 10
84.79
 11
84.907
 20
5.973
 21
3.984
  0
LINE
  8
0
 10
84.907
 11
84.977
 20
3.984
 21
1.993
  0
LINE
  8
0
 10
84.977
 11
85
 20
1.993
 21
0
  0
LINE
  8
0
 10
85
 11
84.977
 20
0
 21
-1.993
  0
LINE
  8
0
 10
84.977
 11
84.907
 20
-1.993
 21
-3.984
  0
LINE
  8
0
 10
84.907
 11
84.79
 20
-3.984
 21
-5.973
  0
LINE
  8
0
 10
84.79
 11
84.627
 20
-5.973
 21
-7.96
  0
LINE
  8
0
 10
84.627
 11
84.417
 20
-7.96
 21
-9.941
  0
LINE
  8
0
 10
84.417
 11
84.16
 20
-9.941
 21
-11.917
  0
LINE
  8
0
 10
84.16
 11
83.858
 20
-11.917
 21
-13.887
  0
LINE
  8
0
 10
83.858
 11
83.509
 20
-13.887
 21
-15.849
  0
LINE
  8
0
 10
83.509
 11
83.115
 20
-15.849
 21
-17.802
  0
LINE
  8
0
 10
83.115
 11
82.675
 20
-17.802
 21
-19.746
  0
LINE
  8
0
 10
82.675
 11
82.189
 20
-19.746
 21
-21.679
  0
LINE
  8
0
 10
82.189
 11
81.658
 20
-21.679
 21
-23.599
  0
LINE
  8
0
 10
81.658
 11
81.083
 20
-23.599
 21
-25.507
  0
LINE
  8
0
 10
81.083
 11
80.462
 20
-25.507
 21
-27.401
  0
LINE
  8
0
 10
80.462
 11
79.798
 20
-27.401
 21
-29.28
  0
LINE
  8
0
 10
79.798
 11
79.09
 20
-29.28
 21
-31.142
  0
LINE
  8
0
 10
79.09
 11
78.338
 20
-31.142
 21
-32.988
  0
LINE
  8
0
 10
78.338
 11
77.543
 20
-32.988
 21
-34.815
  0
LINE
  8
0
 10
77.543
 11
76.705
 20
-34.815
 21
-36.623
  0
LINE
  8
0
 10
76.705
 11
75.826
 20
-36.623
 21
-38.412
  0
LINE
  8
0
 10
75.826
 11
74.905
 20
-38.412
 21
-40.179
  0
LINE
  8
0
 10
74.905
 11
73.942
 20
-40.179
 21
-41.923
  0
LINE
  8
0
 10
73.942
 11
72.939
 20
-41.923
 21
-43.645
  0
LINE
  8
0
 10
72.939
 11
71.896
 20
-43.645
 21
-45.343
  0
LINE
  8
0
 10
71.896
 11
70.813
 20
-45.343
 21
-47.016
  0
LINE
  8
0
 10
70.813
 11
69.691
 20
-47.016
 21
-48.663
  0
LINE
  8
0
 10
69.691
 11
68.531
 20
-48.663
 21
-50.284
  0
LINE
  8
0
 10
68.531
 11
67.334
 20
-50.284
 21
-51.876
  0
LINE
  8
0
 10
67.334
 11
66.099
 20
-51.876
 21
-53.441
  0
LINE
  8
0
 10
66.099
 11
64.828
 20
-53.441
 21
-54.975
  0
LINE
  8
0
 10
64.828
 11
63.522
 20
-54.975
 21
-56.48
  0
LINE
  8
0
 10
63.522
 11
62.18
 20
-56.48
 21
-57.954
  0
LINE
  8
0
 10
62.18
 11
60.804
 20
-57.954
 21
-59.395
  0
LINE
  8
0
 10
60.804
 11
59.395
 20
-59.395
 21
-60.804
  0
LINE
  8
0
 10
59.395
 11
57.954
 20
-60.804
 21
-62.18
  0
LINE
  8
0
 10
57.954
 11
56.48
 20
-62.18
 21
-63.522
  0
LINE
  8
0
 10
56.48
 11
54.975
 20
-63.522
 21
-64.828
  0
LINE
  8
0
 10
54.975
 11
53.441
 20
-64.828
 21
-66.099
  0
LINE
  8
0
 10
53.441
 11
51.876
 20
-66.099
 21
-67.334
  0
LINE
  8
0
 10
51.876
 11
50.284
 20
-67.334
 21
-68.531
  0
LINE
  8
0
 10
50.284
 11
48.663
 20
-68.531
 21
-69.691
  0
LINE
  8
0
 10
48.663
 11
47.016
 20
-69.691
 21
-70.813
  0
LINE
  8
0
 10
47.016
 11
45.343
 20
-70.813
 21
-71.896
  0
LINE
  8
0
 10
45.343
 11
43.645
 20
-71.896
 21
-72.939
  0
LINE
  8
0
 10
43.645
 11
41.923
 20
-72.939
 21
-73.942
  0
LINE
  8
0
 10
41.923
 11
40.179
 20
-73.942
 21
-74.905
  0
LINE
  8
0
 10
40.179
 11
38.412
 20
-74.905
 21
-75.826
  0
LINE
  8
0
 10
38.412
 11
36.623
 20
-75.826
 21
-76.705
  0
LINE
  8
0
 10
36.623
 11
34.815
 20
-76.705
 21
-77.543
  0
LINE
  8
0
 10
34.815
 11
32.988
 20
-77.543
 21
-78.338
  0
LINE
  8
0
 10
32.988
 11
31.142
 20
-78.338
 21
-79.09
  0
LINE
  8
0
 10
31.142
 11
29.28
 20
-79.09
 21
-79.798
  0
LINE
  8
0
 10
29.28
 11
27.401
 20
-79.798
 21
-80.462
  0
LINE
  8
0
 10
27.401
 11
25.507
 20
-80.462
 21
-81.083
  0
LINE
  8
0
 10
25.507
 11
23.599
 20
-81.083
 21
-81.658
  0
LINE
  8
0
 10
23.599
 11
21.679
 20
-81.658
 21
-82.189
  0
LINE
  8
0
 10
21.679
 11
19.746
 20
-82.189
 21
-82.675
  0
LINE
  8
0
 10
19.746
 11
17.802
 20
-82.675
 21
-83.115
  0
LINE
  8
0
 10
17.802
 11
15.849
 20
-83.115
 21
-83.509
  0
LINE
  8
0
 10
15.849
 11
13.887
 20
-83.509
 21
-83.858
  0
LINE
  8
0
 10
13.887
 11
11.917
 20
-83.858
 21
-84.16
  0
LINE
  8
0
 10
11.917
 11
9.941
 20
-84.16
 21
-84.417
  0
LINE
  8
0
 10
9.941
 11
7.96
 20
-84.417
 21
-84.627
  0
LINE
  8
0
 10
7.96
 11
5.973
 20
-84.627
 21
-84.79
  0
LINE
  8
0
 10
5.973
 11
3.984
 20
-84.79
 21
-84.907
  0
LINE
  8
0
 10
3.984
 11
1.993
 20
-84.907
 21
-84.977
  0
LINE
  8
0
 10
1.993
 11
0
 20
-84.977
 21
-85
  0
LINE
  8
0
 10
0
 11
-1.993
 20
-85
 21
-84.977
  0
LINE
  8
0
 10
-1.993
 11
-3.984
 20
-84.977
 21
-84.907
  0
LINE
  8
0
 10
-3.984
 11
-5.973
 20
-84.907
 21
-84.79
  0
LINE
  8
0
 10
-5.973
 11
-7.96
 20
-84.79
 21
-84.627
  0
LINE
  8
0
 10
-7.96
 11
-9.941
 20
-84.627
 21
-84.417
  0
LINE
  8
0
 10
-9.941
 11
-11.917
 20
-84.417
 21
-84.16
  0
LINE
  8
0
 10
-11.917
 11
-13.887
 20
-84.16
 21
-83.858
  0
LINE
  8
0
 10
-13.887
 11
-15.849
 20
-83.858
 21
-83.509
  0
LINE
  8
0
 10
-15.849
 11
-17.802
 20
-83.509
 21
-83.115
  0
LINE
  8
0
 10
-17.802
 11
-19.746
 20
-83.115
 21
-82.675
  0
LINE
  8
0
 10
-19.746
 11
-21.679
 20
-82.675
 21
-82.189
  0
LINE
  8
0
 10
-21.679
 11
-23.599
 20
-82.189
 21
-81.658
  0
LINE
  8
0
 10
-23.599
 11
-25.507
 20
-81.658
 21
-81.083
  0
LINE
  8
0
 10
-25.507
 11
-27.401
 20
-81.083
 21
-80.462
  0
LINE
  8
0
 10
-27.401
 11
-29.28
 20
-80.462
 21
-79.798
  0
LINE
  8
0
 10
-29.28
 11
-31.142
 20
-79.798
 21
-79.09
  0
LINE
  8
0
 10
-31.142
 11
-32.988
 20
-79.09
 21
-78.338
  0
LINE
  8
0
 10
-32.988
 11
-34.815
 20
-78.338
 21
-77.543
  0
LINE
  8
0
 10
-34.815
 11
-36.623
 20
-77.543
 21
-76.705
  0
LINE
  8
0
 10
-36.623
 11
-38.412
 20
-76.705
 21
-75.826
  0
LINE
  8
0
 10
-38.412
 11
-40.179
 20
-75.826
 21
-74.905
  0
LINE
  8
0
 10
-40.179
 11
-41.923
 20
-74.905
 21
-73.942
  0
LINE
  8
0
 10
-41.923
 11
-43.645
 20
-73.942
 21
-72.939
  0
LINE
  8
0
 10
-43.645
 11
-45.343
 20
-72.939
 21
-71.896
  0
LINE
  8
0
 10
-45.343
 11
-47.016
 20
-71.896
 21
-70.813
  0
LINE
  8
0
 10
-47.016
 11
-48.663
 20
-70.813
 21
-69.691
  0
LINE
  8
0
 10
-48.663
 11
-50.284
 20
-69.691
 21
-68.531
  0
LINE
  8
0
 10
-50.284
 11
-51.876
 20
-68.531
 21
-67.334
  0
LINE
  8
0
 10
-51.876
 11
-53.441
 20
-67.334
 21
-66.099
  0
LINE
  8
0
 10
-53.441
 11
-54.975
 20
-66.099
 21
-64.828
  0
LINE
  8
0
 10
-54.975
 11
-56.48
 20
-64.828
 21
-63.522
  0
LINE
  8
0
 10
-56.48
 11
-57.954
 20
-63.522
 21
-62.18
  0
LINE
  8
0
 10
-57.954
 11
-59.395
 20
-62.18
 21
-60.804
  0
LINE
  8
0
 10
-59.395
 11
-60.804
 20
-60.804
 21
-59.395
  0
LINE
  8
0
 10
-60.804
 11
-62.18
 20
-59.395
 21
-57.954
  0
LINE
  8
0
 10
-62.18
 11
-63.522
 20
-57.954
 21
-56.48
  0
LINE
  8
0
 10
-63.522
 11
-64.828
 20
-56.48
 21
-54.975
  0
LINE
  8
0
 10
-64.828
 11
-66.099
 20
-54.975
 21
-53.441
  0
LINE
  8
0
 10
-66.099
 11
-67.334
 20
-53.441
 21
-51.876
  0
LINE
  8
0
 10
-67.334
 11
-68.531
 20
-51.876
 21
-50.284
  0
LINE
  8
0
 10
-68.531
 11
-69.691
 20
-50.284
 21
-48.663
  0
LINE
  8
0
 10
-69.691
 11
-70.813
 20
-48.663
 21
-47.016
  0
LINE
  8
0
 10
-70.813
 11
-71.896
 20
-47.016
 21
-45.343
  0
LINE
  8
0
 10
-71.896
 11
-72.939
 20
-45.343
 21
-43.645
  0
LINE
  8
0
 10
-72.939
 11
-73.942
 20
-43.645
 21
-41.923
  0
LINE
  8
0
 10
-73.942
 11
-74.905
 20
-41.923
 21
-40.179
  0
LINE
  8
0
 10
-74.905
 11
-75.826
 20
-40.179
 21
-38.412
  0
LINE
  8
0
 10
-75.826
 11
-76.705
 20
-38.412
 21
-36.623
  0
LINE
  8
0
 10
-76.705
 11
-77.543
 20
-36.623
 21
-34.815
  0
LINE
  8
0
 10
-77.543
 11
-78.338
 20
-34.815
 21
-32.988
  0
LINE
  8
0
 10
-78.338
 11
-79.09
 20
-32.988
 21
-31.142
  0
LINE
  8
0
 10
-79.09
 11
-79.798
 20
-31.142
 21
-29.28
  0
LINE
  8
0
 10
-79.798
 11
-80.462
 20
-29.28
 21
-27.401
  0
LINE
  8
0
 10
-80.462
 11
-81.083
 20
-27.401
 21
-25.507
  0
LINE
  8
0
 10
-81.083
 11
-81.658
 20
-25.507
 21
-23.599
  0
LINE
  8
0
 10
-81.658
 11
-82.189
 20
-23.599
 21
-21.679
  0
LINE
  8
0
 10
-82.189
 11
-82.675
 20
-21.679
 21
-19.746
  0
LINE
  8
0
 10
-82.675
 11
-83.115
 20
-19.746
 21
-17.802
  0
LINE
  8
0
 10
-83.115
 11
-83.509
 20
-17.802
 21
-15.849
  0
LINE
  8
0
 10
-83.509
 11
-83.858
 20
-15.849
 21
-13.887
  0
LINE
  8
0
 10
-83.858
 11
-84.16
 20
-13.887
 21
-11.917
  0
LINE
  8
0
 10
-84.16
 11
-84.417
 20
-11.917
 21
-9.941
  0
LINE
  8
0
 10
-84.417
 11
-84.627
 20
-9.941
 21
-7.96
  0
LINE
  8
0
 10
-84.627
 11
-84.79
 20
-7.96
 21
-5.973
  0
LINE
  8
0
 10
-84.79
 11
-84.907
 20
-5.973
 21
-3.984
  0
LINE
  8
0
 10
-84.907
 11
-84.977
 20
-3.984
 21
-1.993
  0
LINE
  8
0
 10
-84.977
 11
-85
 20
-1.993
 21
0
  0
LINE
  8
0
 10
-71.993
 11
-71.993
 20
-0.996
 21
0.996
  0
LINE
  8
0
 10
-71.993
 11
-71.938
 20
0.996
 21
2.988
  0
LINE
  8
0
 10
-71.938
 11
-71.828
 20
2.988
 21
4.978
  0
LINE
  8
0
 10
-71.828
 11
-71.662
 20
4.978
 21
6.964
  0
LINE
  8
0
 10
-71.662
 11
-71.442
 20
6.964
 21
8.945
  0
LINE
  8
0
 10
-71.442
 11
-71.167
 20
8.945
 21
10.919
  0
LINE
  8
0
 10
-71.167
 11
-70.838
 20
10.919
 21
12.884
  0
LINE
  8
0
 10
-70.838
 11
-70.454
 20
12.884
 21
14.84
  0
LINE
  8
0
 10
-70.454
 11
-70.016
 20
14.84
 21
16.784
  0
LINE
  8
0
 10
-70.016
 11
-69.525
 20
16.784
 21
18.715
  0
LINE
  8
0
 10
-69.525
 11
-69.16
 20
18.715
 21
20
  0
LINE
  8
0
 10
-69.16
 11
-46.976
 20
20
 21
20
  0
LINE
  8
0
 10
-46.976
 11
-46.976
 20
20
 21
19.01
  0
LINE
  8
0
 10
-46.976
 11
-46.785
 20
19.01
 21
17.038
  0
LINE
  8
0
 10
-46.785
 11
-46.404
 20
17.038
 21
15.094
  0
LINE
  8
0
 10
-46.404
 11
-45.838
 20
15.094
 21
13.196
  0
LINE
  8
0
 10
-45.838
 11
-45.091
 20
13.196
 21
11.361
  0
LINE
  8
0
 10
-45.091
 11
-44.17
 20
11.361
 21
9.607
  0
LINE
  8
0
 10
-44.17
 11
-43.085
 20
9.607
 21
7.95
  0
LINE
  8
0
 10
-43.085
 11
-41.844
 20
7.95
 21
6.406
  0
LINE
  8
0
 10
-41.844
 11
-40.461
 20
6.406
 21
4.988
  0
LINE
  8
0
 10
-40.461
 11
-38.947
 20
4.988
 21
3.711
  0
LINE
  8
0
 10
-38.947
 11
-37.317
 20
3.711
 21
2.586
  0
LINE
  8
0
 10
-37.317
 11
-35.585
 20
2.586
 21
1.623
  0
LINE
  8
0
 10
-35.585
 11
-33.769
 20
1.623
 21
0.832
  0
LINE
  8
0
 10
-33.769
 11
-31.886
 20
0.832
 21
0.22
  0
LINE
  8
0
 10
-31.886
 11
-29.951
 20
0.22
 21
-0.207
  0
LINE
  8
0
 10
-29.951
 11
0
 20
-0.207
 21
-5.41
  0
LINE
  8
0
 10
0
 11
0
 20
-5.41
 21
-5
  0
LINE
  8
0
 10
0
 11
43.512
 20
-5
 21
-5
  0
LINE
  8
0
 10
43.512
 11
44.036
 20
-5
 21
-4.711
  0
LINE
  8
0
 10
44.036
 11
45.719
 20
-4.711
 21
-3.651
  0
LINE
  8
0
 10
45.719
 11
47.338
 20
-3.651
 21
-2.496
  0
LINE
  8
0
 10
47.338
 11
48.887
 20
-2.496
 21
-1.25
  0
LINE
  8
0
 10
48.887
 11
50.362
 20
-1.25
 21
0.083
  0
LINE
  8
0
 10
50.362
 11
51.758
 20
0.083
 21
1.499
  0
LINE
  8
0
 10
51.758
 11
53.07
 20
1.499
 21
2.994
  0
LINE
  8
0
 10
53.07
 11
54.294
 20
2.994
 21
4.561
  0
LINE
  8
0
 10
54.294
 11
55.425
 20
4.561
 21
6.196
  0
LINE
  8
0
 10
55.425
 11
56.46
 20
6.196
 21
7.894
  0
LINE
  8
0
 10
56.46
 11
57.396
 20
7.894
 21
9.648
  0
LINE
  8
0
 10
57.396
 11
58.229
 20
9.648
 21
11.454
  0
LINE
  8
0
 10
58.229
 11
58.957
 20
11.454
 21
13.304
  0
LINE
  8
0
 10
58.957
 11
59.577
 20
13.304
 21
15.194
  0
LINE
  8
0
 10
59.577
 11
60.087
 20
15.194
 21
17.115
  0
LINE
  8
0
 10
60.087
 11
60.485
 20
17.115
 21
19.064
  0
LINE
  8
0
 10
60.485
 11
60.621
 20
19.064
 21
20
  0
LINE
  8
0
 10
60.621
 11
69.162
 20
20
 21
20
  0
LINE
  8
0
 10
69.162
 11
69.259
 20
20
 21
19.676
  0
LINE
  8
0
 10
69.259
 11
69.777
 20
19.676
 21
17.751
  0
LINE
  8
0
 10
69.777
 11
70.242
 20
17.751
 21
15.813
  0
LINE
  8
0
 10
70.242
 11
70.653
 20
15.813
 21
13.863
  0
LINE
  8
0
 10
70.653
 11
71.009
 20
13.863
 21
11.903
  0
LINE
  8
0
 10
71.009
 11
71.312
 20
11.903
 21
9.933
  0
LINE
  8
0
 10
71.312
 11
71.559
 20
9.933
 21
7.955
  0
LINE
  8
0
 10
71.559
 11
71.752
 20
7.955
 21
5.972
  0
LINE
  8
0
 10
71.752
 11
71.89
 20
5.972
 21
3.984
  0
LINE
  8
0
 10
71.89
 11
71.972
 20
3.984
 21
1.993
  0
LINE
  8
0
 10
71.972
 11
72
 20
1.993
 21
0
  0
LINE
  8
0
 10
72
 11
71.972
 20
0
 21
-1.993
  0
LINE
  8
0
 10
71.972
 11
71.89
 20
-1.993
 21
-3.984
  0
LINE
  8
0
 10
71.89
 11
71.752
 20
-3.984
 21
-5.972
  0
LINE
  8
0
 10
71.752
 11
71.559
 20
-5.972
 21
-7.955
  0
LINE
  8
0
 10
71.559
 11
71.312
 20
-7.955
 21
-9.933
  0
LINE
  8
0
 10
71.312
 11
71.009
 20
-9.933
 21
-11.903
  0
LINE
  8
0
 10
71.009
 11
70.653
 20
-11.903
 21
-13.863
  0
LINE
  8
0
 10
70.653
 11
70.242
 20
-13.863
 21
-15.813
  0
LINE
  8
0
 10
70.242
 11
69.777
 20
-15.813
 21
-17.751
  0
LINE
  8
0
 10
69.777
 11
69.259
 20
-17.751
 21
-19.676
  0
LINE
  8
0
 10
69.259
 11
68.688
 20
-19.676
 21
-21.585
  0
LINE
  8
0
 10
68.688
 11
68.065
 20
-21.585
 21
-23.478
  0
LINE
  8
0
 10
68.065
 11
67.389
 20
-23.478
 21
-25.352
  0
LINE
  8
0
 10
67.389
 11
66.661
 20
-25.352
 21
-27.208
  0
LINE
  8
0
 10
66.661
 11
65.883
 20
-27.208
 21
-29.042
  0
LINE
  8
0
 10
65.883
 11
65.054
 20
-29.042
 21
-30.854
  0
LINE
  8
0
 10
65.054
 11
64.175
 20
-30.854
 21
-32.643
  0
LINE
  8
0
 10
64.175
 11
63.247
 20
-32.643
 21
-34.407
  0
LINE
  8
0
 10
63.247
 11
62.271
 20
-34.407
 21
-36.144
  0
LINE
  8
0
 10
62.271
 11
61.246
 20
-36.144
 21
-37.853
  0
LINE
  8
0
 10
61.246
 11
60.175
 20
-37.853
 21
-39.534
  0
LINE
  8
0
 10
60.175
 11
59.058
 20
-39.534
 21
-41.184
  0
LINE
  8
0
 10
59.058
 11
57.896
 20
-41.184
 21
-42.803
  0
LINE
  8
0
 10
57.896
 11
56.689
 20
-42.803
 21
-44.389
  0
LINE
  8
0
 10
56.689
 11
55.439
 20
-44.389
 21
-45.941
  0
LINE
  8
0
 10
55.439
 11
54.146
 20
-45.941
 21
-47.457
  0
LINE
  8
0
 10
54.146
 11
52.812
 20
-47.457
 21
-48.938
  0
LINE
  8
0
 10
52.812
 11
51.437
 20
-48.938
 21
-50.381
  0
LINE
  8
0
 10
51.437
 11
50.023
 20
-50.381
 21
-51.785
  0
LINE
  8
0
 10
50.023
 11
48.571
 20
-51.785
 21
-53.149
  0
LINE
  8
0
 10
48.571
 11
47.081
 20
-53.149
 21
-54.473
  0
LINE
  8
0
 10
47.081
 11
45.556
 20
-54.473
 21
-55.755
  0
LINE
  8
0
 10
45.556
 11
43.995
 20
-55.755
 21
-56.995
  0
LINE
  8
0
 10
43.995
 11
42.401
 20
-56.995
 21
-58.191
  0
LINE
  8
0
 10
42.401
 11
40.774
 20
-58.191
 21
-59.342
  0
LINE
  8
0
 10
40.774
 11
39.116
 20
-59.342
 21
-60.448
  0
LINE
  8
0
 10
39.116
 11
37.429
 20
-60.448
 21
-61.507
  0
LINE
  8
0
 10
37.429
 11
35.712
 20
-61.507
 21
-62.519
  0
LINE
  8
0
 10
35.712
 11
33.968
 20
-62.519
 21
-63.484
  0
LINE
  8
0
 10
33.968
 11
32.198
 20
-63.484
 21
-64.399
  0
LINE
  8
0
 10
32.198
 11
30.403
 20
-64.399
 21
-65.266
  0
LINE
  8
0
 10
30.403
 11
28.586
 20
-65.266
 21
-66.082
  0
LINE
  8
0
 10
28.586
 11
26.746
 20
-66.082
 21
-66.848
  0
LINE
  8
0
 10
26.746
 11
24.885
 20
-66.848
 21
-67.563
  0
LINE
  8
0
 10
24.885
 11
23.006
 20
-67.563
 21
-68.226
  0
LINE
  8
0
 10
23.006
 11
21.109
 20
-68.226
 21
-68.836
  0
LINE
  8
0
 10
21.109
 11
19.196
 20
-68.836
 21
-69.394
  0
LINE
  8
0
 10
19.196
 11
17.268
 20
-69.394
 21
-69.899
  0
LINE
  8
0
 10
17.268
 11
15.327
 20
-69.899
 21
-70.35
  0
LINE
  8
0
 10
15.327
 11
13.374
 20
-70.35
 21
-70.747
  0
LINE
  8
0
 10
13.374
 11
11.411
 20
-70.747
 21
-71.09
  0
LINE
  8
0
 10
11.411
 11
9.439
 20
-71.09
 21
-71.379
  0
LINE
  8
0
 10
9.439
 11
7.46
 20
-71.379
 21
-71.612
  0
LINE
  8
0
 10
7.46
 11
5.475
 20
-71.612
 21
-71.792
  0
LINE
  8
0
 10
5.475
 11
3.486
 20
-71.792
 21
-71.916
  0
LINE
  8
0
 10
3.486
 11
1.495
 20
-71.916
 21
-71.984
  0
LINE
  8
0
 10
1.495
 11
-0.498
 20
-71.984
 21
-71.998
  0
LINE
  8
0
 10
-0.498
 11
-2.491
 20
-71.998
 21
-71.957
  0
LINE
  8
0
 10
-2.491
 11
-4.481
 20
-71.957
 21
-71.86
  0
LINE
  8
0
 10
-4.481
 11
-6.468
 20
-71.86
 21
-71.709
  0
LINE
  8
0
 10
-6.468
 11
-8.45
 20
-71.709
 21
-71.502
  0
LINE
  8
0
 10
-8.45
 11
-10.426
 20
-71.502
 21
-71.241
  0
LINE
  8
0
 10
-10.426
 11
-12.394
 20
-71.241
 21
-70.925
  0
LINE
  8
0
 10
-12.394
 11
-14.352
 20
-70.925
 21
-70.555
  0
LINE
  8
0
 10
-14.352
 11
-16.299
 20
-70.555
 21
-70.131
  0
LINE
  8
0
 10
-16.299
 11
-18.234
 20
-70.131
 21
-69.653
  0
LINE
  8
0
 10
-18.234
 11
-20.154
 20
-69.653
 21
-69.122
  0
LINE
  8
0
 10
-20.154
 11
-22.06
 20
-69.122
 21
-68.537
  0
LINE
  8
0
 10
-22.06
 11
-23.948
 20
-68.537
 21
-67.901
  0
LINE
  8
0
 10
-23.948
 11
-25.818
 20
-67.901
 21
-67.212
  0
LINE
  8
0
 10
-25.818
 11
-27.668
 20
-67.212
 21
-66.472
  0
LINE
  8
0
 10
-27.668
 11
-29.497
 20
-66.472
 21
-65.68
  0
LINE
  8
0
 10
-29.497
 11
-31.304
 20
-65.68
 21
-64.839
  0
LINE
  8
0
 10
-31.304
 11
-33.086
 20
-64.839
 21
-63.948
  0
LINE
  8
0
 10
-33.086
 11
-34.843
 20
-63.948
 21
-63.007
  0
LINE
  8
0
 10
-34.843
 11
-36.574
 20
-63.007
 21
-62.019
  0
LINE
  8
0
 10
-36.574
 11
-38.276
 20
-62.019
 21
-60.983
  0
LINE
  8
0
 10
-38.276
 11
-39.949
 20
-60.983
 21
-59.9
  0
LINE
  8
0
 10
-39.949
 11
-41.592
 20
-59.9
 21
-58.772
  0
LINE
  8
0
 10
-41.592
 11
-43.202
 20
-58.772
 21
-57.598
  0
LINE
  8
0
 10
-43.202
 11
-44.78
 20
-57.598
 21
-56.381
  0
LINE
  8
0
 10
-44.78
 11
-46.323
 20
-56.381
 21
-55.12
  0
LINE
  8
0
 10
-46.323
 11
-47.831
 20
-55.12
 21
-53.816
  0
LINE
  8
0
 10
-47.831
 11
-49.302
 20
-53.816
 21
-52.472
  0
LINE
  8
0
 10
-49.302
 11
-50.735
 20
-52.472
 21
-51.088
  0
LINE
  8
0
 10
-50.735
 11
-52.13
 20
-51.088
 21
-49.664
  0
LINE
  8
0
 10
-52.13
 11
-53.484
 20
-49.664
 21
-48.202
  0
LINE
  8
0
 10
-53.484
 11
-54.798
 20
-48.202
 21
-46.703
  0
LINE
  8
0
 10
-54.798
 11
-56.069
 20
-46.703
 21
-45.169
  0
LINE
  8
0
 10
-56.069
 11
-57.298
 20
-45.169
 21
-43.6
  0
LINE
  8
0
 10
-57.298
 11
-58.483
 20
-43.6
 21
-41.997
  0
LINE
  8
0
 10
-58.483
 11
-59.623
 20
-41.997
 21
-40.363
  0
LINE
  8
0
 10
-59.623
 11
-60.717
 20
-40.363
 21
-38.697
  0
LINE
  8
0
 10
-60.717
 11
-61.764
 20
-38.697
 21
-37.002
  0
LINE
  8
0
 10
-61.764
 11
-62.765
 20
-37.002
 21
-35.278
  0
LINE
  8
0
 10
-62.765
 11
-63.717
 20
-35.278
 21
-33.528
  0
LINE
  8
0
 10
-63.717
 11
-64.621
 20
-33.528
 21
-31.752
  0
LINE
  8
0
 10
-64.621
 11
-65.475
 20
-31.752
 21
-29.951
  0
LINE
  8
0
 10
-65.475
 11
-66.279
 20
-29.951
 21
-28.128
  0
LINE
  8
0
 10
-66.279
 11
-67.032
 20
-28.128
 21
-26.282
  0
LINE
  8
0
 10
-67.032
 11
-67.733
 20
-26.282
 21
-24.417
  0
LINE
  8
0
 10
-67.733
 11
-68.383
 20
-24.417
 21
-22.533
  0
LINE
  8
0
 10
-68.383
 11
-68.981
 20
-22.533
 21
-20.632
  0
LINE
  8
0
 10
-68.981
 11
-69.525
 20
-20.632
 21
-18.715
  0
LINE
  8
0
 10
-69.525
 11
-70.016
 20
-18.715
 21
-16.784
  0
LINE
  8
0
 10
-70.016
 11
-70.454
 20
-16.784
 21
-14.84
  0
LINE
  8
0
 10
-70.454
 11
-70.838
 20
-14.84
 21
-12.884
  0
LINE
  8
0
 10
-70.838
 11
-71.167
 20
-12.884
 21
-10.919
  0
LINE
  8
0
 10
-71.167
 11
-71.442
 20
-10.919
 21
-8.945
  0
LINE
  8
0
 10
-71.442
 11
-71.662
 20
-8.945
 21
-6.964
  0
LINE
  8
0
 10
-71.662
 11
-71.828
 20
-6.964
 21
-4.978
  0
LINE
  8
0
 10
-71.828
 11
-71.938
 20
-4.978
 21
-2.988
  0
LINE
  8
0
 10
-71.938
 11
-71.993
 20
-2.988
 21
-0.996
  0
LINE
  8
0
 10
-59.861
 11
-59.623
 20
40
 21
40.363
  0
LINE
  8
0
 10
-59.623
 11
-58.483
 20
40.363
 21
41.997
  0
LINE
  8
0
 10
-58.483
 11
-57.298
 20
41.997
 21
43.6
  0
LINE
  8
0
 10
-57.298
 11
-56.069
 20
43.6
 21
45.169
  0
LINE
  8
0
 10
-56.069
 11
-54.798
 20
45.169
 21
46.703
  0
LINE
  8
0
 10
-54.798
 11
-53.484
 20
46.703
 21
48.202
  0
LINE
  8
0
 10
-53.484
 11
-52.13
 20
48.202
 21
49.664
  0
LINE
  8
0
 10
-52.13
 11
-50.735
 20
49.664
 21
51.088
  0
LINE
  8
0
 10
-50.735
 11
-49.302
 20
51.088
 21
52.472
  0
LINE
  8
0
 10
-49.302
 11
-47.831
 20
52.472
 21
53.816
  0
LINE
  8
0
 10
-47.831
 11
-46.323
 20
53.816
 21
55.12
  0
LINE
  8
0
 10
-46.323
 11
-44.78
 20
55.12
 21
56.381
  0
LINE
  8
0
 10
-44.78
 11
-43.202
 20
56.381
 21
57.598
  0
LINE
  8
0
 10
-43.202
 11
-41.592
 20
57.598
 21
58.772
  0
LINE
  8
0
 10
-41.592
 11
-39.949
 20
58.772
 21
59.9
  0
LINE
  8
0
 10
-39.949
 11
-38.276
 20
59.9
 21
60.983
  0
LINE
  8
0
 10
-38.276
 11
-36.574
 20
60.983
 21
62.019
  0
LINE
  8
0
 10
-36.574
 11
-34.843
 20
62.019
 21
63.007
  0
LINE
  8
0
 10
-34.843
 11
-33.086
 20
63.007
 21
63.948
  0
LINE
  8
0
 10
-33.086
 11
-31.304
 20
63.948
 21
64.839
  0
LINE
  8
0
 10
-31.304
 11
-29.497
 20
64.839
 21
65.68
  0
LINE
  8
0
 10
-29.497
 11
-27.668
 20
65.68
 21
66.472
  0
LINE
  8
0
 10
-27.668
 11
-25.818
 20
66.472
 21
67.212
  0
LINE
  8
0
 10
-25.818
 11
-23.948
 20
67.212
 21
67.901
  0
LINE
  8
0
 10
-23.948
 11
-22.06
 20
67.901
 21
68.537
  0
LINE
  8
0
 10
-22.06
 11
-20.154
 20
68.537
 21
69.122
  0
LINE
  8
0
 10
-20.154
 11
-18.234
 20
69.122
 21
69.653
  0
LINE
  8
0
 10
-18.234
 11
-16.299
 20
69.653
 21
70.131
  0
LINE
  8
0
 10
-16.299
 11
-14.352
 20
70.131
 21
70.555
  0
LINE
  8
0
 10
-14.352
 11
-12.394
 20
70.555
 21
70.925
  0
LINE
  8
0
 10
-12.394
 11
-10.426
 20
70.925
 21
71.241
  0
LINE
  8
0
 10
-10.426
 11
-10
 20
71.241
 21
71.297
  0
LINE
  8
0
 10
-10
 11
-10
 20
71.297
 21
48.112
  0
LINE
  8
0
 10
-10
 11
-31.558
 20
48.112
 21
40
  0
LINE
  8
0
 10
-31.558
 11
-59.861
 20
40
 21
40
  0
LINE
  8
0
 10
-29
 11
-28.268
 20
12
 21
13.768
  0
LINE
  8
0
 10
-28.268
 11
-26.5
 20
13.768
 21
14.5
  0
LINE
  8
0
 10
-26.5
 11
-24.732
 20
14.5
 21
13.768
  0
LINE
  8
0
 10
-24.732
 11
-24
 20
13.768
 21
12
  0
LINE
  8
0
 10
-24
 11
-24.732
 20
12
 21
10.232
  0
LINE
  8
0
 10
-24.732
 11
-26.5
 20
10.232
 21
9.5
  0
LINE
  8
0
 10
-26.5
 11
-28.268
 20
9.5
 21
10.232
  0
LINE
  8
0
 10
-28.268
 11
-29
 20
10.232
 21
12
  0
LINE
  8
0
 10
10
 11
10
 20
55.638
 21
71.297
  0
LINE
  8
0
 10
10
 11
11.411
 20
71.297
 21
71.09
  0
LINE
  8
0
 10
11.411
 11
13.374
 20
71.09
 21
70.747
  0
LINE
  8
0
 10
13.374
 11
15.327
 20
70.747
 21
70.35
  0
LINE
  8
0
 10
15.327
 11
17.268
 20
70.35
 21
69.899
  0
LINE
  8
0
 10
17.268
 11
19.196
 20
69.899
 21
69.394
  0
LINE
  8
0
 10
19.196
 11
21.109
 20
69.394
 21
68.836
  0
LINE
  8
0
 10
21.109
 11
23.006
 20
68.836
 21
68.226
  0
LINE
  8
0
 10
23.006
 11
24.885
 20
68.226
 21
67.563
  0
LINE
  8
0
 10
24.885
 11
26.746
 20
67.563
 21
66.848
  0
LINE
  8
0
 10
26.746
 11
28.586
 20
66.848
 21
66.082
  0
LINE
  8
0
 10
28.586
 11
30.403
 20
66.082
 21
65.266
  0
LINE
  8
0
 10
30.403
 11
32.198
 20
65.266
 21
64.399
  0
LINE
  8
0
 10
32.198
 11
33.968
 20
64.399
 21
63.484
  0
LINE
  8
0
 10
33.968
 11
35.712
 20
63.484
 21
62.519
  0
LINE
  8
0
 10
35.712
 11
37.429
 20
62.519
 21
61.507
  0
LINE
  8
0
 10
37.429
 11
39.116
 20
61.507
 21
60.448
  0
LINE
  8
0
 10
39.116
 11
40.774
 20
60.448
 21
59.342
  0
LINE
  8
0
 10
40.774
 11
42.401
 20
59.342
 21
58.191
  0
LINE
  8
0
 10
42.401
 11
43.995
 20
58.191
 21
56.995
  0
LINE
  8
0
 10
43.995
 11
45.556
 20
56.995
 21
55.755
  0
LINE
  8
0
 10
45.556
 11
47.081
 20
55.755
 21
54.473
  0
LINE
  8
0
 10
47.081
 11
48.571
 20
54.473
 21
53.149
  0
LINE
  8
0
 10
48.571
 11
50.023
 20
53.149
 21
51.785
  0
LINE
  8
0
 10
50.023
 11
51.437
 20
51.785
 21
50.381
  0
LINE
  8
0
 10
51.437
 11
52.812
 20
50.381
 21
48.938
  0
LINE
  8
0
 10
52.812
 11
54.146
 20
48.938
 21
47.457
  0
LINE
  8
0
 10
54.146
 11
55.439
 20
47.457
 21
45.941
  0
LINE
  8
0
 10
55.439
 11
56.689
 20
45.941
 21
44.389
  0
LINE
  8
0
 10
56.689
 11
57.896
 20
44.389
 21
42.803
  0
LINE
  8
0
 10
57.896
 11
59.058
 20
42.803
 21
41.184
  0
LINE
  8
0
 10
59.058
 11
59.86
 20
41.184
 21
40
  0
LINE
  8
0
 10
59.86
 11
57.558
 20
40
 21
40
  0
LINE
  8
0
 10
57.558
 11
57.396
 20
40
 21
40.352
  0
LINE
  8
0
 10
57.396
 11
56.46
 20
40.352
 21
42.106
  0
LINE
  8
0
 10
56.46
 11
55.425
 20
42.106
 21
43.804
  0
LINE
  8
0
 10
55.425
 11
54.294
 20
43.804
 21
45.439
  0
LINE
  8
0
 10
54.294
 11
53.07
 20
45.439
 21
47.006
  0
LINE
  8
0
 10
53.07
 11
51.758
 20
47.006
 21
48.501
  0
LINE
  8
0
 10
51.758
 11
50.362
 20
48.501
 21
49.917
  0
LINE
  8
0
 10
50.362
 11
48.887
 20
49.917
 21
51.25
  0
LINE
  8
0
 10
48.887
 11
47.338
 20
51.25
 21
52.496
  0
LINE
  8
0
 10
47.338
 11
45.719
 20
52.496
 21
53.651
  0
LINE
  8
0
 10
45.719
 11
44.036
 20
53.651
 21
54.711
  0
LINE
  8
0
 10
44.036
 11
42.295
 20
54.711
 21
55.672
  0
LINE
  8
0
 10
42.295
 11
40.502
 20
55.672
 21
56.531
  0
LINE
  8
0
 10
40.502
 11
38.662
 20
56.531
 21
57.285
  0
LINE
  8
0
 10
38.662
 11
36.782
 20
57.285
 21
57.932
  0
LINE
  8
0
 10
36.782
 11
34.868
 20
57.932
 21
58.47
  0
LINE
  8
0
 10
34.868
 11
32.926
 20
58.47
 21
58.896
  0
LINE
  8
0
 10
32.926
 11
30.962
 20
58.896
 21
59.21
  0
LINE
  8
0
 10
30.962
 11
28.984
 20
59.21
 21
59.41
  0
LINE
  8
0
 10
28.984
 11
26.997
 20
59.41
 21
59.496
  0
LINE
  8
0
 10
26.997
 11
25.009
 20
59.496
 21
59.468
  0
LINE
  8
0
 10
25.009
 11
23.026
 20
59.468
 21
59.325
  0
LINE
  8
0
 10
23.026
 11
21.054
 20
59.325
 21
59.067
  0
LINE
  8
0
 10
21.054
 11
19.1
 20
59.067
 21
58.697
  0
LINE
  8
0
 10
19.1
 11
17.171
 20
58.697
 21
58.215
  0
LINE
  8
0
 10
17.171
 11
15.273
 20
58.215
 21
57.622
  0
LINE
  8
0
 10
15.273
 11
10
 20
57.622
 21
55.638
  0
LINE
  8
0
 10
24
 11
24.732
 20
12
 21
13.768
  0
LINE
  8
0
 10
24.732
 11
26.5
 20
13.768
 21
14.5
  0
LINE
  8
0
 10
26.5
 11
28.268
 20
14.5
 21
13.768
  0
LINE
  8
0
 10
28.268
 11
29
 20
13.768
 21
12
  0
LINE
  8
0
 10
29
 11
28.268
 20
12
 21
10.232
  0
LINE
  8
0
 10
28.268
 11
26.5
 20
10.232
 21
9.5
  0
LINE
  8
0
 10
26.5
 11
24.732
 20
9.5
 21
10.232
  0
LINE
  8
0
 10
24.732
 11
24
 20
10.232
 21
12
  0
ENDSEC
  0
SECTION
  2
OBJECTS
  0
DICTIONARY
  0
ENDSEC
  0
EOF
