  0
SECTION
  2
BLOCKS
  0
ENDSEC
  0
SECTION
  2
ENTITIES
  0
LINE
  8
0
 10
-85
 11
-84.977
 20
0
 21
1.993
  0
LINE
  8
0
 10
-84.977
 11
-84.907
 20
1.993
 21
3.984
  0
LINE
  8
0
 10
-84.907
 11
-84.79
 20
3.984
 21
5.973
  0
LINE
  8
0
 10
-84.79
 11
-84.627
 20
5.973
 21
7.96
  0
LINE
  8
0
 10
-84.627
 11
-84.417
 20
7.96
 21
9.941
  0
LINE
  8
0
 10
-84.417
 11
-84.16
 20
9.941
 21
11.917
  0
LINE
  8
0
 10
-84.16
 11
-83.858
 20
11.917
 21
13.887
  0
LINE
  8
0
 10
-83.858
 11
-83.509
 20
13.887
 21
15.849
  0
LINE
  8
0
 10
-83.509
 11
-83.115
 20
15.849
 21
17.802
  0
LINE
  8
0
 10
-83.115
 11
-82.675
 20
17.802
 21
19.746
  0
LINE
  8
0
 10
-82.675
 11
-82.189
 20
19.746
 21
21.679
  0
LINE
  8
0
 10
-82.189
 11
-81.658
 20
21.679
 21
23.599
  0
LINE
  8
0
 10
-81.658
 11
-81.083
 20
23.599
 21
25.507
  0
LINE
  8
0
 10
-81.083
 11
-80.462
 20
25.507
 21
27.401
  0
LINE
  8
0
 10
-80.462
 11
-79.798
 20
27.401
 21
29.28
  0
LINE
  8
0
 10
-79.798
 11
-79.09
 20
29.28
 21
31.142
  0
LINE
  8
0
 10
-79.09
 11
-78.338
 20
31.142
 21
32.988
  0
LINE
  8
0
 10
-78.338
 11
-77.543
 20
32.988
 21
34.815
  0
LINE
  8
0
 10
-77.543
 11
-76.705
 20
34.815
 21
36.623
  0
LINE
  8
0
 10
-76.705
 11
-75.826
 20
36.623
 21
38.412
  0
LINE
  8
0
 10
-75.826
 11
-74.905
 20
38.412
 21
40.179
  0
LINE
  8
0
 10
-74.905
 11
-73.942
 20
40.179
 21
41.923
  0
LINE
  8
0
 10
-73.942
 11
-72.939
 20
41.923
 21
43.645
  0
LINE
  8
0
 10
-72.939
 11
-71.896
 20
43.645
 21
45.343
  0
LINE
  8
0
 10
-71.896
 11
-70.813
 20
45.343
 21
47.016
  0
LINE
  8
0
 10
-70.813
 11
-69.691
 20
47.016
 21
48.663
  0
LINE
  8
0
 10
-69.691
 11
-68.531
 20
48.663
 21
50.284
  0
LINE
  8
0
 10
-68.531
 11
-67.334
 20
50.284
 21
51.876
  0
LINE
  8
0
 10
-67.334
 11
-66.099
 20
51.876
 21
53.441
  0
LINE
  8
0
 10
-66.099
 11
-64.828
 20
53.441
 21
54.975
  0
LINE
  8
0
 10
-64.828
 11
-63.522
 20
54.975
 21
56.48
  0
LINE
  8
0
 10
-63.522
 11
-62.18
 20
56.48
 21
57.954
  0
LINE
  8
0
 10
-62.18
 11
-60.804
 20
57.954
 21
59.395
  0
LINE
  8
0
 10
-60.804
 11
-59.395
 20
59.395
 21
60.804
  0
LINE
  8
0
 10
-59.395
 11
-57.954
 20
60.804
 21
62.18
  0
LINE
  8
0
 10
-57.954
 11
-56.48
 20
62.18
 21
63.522
  0
LINE
  8
0
 10
-56.48
 11
-54.975
 20
63.522
 21
64.828
  0
LINE
  8
0
 10
-54.975
 11
-53.441
 20
64.828
 21
66.099
  0
LINE
  8
0
 10
-53.441
 11
-51.876
 20
66.099
 21
67.334
  0
LINE
  8
0
 10
-51.876
 11
-50.284
 20
67.334
 21
68.531
  0
LINE
  8
0
 10
-50.284
 11
-48.663
 20
68.531
 21
69.691
  0
LINE
  8
0
 10
-48.663
 11
-47.016
 20
69.691
 21
70.813
  0
LINE
  8
0
 10
-47.016
 11
-45.343
 20
70.813
 21
71.896
  0
LINE
  8
0
 10
-45.343
 11
-43.645
 20
71.896
 21
72.939
  0
LINE
  8
0
 10
-43.645
 11
-41.923
 20
72.939
 21
73.942
  0
LINE
  8
0
 10
-41.923
 11
-40.179
 20
73.942
 21
74.905
  0
LINE
  8
0
 10
-40.179
 11
-38.412
 20
74.905
 21
75.826
  0
LINE
  8
0
 10
-38.412
 11
-36.623
 20
75.826
 21
76.705
  0
LINE
  8
0
 10
-36.623
 11
-34.815
 20
76.705
 21
77.543
  0
LINE
  8
0
 10
-34.815
 11
-32.988
 20
77.543
 21
78.338
  0
LINE
  8
0
 10
-32.988
 11
-31.142
 20
78.338
 21
79.09
  0
LINE
  8
0
 10
-31.142
 11
-29.28
 20
79.09
 21
79.798
  0
LINE
  8
0
 10
-29.28
 11
-27.401
 20
79.798
 21
80.462
  0
LINE
  8
0
 10
-27.401
 11
-25.507
 20
80.462
 21
81.083
  0
LINE
  8
0
 10
-25.507
 11
-23.599
 20
81.083
 21
81.658
  0
LINE
  8
0
 10
-23.599
 11
-21.679
 20
81.658
 21
82.189
  0
LINE
  8
0
 10
-21.679
 11
-19.746
 20
82.189
 21
82.675
  0
LINE
  8
0
 10
-19.746
 11
-17.802
 20
82.675
 21
83.115
  0
LINE
  8
0
 10
-17.802
 11
-15.849
 20
83.115
 21
83.509
  0
LINE
  8
0
 10
-15.849
 11
-13.887
 20
83.509
 21
83.858
  0
LINE
  8
0
 10
-13.887
 11
-11.917
 20
83.858
 21
84.16
  0
LINE
  8
0
 10
-11.917
 11
-9.941
 20
84.16
 21
84.417
  0
LINE
  8
0
 10
-9.941
 11
-7.96
 20
84.417
 21
84.627
  0
LINE
  8
0
 10
-7.96
 11
-5.973
 20
84.627
 21
84.79
  0
LINE
  8
0
 10
-5.973
 11
-3.984
 20
84.79
 21
84.907
  0
LINE
  8
0
 10
-3.984
 11
-1.993
 20
84.907
 21
84.977
  0
LINE
  8
0
 10
-1.993
 11
0
 20
84.977
 21
85
  0
LINE
  8
0
 10
0
 11
1.993
 20
85
 21
84.977
  0
LINE
  8
0
 10
1.993
 11
3.984
 20
84.977
 21
84.907
  0
LINE
  8
0
 10
3.984
 11
5.973
 20
84.907
 21
84.79
  0
LINE
  8
0
 10
5.973
 11
7.96
 20
84.79
 21
84.627
  0
LINE
  8
0
 10
7.96
 11
9.941
 20
84.627
 21
84.417
  0
LINE
  8
0
 10
9.941
 11
11.917
 20
84.417
 21
84.16
  0
LINE
  8
0
 10
11.917
 11
13.887
 20
84.16
 21
83.858
  0
LINE
  8
0
 10
13.887
 11
15.849
 20
83.858
 21
83.509
  0
LINE
  8
0
 10
15.849
 11
17.802
 20
83.509
 21
83.115
  0
LINE
  8
0
 10
17.802
 11
19.746
 20
83.115
 21
82.675
  0
LINE
  8
0
 10
19.746
 11
21.679
 20
82.675
 21
82.189
  0
LINE
  8
0
 10
21.679
 11
23.599
 20
82.189
 21
81.658
  0
LINE
  8
0
 10
23.599
 11
25.507
 20
81.658
 21
81.083
  0
LINE
  8
0
 10
25.507
 11
27.401
 20
81.083
 21
80.462
  0
LINE
  8
0
 10
27.401
 11
29.28
 20
80.462
 21
79.798
  0
LINE
  8
0
 10
29.28
 11
31.142
 20
79.798
 21
79.09
  0
LINE
  8
0
 10
31.142
 11
32.988
 20
79.09
 21
78.338
  0
LINE
  8
0
 10
32.988
 11
34.815
 20
78.338
 21
77.543
  0
LINE
  8
0
 10
34.815
 11
36.623
 20
77.543
 21
76.705
  0
LINE
  8
0
 10
36.623
 11
38.412
 20
76.705
 21
75.826
  0
LINE
  8
0
 10
38.412
 11
40.179
 20
75.826
 21
74.905
  0
LINE
  8
0
 10
40.179
 11
41.923
 20
74.905
 21
73.942
  0
LINE
  8
0
 10
41.923
 11
43.645
 20
73.942
 21
72.939
  0
LINE
  8
0
 10
43.645
 11
45.343
 20
72.939
 21
71.896
  0
LINE
  8
0
 10
45.343
 11
47.016
 20
71.896
 21
70.813
  0
LINE
  8
0
 10
47.016
 11
48.663
 20
70.813
 21
69.691
  0
LINE
  8
0
 10
48.663
 11
50.284
 20
69.691
 21
68.531
  0
LINE
  8
0
 10
50.284
 11
51.876
 20
68.531
 21
67.334
  0
LINE
  8
0
 10
51.876
 11
53.441
 20
67.334
 21
66.099
  0
LINE
  8
0
 10
53.441
 11
54.975
 20
66.099
 21
64.828
  0
LINE
  8
0
 10
54.975
 11
56.48
 20
64.828
 21
63.522
  0
LINE
  8
0
 10
56.48
 11
57.954
 20
63.522
 21
62.18
  0
LINE
  8
0
 10
57.954
 11
59.395
 20
62.18
 21
60.804
  0
LINE
  8
0
 10
59.395
 11
60.804
 20
60.804
 21
59.395
  0
LINE
  8
0
 10
60.804
 11
62.18
 20
59.395
 21
57.954
  0
LINE
  8
0
 10
62.18
 11
63.522
 20
57.954
 21
56.48
  0
LINE
  8
0
 10
63.522
 11
64.828
 20
56.48
 21
54.975
  0
LINE
  8
0
 10
64.828
 11
66.099
 20
54.975
 21
53.441
  0
LINE
  8
0
 10
66.099
 11
67.334
 20
53.441
 21
51.876
  0
LINE
  8
0
 10
67.334
 11
68.531
 20
51.876
 21
50.284
  0
LINE
  8
0
 10
68.531
 11
69.691
 20
50.284
 21
48.663
  0
LINE
  8
0
 10
69.691
 11
70.813
 20
48.663
 21
47.016
  0
LINE
  8
0
 10
70.813
 11
71.896
 20
47.016
 21
45.343
  0
LINE
  8
0
 10
71.896
 11
72.939
 20
45.343
 21
43.645
  0
LINE
  8
0
 10
72.939
 11
73.942
 20
43.645
 21
41.923
  0
LINE
  8
0
 10
73.942
 11
74.905
 20
41.923
 21
40.179
  0
LINE
  8
0
 10
74.905
 11
75.826
 20
40.179
 21
38.412
  0
LINE
  8
0
 10
75.826
 11
76.705
 20
38.412
 21
36.623
  0
LINE
  8
0
 10
76.705
 11
77.543
 20
36.623
 21
34.815
  0
LINE
  8
0
 10
77.543
 11
78.338
 20
34.815
 21
32.988
  0
LINE
  8
0
 10
78.338
 11
79.09
 20
32.988
 21
31.142
  0
LINE
  8
0
 10
79.09
 11
79.798
 20
31.142
 21
29.28
  0
LINE
  8
0
 10
79.798
 11
80.462
 20
29.28
 21
27.401
  0
LINE
  8
0
 10
80.462
 11
81.083
 20
27.401
 21
25.507
  0
LINE
  8
0
 10
81.083
 11
81.658
 20
25.507
 21
23.599
  0
LINE
  8
0
 10
81.658
 11
82.189
 20
23.599
 21
21.679
  0
LINE
  8
0
 10
82.189
 11
82.675
 20
21.679
 21
19.746
  0
LINE
  8
0
 10
82.675
 11
83.115
 20
19.746
 21
17.802
  0
LINE
  8
0
 10
83.115
 11
83.509
 20
17.802
 21
15.849
  0
LINE
  8
0
 10
83.509
 11
83.858
 20
15.849
 21
13.887
  0
LINE
  8
0
 10
83.858
 11
84.16
 20
13.887
 21
11.917
  0
LINE
  8
0
 10
84.16
 11
84.417
 20
11.917
 21
9.941
  0
LINE
  8
0
 10
84.417
 11
84.627
 20
9.941
 21
7.96
  0
LINE
  8
0
 10
84.627
 11
84.79
 20
7.96
 21
5.973
  0
LINE
  8
0
 10
84.79
 11
84.907
 20
5.973
 21
3.984
  0
LINE
  8
0
 10
84.907
 11
84.977
 20
3.984
 21
1.993
  0
LINE
  8
0
 10
84.977
 11
85
 20
1.993
 21
0
  0
LINE
  8
0
 10
85
 11
84.977
 20
0
 21
-1.993
  0
LINE
  8
0
 10
84.977
 11
84.907
 20
-1.993
 21
-3.984
  0
LINE
  8
0
 10
84.907
 11
84.79
 20
-3.984
 21
-5.973
  0
LINE
  8
0
 10
84.79
 11
84.627
 20
-5.973
 21
-7.96
  0
LINE
  8
0
 10
84.627
 11
84.417
 20
-7.96
 21
-9.941
  0
LINE
  8
0
 10
84.417
 11
84.16
 20
-9.941
 21
-11.917
  0
LINE
  8
0
 10
84.16
 11
83.858
 20
-11.917
 21
-13.887
  0
LINE
  8
0
 10
83.858
 11
83.509
 20
-13.887
 21
-15.849
  0
LINE
  8
0
 10
83.509
 11
83.115
 20
-15.849
 21
-17.802
  0
LINE
  8
0
 10
83.115
 11
82.675
 20
-17.802
 21
-19.746
  0
LINE
  8
0
 10
82.675
 11
82.189
 20
-19.746
 21
-21.679
  0
LINE
  8
0
 10
82.189
 11
81.658
 20
-21.679
 21
-23.599
  0
LINE
  8
0
 10
81.658
 11
81.083
 20
-23.599
 21
-25.507
  0
LINE
  8
0
 10
81.083
 11
80.462
 20
-25.507
 21
-27.401
  0
LINE
  8
0
 10
80.462
 11
79.798
 20
-27.401
 21
-29.28
  0
LINE
  8
0
 10
79.798
 11
79.09
 20
-29.28
 21
-31.142
  0
LINE
  8
0
 10
79.09
 11
78.338
 20
-31.142
 21
-32.988
  0
LINE
  8
0
 10
78.338
 11
77.543
 20
-32.988
 21
-34.815
  0
LINE
  8
0
 10
77.543
 11
76.705
 20
-34.815
 21
-36.623
  0
LINE
  8
0
 10
76.705
 11
75.826
 20
-36.623
 21
-38.412
  0
LINE
  8
0
 10
75.826
 11
74.905
 20
-38.412
 21
-40.179
  0
LINE
  8
0
 10
74.905
 11
73.942
 20
-40.179
 21
-41.923
  0
LINE
  8
0
 10
73.942
 11
72.939
 20
-41.923
 21
-43.645
  0
LINE
  8
0
 10
72.939
 11
71.896
 20
-43.645
 21
-45.343
  0
LINE
  8
0
 10
71.896
 11
70.813
 20
-45.343
 21
-47.016
  0
LINE
  8
0
 10
70.813
 11
69.691
 20
-47.016
 21
-48.663
  0
LINE
  8
0
 10
69.691
 11
68.531
 20
-48.663
 21
-50.284
  0
LINE
  8
0
 10
68.531
 11
67.334
 20
-50.284
 21
-51.876
  0
LINE
  8
0
 10
67.334
 11
66.099
 20
-51.876
 21
-53.441
  0
LINE
  8
0
 10
66.099
 11
64.828
 20
-53.441
 21
-54.975
  0
LINE
  8
0
 10
64.828
 11
63.522
 20
-54.975
 21
-56.48
  0
LINE
  8
0
 10
63.522
 11
62.18
 20
-56.48
 21
-57.954
  0
LINE
  8
0
 10
62.18
 11
60.804
 20
-57.954
 21
-59.395
  0
LINE
  8
0
 10
60.804
 11
59.395
 20
-59.395
 21
-60.804
  0
LINE
  8
0
 10
59.395
 11
57.954
 20
-60.804
 21
-62.18
  0
LINE
  8
0
 10
57.954
 11
56.48
 20
-62.18
 21
-63.522
  0
LINE
  8
0
 10
56.48
 11
54.975
 20
-63.522
 21
-64.828
  0
LINE
  8
0
 10
54.975
 11
53.441
 20
-64.828
 21
-66.099
  0
LINE
  8
0
 10
53.441
 11
51.876
 20
-66.099
 21
-67.334
  0
LINE
  8
0
 10
51.876
 11
50.284
 20
-67.334
 21
-68.531
  0
LINE
  8
0
 10
50.284
 11
48.663
 20
-68.531
 21
-69.691
  0
LINE
  8
0
 10
48.663
 11
47.016
 20
-69.691
 21
-70.813
  0
LINE
  8
0
 10
47.016
 11
45.343
 20
-70.813
 21
-71.896
  0
LINE
  8
0
 10
45.343
 11
43.645
 20
-71.896
 21
-72.939
  0
LINE
  8
0
 10
43.645
 11
41.923
 20
-72.939
 21
-73.942
  0
LINE
  8
0
 10
41.923
 11
40.179
 20
-73.942
 21
-74.905
  0
LINE
  8
0
 10
40.179
 11
38.412
 20
-74.905
 21
-75.826
  0
LINE
  8
0
 10
38.412
 11
36.623
 20
-75.826
 21
-76.705
  0
LINE
  8
0
 10
36.623
 11
34.815
 20
-76.705
 21
-77.543
  0
LINE
  8
0
 10
34.815
 11
32.988
 20
-77.543
 21
-78.338
  0
LINE
  8
0
 10
32.988
 11
31.142
 20
-78.338
 21
-79.09
  0
LINE
  8
0
 10
31.142
 11
29.28
 20
-79.09
 21
-79.798
  0
LINE
  8
0
 10
29.28
 11
27.401
 20
-79.798
 21
-80.462
  0
LINE
  8
0
 10
27.401
 11
25.507
 20
-80.462
 21
-81.083
  0
LINE
  8
0
 10
25.507
 11
23.599
 20
-81.083
 21
-81.658
  0
LINE
  8
0
 10
23.599
 11
21.679
 20
-81.658
 21
-82.189
  0
LINE
  8
0
 10
21.679
 11
19.746
 20
-82.189
 21
-82.675
  0
LINE
  8
0
 10
19.746
 11
17.802
 20
-82.675
 21
-83.115
  0
LINE
  8
0
 10
17.802
 11
15.849
 20
-83.115
 21
-83.509
  0
LINE
  8
0
 10
15.849
 11
13.887
 20
-83.509
 21
-83.858
  0
LINE
  8
0
 10
13.887
 11
11.917
 20
-83.858
 21
-84.16
  0
LINE
  8
0
 10
11.917
 11
9.941
 20
-84.16
 21
-84.417
  0
LINE
  8
0
 10
9.941
 11
7.96
 20
-84.417
 21
-84.627
  0
LINE
  8
0
 10
7.96
 11
5.973
 20
-84.627
 21
-84.79
  0
LINE
  8
0
 10
5.973
 11
3.984
 20
-84.79
 21
-84.907
  0
LINE
  8
0
 10
3.984
 11
1.993
 20
-84.907
 21
-84.977
  0
LINE
  8
0
 10
1.993
 11
0
 20
-84.977
 21
-85
  0
LINE
  8
0
 10
0
 11
-1.993
 20
-85
 21
-84.977
  0
LINE
  8
0
 10
-1.993
 11
-3.984
 20
-84.977
 21
-84.907
  0
LINE
  8
0
 10
-3.984
 11
-5.973
 20
-84.907
 21
-84.79
  0
LINE
  8
0
 10
-5.973
 11
-7.96
 20
-84.79
 21
-84.627
  0
LINE
  8
0
 10
-7.96
 11
-9.941
 20
-84.627
 21
-84.417
  0
LINE
  8
0
 10
-9.941
 11
-11.917
 20
-84.417
 21
-84.16
  0
LINE
  8
0
 10
-11.917
 11
-13.887
 20
-84.16
 21
-83.858
  0
LINE
  8
0
 10
-13.887
 11
-15.849
 20
-83.858
 21
-83.509
  0
LINE
  8
0
 10
-15.849
 11
-17.802
 20
-83.509
 21
-83.115
  0
LINE
  8
0
 10
-17.802
 11
-19.746
 20
-83.115
 21
-82.675
  0
LINE
  8
0
 10
-19.746
 11
-21.679
 20
-82.675
 21
-82.189
  0
LINE
  8
0
 10
-21.679
 11
-23.599
 20
-82.189
 21
-81.658
  0
LINE
  8
0
 10
-23.599
 11
-25.507
 20
-81.658
 21
-81.083
  0
LINE
  8
0
 10
-25.507
 11
-27.401
 20
-81.083
 21
-80.462
  0
LINE
  8
0
 10
-27.401
 11
-29.28
 20
-80.462
 21
-79.798
  0
LINE
  8
0
 10
-29.28
 11
-31.142
 20
-79.798
 21
-79.09
  0
LINE
  8
0
 10
-31.142
 11
-32.988
 20
-79.09
 21
-78.338
  0
LINE
  8
0
 10
-32.988
 11
-34.815
 20
-78.338
 21
-77.543
  0
LINE
  8
0
 10
-34.815
 11
-36.623
 20
-77.543
 21
-76.705
  0
LINE
  8
0
 10
-36.623
 11
-38.412
 20
-76.705
 21
-75.826
  0
LINE
  8
0
 10
-38.412
 11
-40.179
 20
-75.826
 21
-74.905
  0
LINE
  8
0
 10
-40.179
 11
-41.923
 20
-74.905
 21
-73.942
  0
LINE
  8
0
 10
-41.923
 11
-43.645
 20
-73.942
 21
-72.939
  0
LINE
  8
0
 10
-43.645
 11
-45.343
 20
-72.939
 21
-71.896
  0
LINE
  8
0
 10
-45.343
 11
-47.016
 20
-71.896
 21
-70.813
  0
LINE
  8
0
 10
-47.016
 11
-48.663
 20
-70.813
 21
-69.691
  0
LINE
  8
0
 10
-48.663
 11
-50.284
 20
-69.691
 21
-68.531
  0
LINE
  8
0
 10
-50.284
 11
-51.876
 20
-68.531
 21
-67.334
  0
LINE
  8
0
 10
-51.876
 11
-53.441
 20
-67.334
 21
-66.099
  0
LINE
  8
0
 10
-53.441
 11
-54.975
 20
-66.099
 21
-64.828
  0
LINE
  8
0
 10
-54.975
 11
-56.48
 20
-64.828
 21
-63.522
  0
LINE
  8
0
 10
-56.48
 11
-57.954
 20
-63.522
 21
-62.18
  0
LINE
  8
0
 10
-57.954
 11
-59.395
 20
-62.18
 21
-60.804
  0
LINE
  8
0
 10
-59.395
 11
-60.804
 20
-60.804
 21
-59.395
  0
LINE
  8
0
 10
-60.804
 11
-62.18
 20
-59.395
 21
-57.954
  0
LINE
  8
0
 10
-62.18
 11
-63.522
 20
-57.954
 21
-56.48
  0
LINE
  8
0
 10
-63.522
 11
-64.828
 20
-56.48
 21
-54.975
  0
LINE
  8
0
 10
-64.828
 11
-66.099
 20
-54.975
 21
-53.441
  0
LINE
  8
0
 10
-66.099
 11
-67.334
 20
-53.441
 21
-51.876
  0
LINE
  8
0
 10
-67.334
 11
-68.531
 20
-51.876
 21
-50.284
  0
LINE
  8
0
 10
-68.531
 11
-69.691
 20
-50.284
 21
-48.663
  0
LINE
  8
0
 10
-69.691
 11
-70.813
 20
-48.663
 21
-47.016
  0
LINE
  8
0
 10
-70.813
 11
-71.896
 20
-47.016
 21
-45.343
  0
LINE
  8
0
 10
-71.896
 11
-72.939
 20
-45.343
 21
-43.645
  0
LINE
  8
0
 10
-72.939
 11
-73.942
 20
-43.645
 21
-41.923
  0
LINE
  8
0
 10
-73.942
 11
-74.905
 20
-41.923
 21
-40.179
  0
LINE
  8
0
 10
-74.905
 11
-75.826
 20
-40.179
 21
-38.412
  0
LINE
  8
0
 10
-75.826
 11
-76.705
 20
-38.412
 21
-36.623
  0
LINE
  8
0
 10
-76.705
 11
-77.543
 20
-36.623
 21
-34.815
  0
LINE
  8
0
 10
-77.543
 11
-78.338
 20
-34.815
 21
-32.988
  0
LINE
  8
0
 10
-78.338
 11
-79.09
 20
-32.988
 21
-31.142
  0
LINE
  8
0
 10
-79.09
 11
-79.798
 20
-31.142
 21
-29.28
  0
LINE
  8
0
 10
-79.798
 11
-80.462
 20
-29.28
 21
-27.401
  0
LINE
  8
0
 10
-80.462
 11
-81.083
 20
-27.401
 21
-25.507
  0
LINE
  8
0
 10
-81.083
 11
-81.658
 20
-25.507
 21
-23.599
  0
LINE
  8
0
 10
-81.658
 11
-82.189
 20
-23.599
 21
-21.679
  0
LINE
  8
0
 10
-82.189
 11
-82.675
 20
-21.679
 21
-19.746
  0
LINE
  8
0
 10
-82.675
 11
-83.115
 20
-19.746
 21
-17.802
  0
LINE
  8
0
 10
-83.115
 11
-83.509
 20
-17.802
 21
-15.849
  0
LINE
  8
0
 10
-83.509
 11
-83.858
 20
-15.849
 21
-13.887
  0
LINE
  8
0
 10
-83.858
 11
-84.16
 20
-13.887
 21
-11.917
  0
LINE
  8
0
 10
-84.16
 11
-84.417
 20
-11.917
 21
-9.941
  0
LINE
  8
0
 10
-84.417
 11
-84.627
 20
-9.941
 21
-7.96
  0
LINE
  8
0
 10
-84.627
 11
-84.79
 20
-7.96
 21
-5.973
  0
LINE
  8
0
 10
-84.79
 11
-84.907
 20
-5.973
 21
-3.984
  0
LINE
  8
0
 10
-84.907
 11
-84.977
 20
-3.984
 21
-1.993
  0
LINE
  8
0
 10
-84.977
 11
-85
 20
-1.993
 21
0
  0
LINE
  8
0
 10
-74.826
 11
-32
 20
-5
 21
-5
  0
LINE
  8
0
 10
-32
 11
-32
 20
-5
 21
5
  0
LINE
  8
0
 10
-32
 11
-74.826
 20
5
 21
5
  0
LINE
  8
0
 10
-74.826
 11
-74.761
 20
5
 21
5.984
  0
LINE
  8
0
 10
-74.761
 11
-74.575
 20
5.984
 21
7.972
  0
LINE
  8
0
 10
-74.575
 11
-74.336
 20
7.972
 21
9.954
  0
LINE
  8
0
 10
-74.336
 11
-74.045
 20
9.954
 21
11.93
  0
LINE
  8
0
 10
-74.045
 11
-73.701
 20
11.93
 21
13.897
  0
LINE
  8
0
 10
-73.701
 11
-73.305
 20
13.897
 21
15.854
  0
LINE
  8
0
 10
-73.305
 11
-72.857
 20
15.854
 21
17.8
  0
LINE
  8
0
 10
-72.857
 11
-72.358
 20
17.8
 21
19.733
  0
LINE
  8
0
 10
-72.358
 11
-71.807
 20
19.733
 21
21.652
  0
LINE
  8
0
 10
-71.807
 11
-71.205
 20
21.652
 21
23.556
  0
LINE
  8
0
 10
-71.205
 11
-70.553
 20
23.556
 21
25.443
  0
LINE
  8
0
 10
-70.553
 11
-69.85
 20
25.443
 21
27.312
  0
LINE
  8
0
 10
-69.85
 11
-69.098
 20
27.312
 21
29.162
  0
LINE
  8
0
 10
-69.098
 11
-68.298
 20
29.162
 21
30.991
  0
LINE
  8
0
 10
-68.298
 11
-67.448
 20
30.991
 21
32.798
  0
LINE
  8
0
 10
-67.448
 11
-66.551
 20
32.798
 21
34.582
  0
LINE
  8
0
 10
-66.551
 11
-66.327
 20
34.582
 21
35
  0
LINE
  8
0
 10
-66.327
 11
12
 20
35
 21
35
  0
LINE
  8
0
 10
12
 11
12
 20
35
 21
5
  0
LINE
  8
0
 10
12
 11
-22
 20
5
 21
5
  0
LINE
  8
0
 10
-22
 11
-22
 20
5
 21
-5
  0
LINE
  8
0
 10
-22
 11
74.826
 20
-5
 21
-5
  0
LINE
  8
0
 10
74.826
 11
74.761
 20
-5
 21
-5.984
  0
LINE
  8
0
 10
74.761
 11
74.575
 20
-5.984
 21
-7.972
  0
LINE
  8
0
 10
74.575
 11
74.336
 20
-7.972
 21
-9.954
  0
LINE
  8
0
 10
74.336
 11
74.045
 20
-9.954
 21
-11.93
  0
LINE
  8
0
 10
74.045
 11
73.701
 20
-11.93
 21
-13.897
  0
LINE
  8
0
 10
73.701
 11
73.305
 20
-13.897
 21
-15.854
  0
LINE
  8
0
 10
73.305
 11
72.857
 20
-15.854
 21
-17.8
  0
LINE
  8
0
 10
72.857
 11
72.358
 20
-17.8
 21
-19.733
  0
LINE
  8
0
 10
72.358
 11
71.807
 20
-19.733
 21
-21.652
  0
LINE
  8
0
 10
71.807
 11
71.205
 20
-21.652
 21
-23.556
  0
LINE
  8
0
 10
71.205
 11
70.553
 20
-23.556
 21
-25.443
  0
LINE
  8
0
 10
70.553
 11
69.85
 20
-25.443
 21
-27.312
  0
LINE
  8
0
 10
69.85
 11
69.098
 20
-27.312
 21
-29.162
  0
LINE
  8
0
 10
69.098
 11
68.298
 20
-29.162
 21
-30.991
  0
LINE
  8
0
 10
68.298
 11
67.448
 20
-30.991
 21
-32.798
  0
LINE
  8
0
 10
67.448
 11
66.551
 20
-32.798
 21
-34.582
  0
LINE
  8
0
 10
66.551
 11
65.607
 20
-34.582
 21
-36.341
  0
LINE
  8
0
 10
65.607
 11
64.617
 20
-36.341
 21
-38.075
  0
LINE
  8
0
 10
64.617
 11
63.58
 20
-38.075
 21
-39.782
  0
LINE
  8
0
 10
63.58
 11
62.499
 20
-39.782
 21
-41.46
  0
LINE
  8
0
 10
62.499
 11
61.373
 20
-41.46
 21
-43.109
  0
LINE
  8
0
 10
61.373
 11
60.203
 20
-43.109
 21
-44.728
  0
LINE
  8
0
 10
60.203
 11
58.991
 20
-44.728
 21
-46.314
  0
LINE
  8
0
 10
58.991
 11
57.738
 20
-46.314
 21
-47.868
  0
LINE
  8
0
 10
57.738
 11
56.443
 20
-47.868
 21
-49.388
  0
LINE
  8
0
 10
56.443
 11
55.108
 20
-49.388
 21
-50.873
  0
LINE
  8
0
 10
55.108
 11
53.734
 20
-50.873
 21
-52.322
  0
LINE
  8
0
 10
53.734
 11
52.322
 20
-52.322
 21
-53.734
  0
LINE
  8
0
 10
52.322
 11
50.873
 20
-53.734
 21
-55.108
  0
LINE
  8
0
 10
50.873
 11
49.388
 20
-55.108
 21
-56.443
  0
LINE
  8
0
 10
49.388
 11
47.868
 20
-56.443
 21
-57.738
  0
LINE
  8
0
 10
47.868
 11
46.314
 20
-57.738
 21
-58.991
  0
LINE
  8
0
 10
46.314
 11
44.728
 20
-58.991
 21
-60.203
  0
LINE
  8
0
 10
44.728
 11
43.109
 20
-60.203
 21
-61.373
  0
LINE
  8
0
 10
43.109
 11
41.46
 20
-61.373
 21
-62.499
  0
LINE
  8
0
 10
41.46
 11
39.782
 20
-62.499
 21
-63.58
  0
LINE
  8
0
 10
39.782
 11
38.075
 20
-63.58
 21
-64.617
  0
LINE
  8
0
 10
38.075
 11
36.341
 20
-64.617
 21
-65.607
  0
LINE
  8
0
 10
36.341
 11
34.582
 20
-65.607
 21
-66.551
  0
LINE
  8
0
 10
34.582
 11
32.798
 20
-66.551
 21
-67.448
  0
LINE
  8
0
 10
32.798
 11
30.991
 20
-67.448
 21
-68.298
  0
LINE
  8
0
 10
30.991
 11
29.162
 20
-68.298
 21
-69.098
  0
LINE
  8
0
 10
29.162
 11
27.312
 20
-69.098
 21
-69.85
  0
LINE
  8
0
 10
27.312
 11
25.443
 20
-69.85
 21
-70.553
  0
LINE
  8
0
 10
25.443
 11
25
 20
-70.553
 21
-70.706
  0
LINE
  8
0
 10
25
 11
25
 20
-70.706
 21
-62
  0
LINE
  8
0
 10
25
 11
-25
 20
-62
 21
-62
  0
LINE
  8
0
 10
-25
 11
-25
 20
-62
 21
-70.706
  0
LINE
  8
0
 10
-25
 11
-25.443
 20
-70.706
 21
-70.553
  0
LINE
  8
0
 10
-25.443
 11
-27.312
 20
-70.553
 21
-69.85
  0
LINE
  8
0
 10
-27.312
 11
-29.162
 20
-69.85
 21
-69.098
  0
LINE
  8
0
 10
-29.162
 11
-30.991
 20
-69.098
 21
-68.298
  0
LINE
  8
0
 10
-30.991
 11
-32.798
 20
-68.298
 21
-67.448
  0
LINE
  8
0
 10
-32.798
 11
-34.582
 20
-67.448
 21
-66.551
  0
LINE
  8
0
 10
-34.582
 11
-36.341
 20
-66.551
 21
-65.607
  0
LINE
  8
0
 10
-36.341
 11
-38.075
 20
-65.607
 21
-64.617
  0
LINE
  8
0
 10
-38.075
 11
-39.782
 20
-64.617
 21
-63.58
  0
LINE
  8
0
 10
-39.782
 11
-41.46
 20
-63.58
 21
-62.499
  0
LINE
  8
0
 10
-41.46
 11
-43.109
 20
-62.499
 21
-61.373
  0
LINE
  8
0
 10
-43.109
 11
-44.728
 20
-61.373
 21
-60.203
  0
LINE
  8
0
 10
-44.728
 11
-46.314
 20
-60.203
 21
-58.991
  0
LINE
  8
0
 10
-46.314
 11
-47.868
 20
-58.991
 21
-57.738
  0
LINE
  8
0
 10
-47.868
 11
-49.388
 20
-57.738
 21
-56.443
  0
LINE
  8
0
 10
-49.388
 11
-50.873
 20
-56.443
 21
-55.108
  0
LINE
  8
0
 10
-50.873
 11
-52.322
 20
-55.108
 21
-53.734
  0
LINE
  8
0
 10
-52.322
 11
-53.734
 20
-53.734
 21
-52.322
  0
LINE
  8
0
 10
-53.734
 11
-55.108
 20
-52.322
 21
-50.873
  0
LINE
  8
0
 10
-55.108
 11
-56.443
 20
-50.873
 21
-49.388
  0
LINE
  8
0
 10
-56.443
 11
-57.738
 20
-49.388
 21
-47.868
  0
LINE
  8
0
 10
-57.738
 11
-58.991
 20
-47.868
 21
-46.314
  0
LINE
  8
0
 10
-58.991
 11
-60.203
 20
-46.314
 21
-44.728
  0
LINE
  8
0
 10
-60.203
 11
-61.373
 20
-44.728
 21
-43.109
  0
LINE
  8
0
 10
-61.373
 11
-62.499
 20
-43.109
 21
-41.46
  0
LINE
  8
0
 10
-62.499
 11
-63.58
 20
-41.46
 21
-39.782
  0
LINE
  8
0
 10
-63.58
 11
-64.617
 20
-39.782
 21
-38.075
  0
LINE
  8
0
 10
-64.617
 11
-65.607
 20
-38.075
 21
-36.341
  0
LINE
  8
0
 10
-65.607
 11
-66.551
 20
-36.341
 21
-34.582
  0
LINE
  8
0
 10
-66.551
 11
-67.448
 20
-34.582
 21
-32.798
  0
LINE
  8
0
 10
-67.448
 11
-68.298
 20
-32.798
 21
-30.991
  0
LINE
  8
0
 10
-68.298
 11
-69.098
 20
-30.991
 21
-29.162
  0
LINE
  8
0
 10
-69.098
 11
-69.85
 20
-29.162
 21
-27.312
  0
LINE
  8
0
 10
-69.85
 11
-70.553
 20
-27.312
 21
-25.443
  0
LINE
  8
0
 10
-70.553
 11
-71.205
 20
-25.443
 21
-23.556
  0
LINE
  8
0
 10
-71.205
 11
-71.807
 20
-23.556
 21
-21.652
  0
LINE
  8
0
 10
-71.807
 11
-72.358
 20
-21.652
 21
-19.733
  0
LINE
  8
0
 10
-72.358
 11
-72.857
 20
-19.733
 21
-17.8
  0
LINE
  8
0
 10
-72.857
 11
-73.305
 20
-17.8
 21
-15.854
  0
LINE
  8
0
 10
-73.305
 11
-73.701
 20
-15.854
 21
-13.897
  0
LINE
  8
0
 10
-73.701
 11
-74.045
 20
-13.897
 21
-11.93
  0
LINE
  8
0
 10
-74.045
 11
-74.336
 20
-11.93
 21
-9.954
  0
LINE
  8
0
 10
-74.336
 11
-74.575
 20
-9.954
 21
-7.972
  0
LINE
  8
0
 10
-74.575
 11
-74.761
 20
-7.972
 21
-5.984
  0
LINE
  8
0
 10
-74.761
 11
-74.826
 20
-5.984
 21
-5
  0
LINE
  8
0
 10
-70.214
 11
-70.214
 20
-0.882
 21
0.882
  0
LINE
  8
0
 10
-70.214
 11
-68.536
 20
0.882
 21
1.427
  0
LINE
  8
0
 10
-68.536
 11
-67.5
 20
1.427
 21
0
  0
LINE
  8
0
 10
-67.5
 11
-68.536
 20
0
 21
-1.427
  0
LINE
  8
0
 10
-68.536
 11
-70.214
 20
-1.427
 21
-0.882
  0
LINE
  8
0
 10
-55.893
 11
-55.108
 20
50
 21
50.873
  0
LINE
  8
0
 10
-55.108
 11
-53.734
 20
50.873
 21
52.322
  0
LINE
  8
0
 10
-53.734
 11
-52.322
 20
52.322
 21
53.734
  0
LINE
  8
0
 10
-52.322
 11
-50.873
 20
53.734
 21
55.108
  0
LINE
  8
0
 10
-50.873
 11
-49.388
 20
55.108
 21
56.443
  0
LINE
  8
0
 10
-49.388
 11
-47.868
 20
56.443
 21
57.738
  0
LINE
  8
0
 10
-47.868
 11
-46.314
 20
57.738
 21
58.991
  0
LINE
  8
0
 10
-46.314
 11
-44.728
 20
58.991
 21
60.203
  0
LINE
  8
0
 10
-44.728
 11
-43.109
 20
60.203
 21
61.373
  0
LINE
  8
0
 10
-43.109
 11
-41.46
 20
61.373
 21
62.499
  0
LINE
  8
0
 10
-41.46
 11
-39.782
 20
62.499
 21
63.58
  0
LINE
  8
0
 10
-39.782
 11
-38.075
 20
63.58
 21
64.617
  0
LINE
  8
0
 10
-38.075
 11
-36.341
 20
64.617
 21
65.607
  0
LINE
  8
0
 10
-36.341
 11
-34.582
 20
65.607
 21
66.551
  0
LINE
  8
0
 10
-34.582
 11
-32.798
 20
66.551
 21
67.448
  0
LINE
  8
0
 10
-32.798
 11
-30.991
 20
67.448
 21
68.298
  0
LINE
  8
0
 10
-30.991
 11
-29.162
 20
68.298
 21
69.098
  0
LINE
  8
0
 10
-29.162
 11
-27.312
 20
69.098
 21
69.85
  0
LINE
  8
0
 10
-27.312
 11
-25.443
 20
69.85
 21
70.553
  0
LINE
  8
0
 10
-25.443
 11
-25
 20
70.553
 21
70.706
  0
LINE
  8
0
 10
-25
 11
-25
 20
70.706
 21
62
  0
LINE
  8
0
 10
-25
 11
25
 20
62
 21
62
  0
LINE
  8
0
 10
25
 11
25
 20
62
 21
70.706
  0
LINE
  8
0
 10
25
 11
25.443
 20
70.706
 21
70.553
  0
LINE
  8
0
 10
25.443
 11
27.312
 20
70.553
 21
69.85
  0
LINE
  8
0
 10
27.312
 11
29.162
 20
69.85
 21
69.098
  0
LINE
  8
0
 10
29.162
 11
30.991
 20
69.098
 21
68.298
  0
LINE
  8
0
 10
30.991
 11
32.798
 20
68.298
 21
67.448
  0
LINE
  8
0
 10
32.798
 11
34.582
 20
67.448
 21
66.551
  0
LINE
  8
0
 10
34.582
 11
36.341
 20
66.551
 21
65.607
  0
LINE
  8
0
 10
36.341
 11
38.075
 20
65.607
 21
64.617
  0
LINE
  8
0
 10
38.075
 11
39.782
 20
64.617
 21
63.58
  0
LINE
  8
0
 10
39.782
 11
41.46
 20
63.58
 21
62.499
  0
LINE
  8
0
 10
41.46
 11
43.109
 20
62.499
 21
61.373
  0
LINE
  8
0
 10
43.109
 11
44.728
 20
61.373
 21
60.203
  0
LINE
  8
0
 10
44.728
 11
46.314
 20
60.203
 21
58.991
  0
LINE
  8
0
 10
46.314
 11
47.868
 20
58.991
 21
57.738
  0
LINE
  8
0
 10
47.868
 11
49.388
 20
57.738
 21
56.443
  0
LINE
  8
0
 10
49.388
 11
50.873
 20
56.443
 21
55.108
  0
LINE
  8
0
 10
50.873
 11
52.322
 20
55.108
 21
53.734
  0
LINE
  8
0
 10
52.322
 11
53.734
 20
53.734
 21
52.322
  0
LINE
  8
0
 10
53.734
 11
55.108
 20
52.322
 21
50.873
  0
LINE
  8
0
 10
55.108
 11
55.893
 20
50.873
 21
50
  0
LINE
  8
0
 10
55.893
 11
-55.893
 20
50
 21
50
  0
LINE
  8
0
 10
-54.214
 11
-54.214
 20
-0.882
 21
0.882
  0
LINE
  8
0
 10
-54.214
 11
-52.536
 20
0.882
 21
1.427
  0
LINE
  8
0
 10
-52.536
 11
-51.5
 20
1.427
 21
0
  0
LINE
  8
0
 10
-51.5
 11
-52.536
 20
0
 21
-1.427
  0
LINE
  8
0
 10
-52.536
 11
-54.214
 20
-1.427
 21
-0.882
  0
LINE
  8
0
 10
-39.214
 11
-39.214
 20
43.118
 21
44.882
  0
LINE
  8
0
 10
-39.214
 11
-37.536
 20
44.882
 21
45.427
  0
LINE
  8
0
 10
-37.536
 11
-36.5
 20
45.427
 21
44
  0
LINE
  8
0
 10
-36.5
 11
-37.536
 20
44
 21
42.573
  0
LINE
  8
0
 10
-37.536
 11
-39.214
 20
42.573
 21
43.118
  0
LINE
  8
0
 10
-29
 11
-28.247
 20
43
 21
44.564
  0
LINE
  8
0
 10
-28.247
 11
-26.555
 20
44.564
 21
44.95
  0
LINE
  8
0
 10
-26.555
 11
-25.198
 20
44.95
 21
43.868
  0
LINE
  8
0
 10
-25.198
 11
-25.198
 20
43.868
 21
42.132
  0
LINE
  8
0
 10
-25.198
 11
-26.555
 20
42.132
 21
41.05
  0
LINE
  8
0
 10
-26.555
 11
-28.247
 20
41.05
 21
41.436
  0
LINE
  8
0
 10
-28.247
 11
-29
 20
41.436
 21
43
  0
LINE
  8
0
 10
-16.214
 11
-16.214
 20
43.118
 21
44.882
  0
LINE
  8
0
 10
-16.214
 11
-14.536
 20
44.882
 21
45.427
  0
LINE
  8
0
 10
-14.536
 11
-13.5
 20
45.427
 21
44
  0
LINE
  8
0
 10
-13.5
 11
-14.536
 20
44
 21
42.573
  0
LINE
  8
0
 10
-14.536
 11
-16.214
 20
42.573
 21
43.118
  0
LINE
  8
0
 10
-1.214
 11
-1.214
 20
-69.882
 21
-68.118
  0
LINE
  8
0
 10
-1.214
 11
0.464
 20
-68.118
 21
-67.573
  0
LINE
  8
0
 10
0.464
 11
1.5
 20
-67.573
 21
-69
  0
LINE
  8
0
 10
1.5
 11
0.464
 20
-69
 21
-70.427
  0
LINE
  8
0
 10
0.464
 11
-1.214
 20
-70.427
 21
-69.882
  0
LINE
  8
0
 10
-1.214
 11
-1.214
 20
-0.882
 21
0.882
  0
LINE
  8
0
 10
-1.214
 11
0.464
 20
0.882
 21
1.427
  0
LINE
  8
0
 10
0.464
 11
1.5
 20
1.427
 21
0
  0
LINE
  8
0
 10
1.5
 11
0.464
 20
0
 21
-1.427
  0
LINE
  8
0
 10
0.464
 11
-1.214
 20
-1.427
 21
-0.882
  0
LINE
  8
0
 10
-1.214
 11
-1.214
 20
68.118
 21
69.882
  0
LINE
  8
0
 10
-1.214
 11
0.464
 20
69.882
 21
70.427
  0
LINE
  8
0
 10
0.464
 11
1.5
 20
70.427
 21
69
  0
LINE
  8
0
 10
1.5
 11
0.464
 20
69
 21
67.573
  0
LINE
  8
0
 10
0.464
 11
-1.214
 20
67.573
 21
68.118
  0
LINE
  8
0
 10
8
 11
8.753
 20
-67
 21
-65.436
  0
LINE
  8
0
 10
8.753
 11
10.445
 20
-65.436
 21
-65.05
  0
LINE
  8
0
 10
10.445
 11
11.802
 20
-65.05
 21
-66.132
  0
LINE
  8
0
 10
11.802
 11
11.802
 20
-66.132
 21
-67.868
  0
LINE
  8
0
 10
11.802
 11
10.445
 20
-67.868
 21
-68.95
  0
LINE
  8
0
 10
10.445
 11
8.753
 20
-68.95
 21
-68.564
  0
LINE
  8
0
 10
8.753
 11
8
 20
-68.564
 21
-67
  0
LINE
  8
0
 10
15.786
 11
15.786
 20
-0.882
 21
0.882
  0
LINE
  8
0
 10
15.786
 11
17.464
 20
0.882
 21
1.427
  0
LINE
  8
0
 10
17.464
 11
18.5
 20
1.427
 21
0
  0
LINE
  8
0
 10
18.5
 11
17.464
 20
0
 21
-1.427
  0
LINE
  8
0
 10
17.464
 11
15.786
 20
-1.427
 21
-0.882
  0
LINE
  8
0
 10
15.786
 11
15.786
 20
39.118
 21
40.882
  0
LINE
  8
0
 10
15.786
 11
17.464
 20
40.882
 21
41.427
  0
LINE
  8
0
 10
17.464
 11
18.5
 20
41.427
 21
40
  0
LINE
  8
0
 10
18.5
 11
17.464
 20
40
 21
38.573
  0
LINE
  8
0
 10
17.464
 11
15.786
 20
38.573
 21
39.118
  0
LINE
  8
0
 10
18.057
 11
18.057
 20
19.013
 21
20.987
  0
LINE
  8
0
 10
18.057
 11
18.513
 20
20.987
 21
22.907
  0
LINE
  8
0
 10
18.513
 11
19.398
 20
22.907
 21
24.671
  0
LINE
  8
0
 10
19.398
 11
20.667
 20
24.671
 21
26.183
  0
LINE
  8
0
 10
20.667
 11
22.25
 20
26.183
 21
27.361
  0
LINE
  8
0
 10
22.25
 11
24.062
 20
27.361
 21
28.143
  0
LINE
  8
0
 10
24.062
 11
26.006
 20
28.143
 21
28.486
  0
LINE
  8
0
 10
26.006
 11
27.976
 20
28.486
 21
28.371
  0
LINE
  8
0
 10
27.976
 11
29.867
 20
28.371
 21
27.805
  0
LINE
  8
0
 10
29.867
 11
31.576
 20
27.805
 21
26.818
  0
LINE
  8
0
 10
31.576
 11
33.011
 20
26.818
 21
25.464
  0
LINE
  8
0
 10
33.011
 11
34.096
 20
25.464
 21
23.815
  0
LINE
  8
0
 10
34.096
 11
34.771
 20
23.815
 21
21.96
  0
LINE
  8
0
 10
34.771
 11
35
 20
21.96
 21
20
  0
LINE
  8
0
 10
35
 11
34.771
 20
20
 21
18.04
  0
LINE
  8
0
 10
34.771
 11
34.096
 20
18.04
 21
16.185
  0
LINE
  8
0
 10
34.096
 11
33.011
 20
16.185
 21
14.536
  0
LINE
  8
0
 10
33.011
 11
31.576
 20
14.536
 21
13.182
  0
LINE
  8
0
 10
31.576
 11
29.867
 20
13.182
 21
12.195
  0
LINE
  8
0
 10
29.867
 11
27.976
 20
12.195
 21
11.629
  0
LINE
  8
0
 10
27.976
 11
26.006
 20
11.629
 21
11.514
  0
LINE
  8
0
 10
26.006
 11
24.062
 20
11.514
 21
11.857
  0
LINE
  8
0
 10
24.062
 11
22.25
 20
11.857
 21
12.639
  0
LINE
  8
0
 10
22.25
 11
20.667
 20
12.639
 21
13.817
  0
LINE
  8
0
 10
20.667
 11
19.398
 20
13.817
 21
15.329
  0
LINE
  8
0
 10
19.398
 11
18.513
 20
15.329
 21
17.093
  0
LINE
  8
0
 10
18.513
 11
18.057
 20
17.093
 21
19.013
  0
LINE
  8
0
 10
25
 11
25.753
 20
43
 21
44.564
  0
LINE
  8
0
 10
25.753
 11
27.445
 20
44.564
 21
44.95
  0
LINE
  8
0
 10
27.445
 11
28.802
 20
44.95
 21
43.868
  0
LINE
  8
0
 10
28.802
 11
28.802
 20
43.868
 21
42.132
  0
LINE
  8
0
 10
28.802
 11
27.445
 20
42.132
 21
41.05
  0
LINE
  8
0
 10
27.445
 11
25.753
 20
41.05
 21
41.436
  0
LINE
  8
0
 10
25.753
 11
25
 20
41.436
 21
43
  0
LINE
  8
0
 10
34.786
 11
34.786
 20
-0.882
 21
0.882
  0
LINE
  8
0
 10
34.786
 11
36.464
 20
0.882
 21
1.427
  0
LINE
  8
0
 10
36.464
 11
37.5
 20
1.427
 21
0
  0
LINE
  8
0
 10
37.5
 11
36.464
 20
0
 21
-1.427
  0
LINE
  8
0
 10
36.464
 11
34.786
 20
-1.427
 21
-0.882
  0
LINE
  8
0
 10
34.786
 11
34.786
 20
39.118
 21
40.882
  0
LINE
  8
0
 10
34.786
 11
36.464
 20
40.882
 21
41.427
  0
LINE
  8
0
 10
36.464
 11
37.5
 20
41.427
 21
40
  0
LINE
  8
0
 10
37.5
 11
36.464
 20
40
 21
38.573
  0
LINE
  8
0
 10
36.464
 11
34.786
 20
38.573
 21
39.118
  0
LINE
  8
0
 10
42
 11
42
 20
5
 21
35
  0
LINE
  8
0
 10
42
 11
66.327
 20
35
 21
35
  0
LINE
  8
0
 10
66.327
 11
66.551
 20
35
 21
34.582
  0
LINE
  8
0
 10
66.551
 11
67.448
 20
34.582
 21
32.798
  0
LINE
  8
0
 10
67.448
 11
68.298
 20
32.798
 21
30.991
  0
LINE
  8
0
 10
68.298
 11
69.098
 20
30.991
 21
29.162
  0
LINE
  8
0
 10
69.098
 11
69.85
 20
29.162
 21
27.312
  0
LINE
  8
0
 10
69.85
 11
70.553
 20
27.312
 21
25.443
  0
LINE
  8
0
 10
70.553
 11
71.205
 20
25.443
 21
23.556
  0
LINE
  8
0
 10
71.205
 11
71.807
 20
23.556
 21
21.652
  0
LINE
  8
0
 10
71.807
 11
72.358
 20
21.652
 21
19.733
  0
LINE
  8
0
 10
72.358
 11
72.857
 20
19.733
 21
17.8
  0
LINE
  8
0
 10
72.857
 11
73.305
 20
17.8
 21
15.854
  0
LINE
  8
0
 10
73.305
 11
73.701
 20
15.854
 21
13.897
  0
LINE
  8
0
 10
73.701
 11
74.045
 20
13.897
 21
11.93
  0
LINE
  8
0
 10
74.045
 11
74.336
 20
11.93
 21
9.954
  0
LINE
  8
0
 10
74.336
 11
74.575
 20
9.954
 21
7.972
  0
LINE
  8
0
 10
74.575
 11
74.761
 20
7.972
 21
5.984
  0
LINE
  8
0
 10
74.761
 11
74.826
 20
5.984
 21
5
  0
LINE
  8
0
 10
74.826
 11
42
 20
5
 21
5
  0
LINE
  8
0
 10
67.786
 11
67.786
 20
-0.882
 21
0.882
  0
LINE
  8
0
 10
67.786
 11
69.464
 20
0.882
 21
1.427
  0
LINE
  8
0
 10
69.464
 11
70.5
 20
1.427
 21
0
  0
LINE
  8
0
 10
70.5
 11
69.464
 20
0
 21
-1.427
  0
LINE
  8
0
 10
69.464
 11
67.786
 20
-1.427
 21
-0.882
  0
ENDSEC
  0
SECTION
  2
OBJECTS
  0
DICTIONARY
  0
ENDSEC
  0
EOF
