  0
SECTION
  2
BLOCKS
  0
ENDSEC
  0
SECTION
  2
ENTITIES
  0
LINE
  8
0
 10
-80
 11
-79.975
 20
0
 21
1.994
  0
LINE
  8
0
 10
-79.975
 11
-79.901
 20
1.994
 21
3.988
  0
LINE
  8
0
 10
-79.901
 11
-79.776
 20
3.988
 21
5.978
  0
LINE
  8
0
 10
-79.776
 11
-79.602
 20
5.978
 21
7.965
  0
LINE
  8
0
 10
-79.602
 11
-79.379
 20
7.965
 21
9.947
  0
LINE
  8
0
 10
-79.379
 11
-79.106
 20
9.947
 21
11.923
  0
LINE
  8
0
 10
-79.106
 11
-78.785
 20
11.923
 21
13.892
  0
LINE
  8
0
 10
-78.785
 11
-78.414
 20
13.892
 21
15.852
  0
LINE
  8
0
 10
-78.414
 11
-77.994
 20
15.852
 21
17.802
  0
LINE
  8
0
 10
-77.994
 11
-77.526
 20
17.802
 21
19.741
  0
LINE
  8
0
 10
-77.526
 11
-77.01
 20
19.741
 21
21.667
  0
LINE
  8
0
 10
-77.01
 11
-76.446
 20
21.667
 21
23.58
  0
LINE
  8
0
 10
-76.446
 11
-75.834
 20
23.58
 21
25.479
  0
LINE
  8
0
 10
-75.834
 11
-75.175
 20
25.479
 21
27.362
  0
LINE
  8
0
 10
-75.175
 11
-74.47
 20
27.362
 21
29.227
  0
LINE
  8
0
 10
-74.47
 11
-73.718
 20
29.227
 21
31.075
  0
LINE
  8
0
 10
-73.718
 11
-72.92
 20
31.075
 21
32.903
  0
LINE
  8
0
 10
-72.92
 11
-72.078
 20
32.903
 21
34.711
  0
LINE
  8
0
 10
-72.078
 11
-71.19
 20
34.711
 21
36.497
  0
LINE
  8
0
 10
-71.19
 11
-70.258
 20
36.497
 21
38.26
  0
LINE
  8
0
 10
-70.258
 11
-69.282
 20
38.26
 21
40
  0
LINE
  8
0
 10
-69.282
 11
-68.263
 20
40
 21
41.715
  0
LINE
  8
0
 10
-68.263
 11
-67.202
 20
41.715
 21
43.404
  0
LINE
  8
0
 10
-67.202
 11
-66.099
 20
43.404
 21
45.066
  0
LINE
  8
0
 10
-66.099
 11
-64.955
 20
45.066
 21
46.699
  0
LINE
  8
0
 10
-64.955
 11
-63.771
 20
46.699
 21
48.304
  0
LINE
  8
0
 10
-63.771
 11
-62.547
 20
48.304
 21
49.879
  0
LINE
  8
0
 10
-62.547
 11
-61.284
 20
49.879
 21
51.423
  0
LINE
  8
0
 10
-61.284
 11
-59.982
 20
51.423
 21
52.935
  0
LINE
  8
0
 10
-59.982
 11
-58.644
 20
52.935
 21
54.414
  0
LINE
  8
0
 10
-58.644
 11
-57.269
 20
54.414
 21
55.859
  0
LINE
  8
0
 10
-57.269
 11
-55.859
 20
55.859
 21
57.269
  0
LINE
  8
0
 10
-55.859
 11
-54.414
 20
57.269
 21
58.644
  0
LINE
  8
0
 10
-54.414
 11
-52.935
 20
58.644
 21
59.982
  0
LINE
  8
0
 10
-52.935
 11
-51.423
 20
59.982
 21
61.284
  0
LINE
  8
0
 10
-51.423
 11
-49.879
 20
61.284
 21
62.547
  0
LINE
  8
0
 10
-49.879
 11
-48.304
 20
62.547
 21
63.771
  0
LINE
  8
0
 10
-48.304
 11
-46.699
 20
63.771
 21
64.955
  0
LINE
  8
0
 10
-46.699
 11
-45.066
 20
64.955
 21
66.099
  0
LINE
  8
0
 10
-45.066
 11
-43.404
 20
66.099
 21
67.202
  0
LINE
  8
0
 10
-43.404
 11
-41.715
 20
67.202
 21
68.263
  0
LINE
  8
0
 10
-41.715
 11
-40
 20
68.263
 21
69.282
  0
LINE
  8
0
 10
-40
 11
-38.26
 20
69.282
 21
70.258
  0
LINE
  8
0
 10
-38.26
 11
-36.497
 20
70.258
 21
71.19
  0
LINE
  8
0
 10
-36.497
 11
-34.711
 20
71.19
 21
72.078
  0
LINE
  8
0
 10
-34.711
 11
-32.903
 20
72.078
 21
72.92
  0
LINE
  8
0
 10
-32.903
 11
-31.075
 20
72.92
 21
73.718
  0
LINE
  8
0
 10
-31.075
 11
-29.227
 20
73.718
 21
74.47
  0
LINE
  8
0
 10
-29.227
 11
-27.362
 20
74.47
 21
75.175
  0
LINE
  8
0
 10
-27.362
 11
-25.479
 20
75.175
 21
75.834
  0
LINE
  8
0
 10
-25.479
 11
-23.58
 20
75.834
 21
76.446
  0
LINE
  8
0
 10
-23.58
 11
-21.667
 20
76.446
 21
77.01
  0
LINE
  8
0
 10
-21.667
 11
-19.741
 20
77.01
 21
77.526
  0
LINE
  8
0
 10
-19.741
 11
-17.802
 20
77.526
 21
77.994
  0
LINE
  8
0
 10
-17.802
 11
-15.852
 20
77.994
 21
78.414
  0
LINE
  8
0
 10
-15.852
 11
-13.892
 20
78.414
 21
78.785
  0
LINE
  8
0
 10
-13.892
 11
-11.923
 20
78.785
 21
79.106
  0
LINE
  8
0
 10
-11.923
 11
-9.947
 20
79.106
 21
79.379
  0
LINE
  8
0
 10
-9.947
 11
-7.965
 20
79.379
 21
79.602
  0
LINE
  8
0
 10
-7.965
 11
-5.978
 20
79.602
 21
79.776
  0
LINE
  8
0
 10
-5.978
 11
-3.988
 20
79.776
 21
79.901
  0
LINE
  8
0
 10
-3.988
 11
-1.994
 20
79.901
 21
79.975
  0
LINE
  8
0
 10
-1.994
 11
0
 20
79.975
 21
80
  0
LINE
  8
0
 10
0
 11
1.994
 20
80
 21
79.975
  0
LINE
  8
0
 10
1.994
 11
3.988
 20
79.975
 21
79.901
  0
LINE
  8
0
 10
3.988
 11
5.978
 20
79.901
 21
79.776
  0
LINE
  8
0
 10
5.978
 11
7.965
 20
79.776
 21
79.602
  0
LINE
  8
0
 10
7.965
 11
9.947
 20
79.602
 21
79.379
  0
LINE
  8
0
 10
9.947
 11
11.923
 20
79.379
 21
79.106
  0
LINE
  8
0
 10
11.923
 11
13.892
 20
79.106
 21
78.785
  0
LINE
  8
0
 10
13.892
 11
15.852
 20
78.785
 21
78.414
  0
LINE
  8
0
 10
15.852
 11
17.802
 20
78.414
 21
77.994
  0
LINE
  8
0
 10
17.802
 11
19.741
 20
77.994
 21
77.526
  0
LINE
  8
0
 10
19.741
 11
21.667
 20
77.526
 21
77.01
  0
LINE
  8
0
 10
21.667
 11
23.58
 20
77.01
 21
76.446
  0
LINE
  8
0
 10
23.58
 11
25.479
 20
76.446
 21
75.834
  0
LINE
  8
0
 10
25.479
 11
27.362
 20
75.834
 21
75.175
  0
LINE
  8
0
 10
27.362
 11
29.227
 20
75.175
 21
74.47
  0
LINE
  8
0
 10
29.227
 11
31.075
 20
74.47
 21
73.718
  0
LINE
  8
0
 10
31.075
 11
32.903
 20
73.718
 21
72.92
  0
LINE
  8
0
 10
32.903
 11
34.711
 20
72.92
 21
72.078
  0
LINE
  8
0
 10
34.711
 11
36.497
 20
72.078
 21
71.19
  0
LINE
  8
0
 10
36.497
 11
38.26
 20
71.19
 21
70.258
  0
LINE
  8
0
 10
38.26
 11
40
 20
70.258
 21
69.282
  0
LINE
  8
0
 10
40
 11
41.715
 20
69.282
 21
68.263
  0
LINE
  8
0
 10
41.715
 11
43.404
 20
68.263
 21
67.202
  0
LINE
  8
0
 10
43.404
 11
45.066
 20
67.202
 21
66.099
  0
LINE
  8
0
 10
45.066
 11
46.699
 20
66.099
 21
64.955
  0
LINE
  8
0
 10
46.699
 11
48.304
 20
64.955
 21
63.771
  0
LINE
  8
0
 10
48.304
 11
49.879
 20
63.771
 21
62.547
  0
LINE
  8
0
 10
49.879
 11
51.423
 20
62.547
 21
61.284
  0
LINE
  8
0
 10
51.423
 11
52.935
 20
61.284
 21
59.982
  0
LINE
  8
0
 10
52.935
 11
54.414
 20
59.982
 21
58.644
  0
LINE
  8
0
 10
54.414
 11
55.859
 20
58.644
 21
57.269
  0
LINE
  8
0
 10
55.859
 11
57.269
 20
57.269
 21
55.859
  0
LINE
  8
0
 10
57.269
 11
58.644
 20
55.859
 21
54.414
  0
LINE
  8
0
 10
58.644
 11
59.982
 20
54.414
 21
52.935
  0
LINE
  8
0
 10
59.982
 11
61.284
 20
52.935
 21
51.423
  0
LINE
  8
0
 10
61.284
 11
62.547
 20
51.423
 21
49.879
  0
LINE
  8
0
 10
62.547
 11
63.771
 20
49.879
 21
48.304
  0
LINE
  8
0
 10
63.771
 11
64.955
 20
48.304
 21
46.699
  0
LINE
  8
0
 10
64.955
 11
66.099
 20
46.699
 21
45.066
  0
LINE
  8
0
 10
66.099
 11
67.202
 20
45.066
 21
43.404
  0
LINE
  8
0
 10
67.202
 11
68.263
 20
43.404
 21
41.715
  0
LINE
  8
0
 10
68.263
 11
69.282
 20
41.715
 21
40
  0
LINE
  8
0
 10
69.282
 11
70.258
 20
40
 21
38.26
  0
LINE
  8
0
 10
70.258
 11
71.19
 20
38.26
 21
36.497
  0
LINE
  8
0
 10
71.19
 11
72.078
 20
36.497
 21
34.711
  0
LINE
  8
0
 10
72.078
 11
72.92
 20
34.711
 21
32.903
  0
LINE
  8
0
 10
72.92
 11
73.718
 20
32.903
 21
31.075
  0
LINE
  8
0
 10
73.718
 11
74.47
 20
31.075
 21
29.227
  0
LINE
  8
0
 10
74.47
 11
75.175
 20
29.227
 21
27.362
  0
LINE
  8
0
 10
75.175
 11
75.834
 20
27.362
 21
25.479
  0
LINE
  8
0
 10
75.834
 11
76.446
 20
25.479
 21
23.58
  0
LINE
  8
0
 10
76.446
 11
77.01
 20
23.58
 21
21.667
  0
LINE
  8
0
 10
77.01
 11
77.526
 20
21.667
 21
19.741
  0
LINE
  8
0
 10
77.526
 11
77.994
 20
19.741
 21
17.802
  0
LINE
  8
0
 10
77.994
 11
78.414
 20
17.802
 21
15.852
  0
LINE
  8
0
 10
78.414
 11
78.785
 20
15.852
 21
13.892
  0
LINE
  8
0
 10
78.785
 11
79.106
 20
13.892
 21
11.923
  0
LINE
  8
0
 10
79.106
 11
79.379
 20
11.923
 21
9.947
  0
LINE
  8
0
 10
79.379
 11
79.602
 20
9.947
 21
7.965
  0
LINE
  8
0
 10
79.602
 11
79.776
 20
7.965
 21
5.978
  0
LINE
  8
0
 10
79.776
 11
79.901
 20
5.978
 21
3.988
  0
LINE
  8
0
 10
79.901
 11
79.975
 20
3.988
 21
1.994
  0
LINE
  8
0
 10
79.975
 11
80
 20
1.994
 21
0
  0
LINE
  8
0
 10
80
 11
79.975
 20
0
 21
-1.994
  0
LINE
  8
0
 10
79.975
 11
79.901
 20
-1.994
 21
-3.988
  0
LINE
  8
0
 10
79.901
 11
79.776
 20
-3.988
 21
-5.978
  0
LINE
  8
0
 10
79.776
 11
79.602
 20
-5.978
 21
-7.965
  0
LINE
  8
0
 10
79.602
 11
79.379
 20
-7.965
 21
-9.947
  0
LINE
  8
0
 10
79.379
 11
79.106
 20
-9.947
 21
-11.923
  0
LINE
  8
0
 10
79.106
 11
78.785
 20
-11.923
 21
-13.892
  0
LINE
  8
0
 10
78.785
 11
78.414
 20
-13.892
 21
-15.852
  0
LINE
  8
0
 10
78.414
 11
77.994
 20
-15.852
 21
-17.802
  0
LINE
  8
0
 10
77.994
 11
77.526
 20
-17.802
 21
-19.741
  0
LINE
  8
0
 10
77.526
 11
77.01
 20
-19.741
 21
-21.667
  0
LINE
  8
0
 10
77.01
 11
76.446
 20
-21.667
 21
-23.58
  0
LINE
  8
0
 10
76.446
 11
75.834
 20
-23.58
 21
-25.479
  0
LINE
  8
0
 10
75.834
 11
75.175
 20
-25.479
 21
-27.362
  0
LINE
  8
0
 10
75.175
 11
74.47
 20
-27.362
 21
-29.227
  0
LINE
  8
0
 10
74.47
 11
73.718
 20
-29.227
 21
-31.075
  0
LINE
  8
0
 10
73.718
 11
72.92
 20
-31.075
 21
-32.903
  0
LINE
  8
0
 10
72.92
 11
72.078
 20
-32.903
 21
-34.711
  0
LINE
  8
0
 10
72.078
 11
71.19
 20
-34.711
 21
-36.497
  0
LINE
  8
0
 10
71.19
 11
70.258
 20
-36.497
 21
-38.26
  0
LINE
  8
0
 10
70.258
 11
69.282
 20
-38.26
 21
-40
  0
LINE
  8
0
 10
69.282
 11
68.263
 20
-40
 21
-41.715
  0
LINE
  8
0
 10
68.263
 11
67.202
 20
-41.715
 21
-43.404
  0
LINE
  8
0
 10
67.202
 11
66.099
 20
-43.404
 21
-45.066
  0
LINE
  8
0
 10
66.099
 11
64.955
 20
-45.066
 21
-46.699
  0
LINE
  8
0
 10
64.955
 11
63.771
 20
-46.699
 21
-48.304
  0
LINE
  8
0
 10
63.771
 11
62.547
 20
-48.304
 21
-49.879
  0
LINE
  8
0
 10
62.547
 11
61.284
 20
-49.879
 21
-51.423
  0
LINE
  8
0
 10
61.284
 11
59.982
 20
-51.423
 21
-52.935
  0
LINE
  8
0
 10
59.982
 11
58.644
 20
-52.935
 21
-54.414
  0
LINE
  8
0
 10
58.644
 11
57.269
 20
-54.414
 21
-55.859
  0
LINE
  8
0
 10
57.269
 11
55.859
 20
-55.859
 21
-57.269
  0
LINE
  8
0
 10
55.859
 11
54.414
 20
-57.269
 21
-58.644
  0
LINE
  8
0
 10
54.414
 11
52.935
 20
-58.644
 21
-59.982
  0
LINE
  8
0
 10
52.935
 11
51.423
 20
-59.982
 21
-61.284
  0
LINE
  8
0
 10
51.423
 11
49.879
 20
-61.284
 21
-62.547
  0
LINE
  8
0
 10
49.879
 11
48.304
 20
-62.547
 21
-63.771
  0
LINE
  8
0
 10
48.304
 11
46.699
 20
-63.771
 21
-64.955
  0
LINE
  8
0
 10
46.699
 11
45.066
 20
-64.955
 21
-66.099
  0
LINE
  8
0
 10
45.066
 11
43.404
 20
-66.099
 21
-67.202
  0
LINE
  8
0
 10
43.404
 11
41.715
 20
-67.202
 21
-68.263
  0
LINE
  8
0
 10
41.715
 11
40
 20
-68.263
 21
-69.282
  0
LINE
  8
0
 10
40
 11
38.26
 20
-69.282
 21
-70.258
  0
LINE
  8
0
 10
38.26
 11
36.497
 20
-70.258
 21
-71.19
  0
LINE
  8
0
 10
36.497
 11
34.711
 20
-71.19
 21
-72.078
  0
LINE
  8
0
 10
34.711
 11
32.903
 20
-72.078
 21
-72.92
  0
LINE
  8
0
 10
32.903
 11
31.075
 20
-72.92
 21
-73.718
  0
LINE
  8
0
 10
31.075
 11
29.227
 20
-73.718
 21
-74.47
  0
LINE
  8
0
 10
29.227
 11
27.362
 20
-74.47
 21
-75.175
  0
LINE
  8
0
 10
27.362
 11
25.479
 20
-75.175
 21
-75.834
  0
LINE
  8
0
 10
25.479
 11
23.58
 20
-75.834
 21
-76.446
  0
LINE
  8
0
 10
23.58
 11
21.667
 20
-76.446
 21
-77.01
  0
LINE
  8
0
 10
21.667
 11
19.741
 20
-77.01
 21
-77.526
  0
LINE
  8
0
 10
19.741
 11
17.802
 20
-77.526
 21
-77.994
  0
LINE
  8
0
 10
17.802
 11
15.852
 20
-77.994
 21
-78.414
  0
LINE
  8
0
 10
15.852
 11
13.892
 20
-78.414
 21
-78.785
  0
LINE
  8
0
 10
13.892
 11
11.923
 20
-78.785
 21
-79.106
  0
LINE
  8
0
 10
11.923
 11
9.947
 20
-79.106
 21
-79.379
  0
LINE
  8
0
 10
9.947
 11
7.965
 20
-79.379
 21
-79.602
  0
LINE
  8
0
 10
7.965
 11
5.978
 20
-79.602
 21
-79.776
  0
LINE
  8
0
 10
5.978
 11
3.988
 20
-79.776
 21
-79.901
  0
LINE
  8
0
 10
3.988
 11
1.994
 20
-79.901
 21
-79.975
  0
LINE
  8
0
 10
1.994
 11
0
 20
-79.975
 21
-80
  0
LINE
  8
0
 10
0
 11
-1.994
 20
-80
 21
-79.975
  0
LINE
  8
0
 10
-1.994
 11
-3.988
 20
-79.975
 21
-79.901
  0
LINE
  8
0
 10
-3.988
 11
-5.978
 20
-79.901
 21
-79.776
  0
LINE
  8
0
 10
-5.978
 11
-7.965
 20
-79.776
 21
-79.602
  0
LINE
  8
0
 10
-7.965
 11
-9.947
 20
-79.602
 21
-79.379
  0
LINE
  8
0
 10
-9.947
 11
-11.923
 20
-79.379
 21
-79.106
  0
LINE
  8
0
 10
-11.923
 11
-13.892
 20
-79.106
 21
-78.785
  0
LINE
  8
0
 10
-13.892
 11
-15.852
 20
-78.785
 21
-78.414
  0
LINE
  8
0
 10
-15.852
 11
-17.802
 20
-78.414
 21
-77.994
  0
LINE
  8
0
 10
-17.802
 11
-19.741
 20
-77.994
 21
-77.526
  0
LINE
  8
0
 10
-19.741
 11
-21.667
 20
-77.526
 21
-77.01
  0
LINE
  8
0
 10
-21.667
 11
-23.58
 20
-77.01
 21
-76.446
  0
LINE
  8
0
 10
-23.58
 11
-25.479
 20
-76.446
 21
-75.834
  0
LINE
  8
0
 10
-25.479
 11
-27.362
 20
-75.834
 21
-75.175
  0
LINE
  8
0
 10
-27.362
 11
-29.227
 20
-75.175
 21
-74.47
  0
LINE
  8
0
 10
-29.227
 11
-31.075
 20
-74.47
 21
-73.718
  0
LINE
  8
0
 10
-31.075
 11
-32.903
 20
-73.718
 21
-72.92
  0
LINE
  8
0
 10
-32.903
 11
-34.711
 20
-72.92
 21
-72.078
  0
LINE
  8
0
 10
-34.711
 11
-36.497
 20
-72.078
 21
-71.19
  0
LINE
  8
0
 10
-36.497
 11
-38.26
 20
-71.19
 21
-70.258
  0
LINE
  8
0
 10
-38.26
 11
-40
 20
-70.258
 21
-69.282
  0
LINE
  8
0
 10
-40
 11
-41.715
 20
-69.282
 21
-68.263
  0
LINE
  8
0
 10
-41.715
 11
-43.404
 20
-68.263
 21
-67.202
  0
LINE
  8
0
 10
-43.404
 11
-45.066
 20
-67.202
 21
-66.099
  0
LINE
  8
0
 10
-45.066
 11
-46.699
 20
-66.099
 21
-64.955
  0
LINE
  8
0
 10
-46.699
 11
-48.304
 20
-64.955
 21
-63.771
  0
LINE
  8
0
 10
-48.304
 11
-49.879
 20
-63.771
 21
-62.547
  0
LINE
  8
0
 10
-49.879
 11
-51.423
 20
-62.547
 21
-61.284
  0
LINE
  8
0
 10
-51.423
 11
-52.935
 20
-61.284
 21
-59.982
  0
LINE
  8
0
 10
-52.935
 11
-54.414
 20
-59.982
 21
-58.644
  0
LINE
  8
0
 10
-54.414
 11
-55.859
 20
-58.644
 21
-57.269
  0
LINE
  8
0
 10
-55.859
 11
-57.269
 20
-57.269
 21
-55.859
  0
LINE
  8
0
 10
-57.269
 11
-58.644
 20
-55.859
 21
-54.414
  0
LINE
  8
0
 10
-58.644
 11
-59.982
 20
-54.414
 21
-52.935
  0
LINE
  8
0
 10
-59.982
 11
-61.284
 20
-52.935
 21
-51.423
  0
LINE
  8
0
 10
-61.284
 11
-62.547
 20
-51.423
 21
-49.879
  0
LINE
  8
0
 10
-62.547
 11
-63.771
 20
-49.879
 21
-48.304
  0
LINE
  8
0
 10
-63.771
 11
-64.955
 20
-48.304
 21
-46.699
  0
LINE
  8
0
 10
-64.955
 11
-66.099
 20
-46.699
 21
-45.066
  0
LINE
  8
0
 10
-66.099
 11
-67.202
 20
-45.066
 21
-43.404
  0
LINE
  8
0
 10
-67.202
 11
-68.263
 20
-43.404
 21
-41.715
  0
LINE
  8
0
 10
-68.263
 11
-69.282
 20
-41.715
 21
-40
  0
LINE
  8
0
 10
-69.282
 11
-70.258
 20
-40
 21
-38.26
  0
LINE
  8
0
 10
-70.258
 11
-71.19
 20
-38.26
 21
-36.497
  0
LINE
  8
0
 10
-71.19
 11
-72.078
 20
-36.497
 21
-34.711
  0
LINE
  8
0
 10
-72.078
 11
-72.92
 20
-34.711
 21
-32.903
  0
LINE
  8
0
 10
-72.92
 11
-73.718
 20
-32.903
 21
-31.075
  0
LINE
  8
0
 10
-73.718
 11
-74.47
 20
-31.075
 21
-29.227
  0
LINE
  8
0
 10
-74.47
 11
-75.175
 20
-29.227
 21
-27.362
  0
LINE
  8
0
 10
-75.175
 11
-75.834
 20
-27.362
 21
-25.479
  0
LINE
  8
0
 10
-75.834
 11
-76.446
 20
-25.479
 21
-23.58
  0
LINE
  8
0
 10
-76.446
 11
-77.01
 20
-23.58
 21
-21.667
  0
LINE
  8
0
 10
-77.01
 11
-77.526
 20
-21.667
 21
-19.741
  0
LINE
  8
0
 10
-77.526
 11
-77.994
 20
-19.741
 21
-17.802
  0
LINE
  8
0
 10
-77.994
 11
-78.414
 20
-17.802
 21
-15.852
  0
LINE
  8
0
 10
-78.414
 11
-78.785
 20
-15.852
 21
-13.892
  0
LINE
  8
0
 10
-78.785
 11
-79.106
 20
-13.892
 21
-11.923
  0
LINE
  8
0
 10
-79.106
 11
-79.379
 20
-11.923
 21
-9.947
  0
LINE
  8
0
 10
-79.379
 11
-79.602
 20
-9.947
 21
-7.965
  0
LINE
  8
0
 10
-79.602
 11
-79.776
 20
-7.965
 21
-5.978
  0
LINE
  8
0
 10
-79.776
 11
-79.901
 20
-5.978
 21
-3.988
  0
LINE
  8
0
 10
-79.901
 11
-79.975
 20
-3.988
 21
-1.994
  0
LINE
  8
0
 10
-79.975
 11
-80
 20
-1.994
 21
0
  0
LINE
  8
0
 10
-85
 11
-84.977
 20
0
 21
1.993
  0
LINE
  8
0
 10
-84.977
 11
-84.907
 20
1.993
 21
3.984
  0
LINE
  8
0
 10
-84.907
 11
-84.79
 20
3.984
 21
5.973
  0
LINE
  8
0
 10
-84.79
 11
-84.627
 20
5.973
 21
7.96
  0
LINE
  8
0
 10
-84.627
 11
-84.417
 20
7.96
 21
9.941
  0
LINE
  8
0
 10
-84.417
 11
-84.16
 20
9.941
 21
11.917
  0
LINE
  8
0
 10
-84.16
 11
-83.858
 20
11.917
 21
13.887
  0
LINE
  8
0
 10
-83.858
 11
-83.509
 20
13.887
 21
15.849
  0
LINE
  8
0
 10
-83.509
 11
-83.115
 20
15.849
 21
17.802
  0
LINE
  8
0
 10
-83.115
 11
-82.675
 20
17.802
 21
19.746
  0
LINE
  8
0
 10
-82.675
 11
-82.189
 20
19.746
 21
21.679
  0
LINE
  8
0
 10
-82.189
 11
-81.658
 20
21.679
 21
23.599
  0
LINE
  8
0
 10
-81.658
 11
-81.083
 20
23.599
 21
25.507
  0
LINE
  8
0
 10
-81.083
 11
-80.462
 20
25.507
 21
27.401
  0
LINE
  8
0
 10
-80.462
 11
-79.798
 20
27.401
 21
29.28
  0
LINE
  8
0
 10
-79.798
 11
-79.09
 20
29.28
 21
31.142
  0
LINE
  8
0
 10
-79.09
 11
-78.338
 20
31.142
 21
32.988
  0
LINE
  8
0
 10
-78.338
 11
-77.543
 20
32.988
 21
34.815
  0
LINE
  8
0
 10
-77.543
 11
-76.705
 20
34.815
 21
36.623
  0
LINE
  8
0
 10
-76.705
 11
-75.826
 20
36.623
 21
38.412
  0
LINE
  8
0
 10
-75.826
 11
-74.905
 20
38.412
 21
40.179
  0
LINE
  8
0
 10
-74.905
 11
-73.942
 20
40.179
 21
41.923
  0
LINE
  8
0
 10
-73.942
 11
-72.939
 20
41.923
 21
43.645
  0
LINE
  8
0
 10
-72.939
 11
-71.896
 20
43.645
 21
45.343
  0
LINE
  8
0
 10
-71.896
 11
-70.813
 20
45.343
 21
47.016
  0
LINE
  8
0
 10
-70.813
 11
-69.691
 20
47.016
 21
48.663
  0
LINE
  8
0
 10
-69.691
 11
-68.531
 20
48.663
 21
50.284
  0
LINE
  8
0
 10
-68.531
 11
-67.334
 20
50.284
 21
51.876
  0
LINE
  8
0
 10
-67.334
 11
-66.099
 20
51.876
 21
53.441
  0
LINE
  8
0
 10
-66.099
 11
-64.828
 20
53.441
 21
54.975
  0
LINE
  8
0
 10
-64.828
 11
-63.522
 20
54.975
 21
56.48
  0
LINE
  8
0
 10
-63.522
 11
-62.18
 20
56.48
 21
57.954
  0
LINE
  8
0
 10
-62.18
 11
-60.804
 20
57.954
 21
59.395
  0
LINE
  8
0
 10
-60.804
 11
-59.395
 20
59.395
 21
60.804
  0
LINE
  8
0
 10
-59.395
 11
-57.954
 20
60.804
 21
62.18
  0
LINE
  8
0
 10
-57.954
 11
-56.48
 20
62.18
 21
63.522
  0
LINE
  8
0
 10
-56.48
 11
-54.975
 20
63.522
 21
64.828
  0
LINE
  8
0
 10
-54.975
 11
-53.441
 20
64.828
 21
66.099
  0
LINE
  8
0
 10
-53.441
 11
-51.876
 20
66.099
 21
67.334
  0
LINE
  8
0
 10
-51.876
 11
-50.284
 20
67.334
 21
68.531
  0
LINE
  8
0
 10
-50.284
 11
-48.663
 20
68.531
 21
69.691
  0
LINE
  8
0
 10
-48.663
 11
-47.016
 20
69.691
 21
70.813
  0
LINE
  8
0
 10
-47.016
 11
-45.343
 20
70.813
 21
71.896
  0
LINE
  8
0
 10
-45.343
 11
-43.645
 20
71.896
 21
72.939
  0
LINE
  8
0
 10
-43.645
 11
-41.923
 20
72.939
 21
73.942
  0
LINE
  8
0
 10
-41.923
 11
-40.179
 20
73.942
 21
74.905
  0
LINE
  8
0
 10
-40.179
 11
-38.412
 20
74.905
 21
75.826
  0
LINE
  8
0
 10
-38.412
 11
-36.623
 20
75.826
 21
76.705
  0
LINE
  8
0
 10
-36.623
 11
-34.815
 20
76.705
 21
77.543
  0
LINE
  8
0
 10
-34.815
 11
-32.988
 20
77.543
 21
78.338
  0
LINE
  8
0
 10
-32.988
 11
-31.142
 20
78.338
 21
79.09
  0
LINE
  8
0
 10
-31.142
 11
-29.28
 20
79.09
 21
79.798
  0
LINE
  8
0
 10
-29.28
 11
-27.401
 20
79.798
 21
80.462
  0
LINE
  8
0
 10
-27.401
 11
-25.507
 20
80.462
 21
81.083
  0
LINE
  8
0
 10
-25.507
 11
-23.599
 20
81.083
 21
81.658
  0
LINE
  8
0
 10
-23.599
 11
-21.679
 20
81.658
 21
82.189
  0
LINE
  8
0
 10
-21.679
 11
-19.746
 20
82.189
 21
82.675
  0
LINE
  8
0
 10
-19.746
 11
-17.802
 20
82.675
 21
83.115
  0
LINE
  8
0
 10
-17.802
 11
-15.849
 20
83.115
 21
83.509
  0
LINE
  8
0
 10
-15.849
 11
-13.887
 20
83.509
 21
83.858
  0
LINE
  8
0
 10
-13.887
 11
-11.917
 20
83.858
 21
84.16
  0
LINE
  8
0
 10
-11.917
 11
-9.941
 20
84.16
 21
84.417
  0
LINE
  8
0
 10
-9.941
 11
-7.96
 20
84.417
 21
84.627
  0
LINE
  8
0
 10
-7.96
 11
-5.973
 20
84.627
 21
84.79
  0
LINE
  8
0
 10
-5.973
 11
-3.984
 20
84.79
 21
84.907
  0
LINE
  8
0
 10
-3.984
 11
-1.993
 20
84.907
 21
84.977
  0
LINE
  8
0
 10
-1.993
 11
0
 20
84.977
 21
85
  0
LINE
  8
0
 10
0
 11
1.993
 20
85
 21
84.977
  0
LINE
  8
0
 10
1.993
 11
3.984
 20
84.977
 21
84.907
  0
LINE
  8
0
 10
3.984
 11
5.973
 20
84.907
 21
84.79
  0
LINE
  8
0
 10
5.973
 11
7.96
 20
84.79
 21
84.627
  0
LINE
  8
0
 10
7.96
 11
9.941
 20
84.627
 21
84.417
  0
LINE
  8
0
 10
9.941
 11
11.917
 20
84.417
 21
84.16
  0
LINE
  8
0
 10
11.917
 11
13.887
 20
84.16
 21
83.858
  0
LINE
  8
0
 10
13.887
 11
15.849
 20
83.858
 21
83.509
  0
LINE
  8
0
 10
15.849
 11
17.802
 20
83.509
 21
83.115
  0
LINE
  8
0
 10
17.802
 11
19.746
 20
83.115
 21
82.675
  0
LINE
  8
0
 10
19.746
 11
21.679
 20
82.675
 21
82.189
  0
LINE
  8
0
 10
21.679
 11
23.599
 20
82.189
 21
81.658
  0
LINE
  8
0
 10
23.599
 11
25.507
 20
81.658
 21
81.083
  0
LINE
  8
0
 10
25.507
 11
27.401
 20
81.083
 21
80.462
  0
LINE
  8
0
 10
27.401
 11
29.28
 20
80.462
 21
79.798
  0
LINE
  8
0
 10
29.28
 11
31.142
 20
79.798
 21
79.09
  0
LINE
  8
0
 10
31.142
 11
32.988
 20
79.09
 21
78.338
  0
LINE
  8
0
 10
32.988
 11
34.815
 20
78.338
 21
77.543
  0
LINE
  8
0
 10
34.815
 11
36.623
 20
77.543
 21
76.705
  0
LINE
  8
0
 10
36.623
 11
38.412
 20
76.705
 21
75.826
  0
LINE
  8
0
 10
38.412
 11
40.179
 20
75.826
 21
74.905
  0
LINE
  8
0
 10
40.179
 11
41.923
 20
74.905
 21
73.942
  0
LINE
  8
0
 10
41.923
 11
43.645
 20
73.942
 21
72.939
  0
LINE
  8
0
 10
43.645
 11
45.343
 20
72.939
 21
71.896
  0
LINE
  8
0
 10
45.343
 11
47.016
 20
71.896
 21
70.813
  0
LINE
  8
0
 10
47.016
 11
48.663
 20
70.813
 21
69.691
  0
LINE
  8
0
 10
48.663
 11
50.284
 20
69.691
 21
68.531
  0
LINE
  8
0
 10
50.284
 11
51.876
 20
68.531
 21
67.334
  0
LINE
  8
0
 10
51.876
 11
53.441
 20
67.334
 21
66.099
  0
LINE
  8
0
 10
53.441
 11
54.975
 20
66.099
 21
64.828
  0
LINE
  8
0
 10
54.975
 11
56.48
 20
64.828
 21
63.522
  0
LINE
  8
0
 10
56.48
 11
57.954
 20
63.522
 21
62.18
  0
LINE
  8
0
 10
57.954
 11
59.395
 20
62.18
 21
60.804
  0
LINE
  8
0
 10
59.395
 11
60.804
 20
60.804
 21
59.395
  0
LINE
  8
0
 10
60.804
 11
62.18
 20
59.395
 21
57.954
  0
LINE
  8
0
 10
62.18
 11
63.522
 20
57.954
 21
56.48
  0
LINE
  8
0
 10
63.522
 11
64.828
 20
56.48
 21
54.975
  0
LINE
  8
0
 10
64.828
 11
66.099
 20
54.975
 21
53.441
  0
LINE
  8
0
 10
66.099
 11
67.334
 20
53.441
 21
51.876
  0
LINE
  8
0
 10
67.334
 11
68.531
 20
51.876
 21
50.284
  0
LINE
  8
0
 10
68.531
 11
69.691
 20
50.284
 21
48.663
  0
LINE
  8
0
 10
69.691
 11
70.813
 20
48.663
 21
47.016
  0
LINE
  8
0
 10
70.813
 11
71.896
 20
47.016
 21
45.343
  0
LINE
  8
0
 10
71.896
 11
72.939
 20
45.343
 21
43.645
  0
LINE
  8
0
 10
72.939
 11
73.942
 20
43.645
 21
41.923
  0
LINE
  8
0
 10
73.942
 11
74.905
 20
41.923
 21
40.179
  0
LINE
  8
0
 10
74.905
 11
75.826
 20
40.179
 21
38.412
  0
LINE
  8
0
 10
75.826
 11
76.705
 20
38.412
 21
36.623
  0
LINE
  8
0
 10
76.705
 11
77.543
 20
36.623
 21
34.815
  0
LINE
  8
0
 10
77.543
 11
78.338
 20
34.815
 21
32.988
  0
LINE
  8
0
 10
78.338
 11
79.09
 20
32.988
 21
31.142
  0
LINE
  8
0
 10
79.09
 11
79.798
 20
31.142
 21
29.28
  0
LINE
  8
0
 10
79.798
 11
80.462
 20
29.28
 21
27.401
  0
LINE
  8
0
 10
80.462
 11
81.083
 20
27.401
 21
25.507
  0
LINE
  8
0
 10
81.083
 11
81.658
 20
25.507
 21
23.599
  0
LINE
  8
0
 10
81.658
 11
82.189
 20
23.599
 21
21.679
  0
LINE
  8
0
 10
82.189
 11
82.675
 20
21.679
 21
19.746
  0
LINE
  8
0
 10
82.675
 11
83.115
 20
19.746
 21
17.802
  0
LINE
  8
0
 10
83.115
 11
83.509
 20
17.802
 21
15.849
  0
LINE
  8
0
 10
83.509
 11
83.858
 20
15.849
 21
13.887
  0
LINE
  8
0
 10
83.858
 11
84.16
 20
13.887
 21
11.917
  0
LINE
  8
0
 10
84.16
 11
84.417
 20
11.917
 21
9.941
  0
LINE
  8
0
 10
84.417
 11
84.627
 20
9.941
 21
7.96
  0
LINE
  8
0
 10
84.627
 11
84.79
 20
7.96
 21
5.973
  0
LINE
  8
0
 10
84.79
 11
84.907
 20
5.973
 21
3.984
  0
LINE
  8
0
 10
84.907
 11
84.977
 20
3.984
 21
1.993
  0
LINE
  8
0
 10
84.977
 11
85
 20
1.993
 21
0
  0
LINE
  8
0
 10
85
 11
84.977
 20
0
 21
-1.993
  0
LINE
  8
0
 10
84.977
 11
84.907
 20
-1.993
 21
-3.984
  0
LINE
  8
0
 10
84.907
 11
84.79
 20
-3.984
 21
-5.973
  0
LINE
  8
0
 10
84.79
 11
84.627
 20
-5.973
 21
-7.96
  0
LINE
  8
0
 10
84.627
 11
84.417
 20
-7.96
 21
-9.941
  0
LINE
  8
0
 10
84.417
 11
84.16
 20
-9.941
 21
-11.917
  0
LINE
  8
0
 10
84.16
 11
83.858
 20
-11.917
 21
-13.887
  0
LINE
  8
0
 10
83.858
 11
83.509
 20
-13.887
 21
-15.849
  0
LINE
  8
0
 10
83.509
 11
83.115
 20
-15.849
 21
-17.802
  0
LINE
  8
0
 10
83.115
 11
82.675
 20
-17.802
 21
-19.746
  0
LINE
  8
0
 10
82.675
 11
82.189
 20
-19.746
 21
-21.679
  0
LINE
  8
0
 10
82.189
 11
81.658
 20
-21.679
 21
-23.599
  0
LINE
  8
0
 10
81.658
 11
81.083
 20
-23.599
 21
-25.507
  0
LINE
  8
0
 10
81.083
 11
80.462
 20
-25.507
 21
-27.401
  0
LINE
  8
0
 10
80.462
 11
79.798
 20
-27.401
 21
-29.28
  0
LINE
  8
0
 10
79.798
 11
79.09
 20
-29.28
 21
-31.142
  0
LINE
  8
0
 10
79.09
 11
78.338
 20
-31.142
 21
-32.988
  0
LINE
  8
0
 10
78.338
 11
77.543
 20
-32.988
 21
-34.815
  0
LINE
  8
0
 10
77.543
 11
76.705
 20
-34.815
 21
-36.623
  0
LINE
  8
0
 10
76.705
 11
75.826
 20
-36.623
 21
-38.412
  0
LINE
  8
0
 10
75.826
 11
74.905
 20
-38.412
 21
-40.179
  0
LINE
  8
0
 10
74.905
 11
73.942
 20
-40.179
 21
-41.923
  0
LINE
  8
0
 10
73.942
 11
72.939
 20
-41.923
 21
-43.645
  0
LINE
  8
0
 10
72.939
 11
71.896
 20
-43.645
 21
-45.343
  0
LINE
  8
0
 10
71.896
 11
70.813
 20
-45.343
 21
-47.016
  0
LINE
  8
0
 10
70.813
 11
69.691
 20
-47.016
 21
-48.663
  0
LINE
  8
0
 10
69.691
 11
68.531
 20
-48.663
 21
-50.284
  0
LINE
  8
0
 10
68.531
 11
67.334
 20
-50.284
 21
-51.876
  0
LINE
  8
0
 10
67.334
 11
66.099
 20
-51.876
 21
-53.441
  0
LINE
  8
0
 10
66.099
 11
64.828
 20
-53.441
 21
-54.975
  0
LINE
  8
0
 10
64.828
 11
63.522
 20
-54.975
 21
-56.48
  0
LINE
  8
0
 10
63.522
 11
62.18
 20
-56.48
 21
-57.954
  0
LINE
  8
0
 10
62.18
 11
60.804
 20
-57.954
 21
-59.395
  0
LINE
  8
0
 10
60.804
 11
59.395
 20
-59.395
 21
-60.804
  0
LINE
  8
0
 10
59.395
 11
57.954
 20
-60.804
 21
-62.18
  0
LINE
  8
0
 10
57.954
 11
56.48
 20
-62.18
 21
-63.522
  0
LINE
  8
0
 10
56.48
 11
54.975
 20
-63.522
 21
-64.828
  0
LINE
  8
0
 10
54.975
 11
53.441
 20
-64.828
 21
-66.099
  0
LINE
  8
0
 10
53.441
 11
51.876
 20
-66.099
 21
-67.334
  0
LINE
  8
0
 10
51.876
 11
50.284
 20
-67.334
 21
-68.531
  0
LINE
  8
0
 10
50.284
 11
48.663
 20
-68.531
 21
-69.691
  0
LINE
  8
0
 10
48.663
 11
47.016
 20
-69.691
 21
-70.813
  0
LINE
  8
0
 10
47.016
 11
45.343
 20
-70.813
 21
-71.896
  0
LINE
  8
0
 10
45.343
 11
43.645
 20
-71.896
 21
-72.939
  0
LINE
  8
0
 10
43.645
 11
41.923
 20
-72.939
 21
-73.942
  0
LINE
  8
0
 10
41.923
 11
40.179
 20
-73.942
 21
-74.905
  0
LINE
  8
0
 10
40.179
 11
38.412
 20
-74.905
 21
-75.826
  0
LINE
  8
0
 10
38.412
 11
36.623
 20
-75.826
 21
-76.705
  0
LINE
  8
0
 10
36.623
 11
34.815
 20
-76.705
 21
-77.543
  0
LINE
  8
0
 10
34.815
 11
32.988
 20
-77.543
 21
-78.338
  0
LINE
  8
0
 10
32.988
 11
31.142
 20
-78.338
 21
-79.09
  0
LINE
  8
0
 10
31.142
 11
29.28
 20
-79.09
 21
-79.798
  0
LINE
  8
0
 10
29.28
 11
27.401
 20
-79.798
 21
-80.462
  0
LINE
  8
0
 10
27.401
 11
25.507
 20
-80.462
 21
-81.083
  0
LINE
  8
0
 10
25.507
 11
23.599
 20
-81.083
 21
-81.658
  0
LINE
  8
0
 10
23.599
 11
21.679
 20
-81.658
 21
-82.189
  0
LINE
  8
0
 10
21.679
 11
19.746
 20
-82.189
 21
-82.675
  0
LINE
  8
0
 10
19.746
 11
17.802
 20
-82.675
 21
-83.115
  0
LINE
  8
0
 10
17.802
 11
15.849
 20
-83.115
 21
-83.509
  0
LINE
  8
0
 10
15.849
 11
13.887
 20
-83.509
 21
-83.858
  0
LINE
  8
0
 10
13.887
 11
11.917
 20
-83.858
 21
-84.16
  0
LINE
  8
0
 10
11.917
 11
9.941
 20
-84.16
 21
-84.417
  0
LINE
  8
0
 10
9.941
 11
7.96
 20
-84.417
 21
-84.627
  0
LINE
  8
0
 10
7.96
 11
5.973
 20
-84.627
 21
-84.79
  0
LINE
  8
0
 10
5.973
 11
3.984
 20
-84.79
 21
-84.907
  0
LINE
  8
0
 10
3.984
 11
1.993
 20
-84.907
 21
-84.977
  0
LINE
  8
0
 10
1.993
 11
0
 20
-84.977
 21
-85
  0
LINE
  8
0
 10
0
 11
-1.993
 20
-85
 21
-84.977
  0
LINE
  8
0
 10
-1.993
 11
-3.984
 20
-84.977
 21
-84.907
  0
LINE
  8
0
 10
-3.984
 11
-5.973
 20
-84.907
 21
-84.79
  0
LINE
  8
0
 10
-5.973
 11
-7.96
 20
-84.79
 21
-84.627
  0
LINE
  8
0
 10
-7.96
 11
-9.941
 20
-84.627
 21
-84.417
  0
LINE
  8
0
 10
-9.941
 11
-11.917
 20
-84.417
 21
-84.16
  0
LINE
  8
0
 10
-11.917
 11
-13.887
 20
-84.16
 21
-83.858
  0
LINE
  8
0
 10
-13.887
 11
-15.849
 20
-83.858
 21
-83.509
  0
LINE
  8
0
 10
-15.849
 11
-17.802
 20
-83.509
 21
-83.115
  0
LINE
  8
0
 10
-17.802
 11
-19.746
 20
-83.115
 21
-82.675
  0
LINE
  8
0
 10
-19.746
 11
-21.679
 20
-82.675
 21
-82.189
  0
LINE
  8
0
 10
-21.679
 11
-23.599
 20
-82.189
 21
-81.658
  0
LINE
  8
0
 10
-23.599
 11
-25.507
 20
-81.658
 21
-81.083
  0
LINE
  8
0
 10
-25.507
 11
-27.401
 20
-81.083
 21
-80.462
  0
LINE
  8
0
 10
-27.401
 11
-29.28
 20
-80.462
 21
-79.798
  0
LINE
  8
0
 10
-29.28
 11
-31.142
 20
-79.798
 21
-79.09
  0
LINE
  8
0
 10
-31.142
 11
-32.988
 20
-79.09
 21
-78.338
  0
LINE
  8
0
 10
-32.988
 11
-34.815
 20
-78.338
 21
-77.543
  0
LINE
  8
0
 10
-34.815
 11
-36.623
 20
-77.543
 21
-76.705
  0
LINE
  8
0
 10
-36.623
 11
-38.412
 20
-76.705
 21
-75.826
  0
LINE
  8
0
 10
-38.412
 11
-40.179
 20
-75.826
 21
-74.905
  0
LINE
  8
0
 10
-40.179
 11
-41.923
 20
-74.905
 21
-73.942
  0
LINE
  8
0
 10
-41.923
 11
-43.645
 20
-73.942
 21
-72.939
  0
LINE
  8
0
 10
-43.645
 11
-45.343
 20
-72.939
 21
-71.896
  0
LINE
  8
0
 10
-45.343
 11
-47.016
 20
-71.896
 21
-70.813
  0
LINE
  8
0
 10
-47.016
 11
-48.663
 20
-70.813
 21
-69.691
  0
LINE
  8
0
 10
-48.663
 11
-50.284
 20
-69.691
 21
-68.531
  0
LINE
  8
0
 10
-50.284
 11
-51.876
 20
-68.531
 21
-67.334
  0
LINE
  8
0
 10
-51.876
 11
-53.441
 20
-67.334
 21
-66.099
  0
LINE
  8
0
 10
-53.441
 11
-54.975
 20
-66.099
 21
-64.828
  0
LINE
  8
0
 10
-54.975
 11
-56.48
 20
-64.828
 21
-63.522
  0
LINE
  8
0
 10
-56.48
 11
-57.954
 20
-63.522
 21
-62.18
  0
LINE
  8
0
 10
-57.954
 11
-59.395
 20
-62.18
 21
-60.804
  0
LINE
  8
0
 10
-59.395
 11
-60.804
 20
-60.804
 21
-59.395
  0
LINE
  8
0
 10
-60.804
 11
-62.18
 20
-59.395
 21
-57.954
  0
LINE
  8
0
 10
-62.18
 11
-63.522
 20
-57.954
 21
-56.48
  0
LINE
  8
0
 10
-63.522
 11
-64.828
 20
-56.48
 21
-54.975
  0
LINE
  8
0
 10
-64.828
 11
-66.099
 20
-54.975
 21
-53.441
  0
LINE
  8
0
 10
-66.099
 11
-67.334
 20
-53.441
 21
-51.876
  0
LINE
  8
0
 10
-67.334
 11
-68.531
 20
-51.876
 21
-50.284
  0
LINE
  8
0
 10
-68.531
 11
-69.691
 20
-50.284
 21
-48.663
  0
LINE
  8
0
 10
-69.691
 11
-70.813
 20
-48.663
 21
-47.016
  0
LINE
  8
0
 10
-70.813
 11
-71.896
 20
-47.016
 21
-45.343
  0
LINE
  8
0
 10
-71.896
 11
-72.939
 20
-45.343
 21
-43.645
  0
LINE
  8
0
 10
-72.939
 11
-73.942
 20
-43.645
 21
-41.923
  0
LINE
  8
0
 10
-73.942
 11
-74.905
 20
-41.923
 21
-40.179
  0
LINE
  8
0
 10
-74.905
 11
-75.826
 20
-40.179
 21
-38.412
  0
LINE
  8
0
 10
-75.826
 11
-76.705
 20
-38.412
 21
-36.623
  0
LINE
  8
0
 10
-76.705
 11
-77.543
 20
-36.623
 21
-34.815
  0
LINE
  8
0
 10
-77.543
 11
-78.338
 20
-34.815
 21
-32.988
  0
LINE
  8
0
 10
-78.338
 11
-79.09
 20
-32.988
 21
-31.142
  0
LINE
  8
0
 10
-79.09
 11
-79.798
 20
-31.142
 21
-29.28
  0
LINE
  8
0
 10
-79.798
 11
-80.462
 20
-29.28
 21
-27.401
  0
LINE
  8
0
 10
-80.462
 11
-81.083
 20
-27.401
 21
-25.507
  0
LINE
  8
0
 10
-81.083
 11
-81.658
 20
-25.507
 21
-23.599
  0
LINE
  8
0
 10
-81.658
 11
-82.189
 20
-23.599
 21
-21.679
  0
LINE
  8
0
 10
-82.189
 11
-82.675
 20
-21.679
 21
-19.746
  0
LINE
  8
0
 10
-82.675
 11
-83.115
 20
-19.746
 21
-17.802
  0
LINE
  8
0
 10
-83.115
 11
-83.509
 20
-17.802
 21
-15.849
  0
LINE
  8
0
 10
-83.509
 11
-83.858
 20
-15.849
 21
-13.887
  0
LINE
  8
0
 10
-83.858
 11
-84.16
 20
-13.887
 21
-11.917
  0
LINE
  8
0
 10
-84.16
 11
-84.417
 20
-11.917
 21
-9.941
  0
LINE
  8
0
 10
-84.417
 11
-84.627
 20
-9.941
 21
-7.96
  0
LINE
  8
0
 10
-84.627
 11
-84.79
 20
-7.96
 21
-5.973
  0
LINE
  8
0
 10
-84.79
 11
-84.907
 20
-5.973
 21
-3.984
  0
LINE
  8
0
 10
-84.907
 11
-84.977
 20
-3.984
 21
-1.993
  0
LINE
  8
0
 10
-84.977
 11
-85
 20
-1.993
 21
0
  0
ENDSEC
  0
SECTION
  2
OBJECTS
  0
DICTIONARY
  0
ENDSEC
  0
EOF
